AnekMalayalam-Thin.ufo
<glyph name="numbersign" format="2">
  <advance width="1183"/>
  <unicode hex="0023"/>
  <outline>
    <contour>
      <point x="310" y="0" type="line"/>
      <point x="462" y="1278" type="line"/>
      <point x="426" y="1278" type="line"/>
      <point x="274" y="0" type="line"/>
    </contour>
    <contour>
      <point x="1042" y="384" type="line"/>
      <point x="1042" y="416" type="line"/>
      <point x="83" y="416" type="line"/>
      <point x="83" y="384" type="line"/>
    </contour>
    <contour>
      <point x="760" y="0" type="line"/>
      <point x="909" y="1278" type="line"/>
      <point x="873" y="1278" type="line"/>
      <point x="723" y="0" type="line"/>
    </contour>
    <contour>
      <point x="1100" y="873" type="line"/>
      <point x="1100" y="905" type="line"/>
      <point x="144" y="905" type="line"/>
      <point x="144" y="873" type="line"/>
    </contour>
  </outline>
</glyph>
<glyph name="I" format="2">
  <advance width="415"/>
  <unicode hex="0049"/>
  <anchor x="208" y="0" name="bottom"/>
  <anchor x="279" y="0" name="ogonek"/>
  <anchor x="208" y="1278" name="top"/>
  <anchor x="26" y="1278" name="topleft"/>
  <outline>
    <contour>
      <point x="227" y="1278" type="line"/>
      <point x="188" y="1278" type="line"/>
      <point x="188" y="0" type="line"/>
      <point x="227" y="0" type="line"/>
    </contour>
  </outline>
</glyph>
<glyph name="Y" format="2">
  <advance width="1039"/>
  <unicode hex="0059"/>
  <anchor x="520" y="0" name="bottom"/>
  <anchor x="520" y="1278" name="top"/>
  <anchor x="26" y="1278" name="topleft"/>
  <outline>
    <contour>
      <point x="537" y="427" type="line"/>
      <point x="973" y="1278" type="line"/>
      <point x="930" y="1278" type="line"/>
      <point x="636" y="702" type="line"/>
      <point x="525" y="485" type="line"/>
      <point x="514" y="485" type="line"/>
      <point x="403" y="702" type="line"/>
      <point x="109" y="1278" type="line"/>
      <point x="66" y="1278" type="line"/>
      <point x="502" y="427" type="line"/>
    </contour>
    <contour>
      <point x="539" y="0" type="line"/>
      <point x="539" y="471" type="line"/>
      <point x="500" y="471" type="line"/>
      <point x="500" y="0" type="line"/>
    </contour>
  </outline>
</glyph>
<glyph name="t" format="2">
  <advance width="791"/>
  <unicode hex="0074"/>
  <anchor x="455" y="0" name="bottom"/>
  <anchor x="396" y="486" name="center"/>
  <anchor x="225" y="1223" name="top"/>
  <anchor x="619" y="1402" name="topright"/>
  <outline>
    <contour>
      <point x="482" y="-18" type="curve" smooth="yes"/>
      <point x="567" y="-18"/>
      <point x="655" y="5"/>
      <point x="717" y="40" type="curve"/>
      <point x="722" y="80" type="line"/>
      <point x="647" y="37"/>
      <point x="566" y="17"/>
      <point x="483" y="17" type="curve" smooth="yes"/>
      <point x="308" y="17"/>
      <point x="242" y="91"/>
      <point x="242" y="249" type="curve" smooth="yes"/>
      <point x="242" y="925" type="line"/>
      <point x="205" y="925" type="line"/>
      <point x="205" y="246" type="line" smooth="yes"/>
      <point x="205" y="67"/>
      <point x="288" y="-18"/>
    </contour>
    <contour>
      <point x="704" y="914" type="line"/>
      <point x="709" y="946" type="line"/>
      <point x="22" y="946" type="line"/>
      <point x="22" y="914" type="line"/>
    </contour>
    <contour>
      <point x="241" y="936" type="line"/>
      <point x="244" y="1243" type="line"/>
      <point x="205" y="1228" type="line"/>
      <point x="205" y="936" type="line"/>
    </contour>
  </outline>
</glyph>
<glyph name="w" format="2">
  <advance width="1444"/>
  <unicode hex="0077"/>
  <anchor x="722" y="0" name="bottom"/>
  <anchor x="722" y="971" name="top"/>
  <outline>
    <contour>
      <point x="438" y="0" type="line"/>
      <point x="668" y="756" type="line"/>
      <point x="716" y="912" type="line"/>
      <point x="727" y="912" type="line"/>
      <point x="775" y="757" type="line"/>
      <point x="1006" y="0" type="line"/>
      <point x="1082" y="0" type="line"/>
      <point x="1360" y="971" type="line"/>
      <point x="1319" y="971" type="line"/>
      <point x="1056" y="33" type="line"/>
      <point x="1032" y="33" type="line"/>
      <point x="754" y="942" type="line"/>
      <point x="690" y="942" type="line"/>
      <point x="412" y="33" type="line"/>
      <point x="388" y="33" type="line"/>
      <point x="125" y="971" type="line"/>
      <point x="84" y="971" type="line"/>
      <point x="362" y="0" type="line"/>
    </contour>
  </outline>
</glyph>
<glyph name="micro" format="2">
  <advance width="1031"/>
  <unicode hex="00B5"/>
  <outline>
    <contour>
      <point x="832" y="971" type="line"/>
      <point x="832" y="254" type="line"/>
      <point x="836" y="254" type="line"/>
      <point x="832" y="0" type="line"/>
      <point x="869" y="0" type="line"/>
      <point x="869" y="971" type="line"/>
    </contour>
    <contour>
      <point x="199" y="971" type="line"/>
      <point x="162" y="971" type="line"/>
      <point x="162" y="-344" type="line"/>
      <point x="199" y="-344" type="line"/>
      <point x="199" y="-60" type="line"/>
      <point x="193" y="213" type="line"/>
      <point x="190" y="214" type="line"/>
      <point x="217" y="97"/>
      <point x="301" y="-19"/>
      <point x="507" y="-19" type="curve" smooth="yes"/>
      <point x="705" y="-19"/>
      <point x="829" y="120"/>
      <point x="846" y="283" type="curve"/>
      <point x="857" y="283" type="line"/>
      <point x="839" y="321" type="line"/>
      <point x="814" y="143"/>
      <point x="692" y="14"/>
      <point x="509" y="14" type="curve" smooth="yes"/>
      <point x="303" y="14"/>
      <point x="199" y="140"/>
      <point x="199" y="341" type="curve" smooth="yes"/>
    </contour>
  </outline>
</glyph>
<glyph name="gravecomb" format="2">
  <advance width="472"/>
  <unicode hex="0300"/>
  <anchor x="351" y="971" name="_top"/>
  <anchor x="236" y="1295" name="top"/>
  <outline>
    <contour>
      <point x="369" y="1112" type="line"/>
      <point x="369" y="1111" type="line"/>
      <point x="330" y="1111" type="line"/>
      <point x="109" y="1358" type="line"/>
      <point x="109" y="1360" type="line"/>
      <point x="157" y="1360" type="line"/>
    </contour>
  </outline>
</glyph>
<glyph name="combininganusvaraabovesign.mlm" format="2">
  <unicode hex="0D00"/>
  <outline>
    <contour>
      <point x="-792" y="1472" type="line" smooth="yes"/>
      <point x="-792" y="1346.3"/>
      <point x="-718" y="1279"/>
      <point x="-581" y="1279" type="curve" smooth="yes"/>
      <point x="-444" y="1279"/>
      <point x="-369" y="1346.3"/>
      <point x="-369" y="1472" type="curve" smooth="yes"/>
      <point x="-369" y="1484" type="line" smooth="yes"/>
      <point x="-369" y="1609.7"/>
      <point x="-444" y="1677"/>
      <point x="-581" y="1677" type="curve" smooth="yes"/>
      <point x="-718" y="1677"/>
      <point x="-792" y="1609.7"/>
      <point x="-792" y="1484" type="curve" smooth="yes"/>
    </contour>
    <contour>
      <point x="-403" y="1472" type="line" smooth="yes"/>
      <point x="-403" y="1367.3"/>
      <point x="-467" y="1311"/>
      <point x="-581" y="1311" type="curve" smooth="yes" name="n03.1"/>
      <point x="-695" y="1311"/>
      <point x="-758" y="1367.3"/>
      <point x="-758" y="1472" type="curve" smooth="yes"/>
      <point x="-758" y="1484" type="line" smooth="yes"/>
      <point x="-758" y="1587.71"/>
      <point x="-695" y="1645"/>
      <point x="-581" y="1645" type="curve" smooth="yes" name="n03"/>
      <point x="-467" y="1645"/>
      <point x="-403" y="1587.71"/>
      <point x="-403" y="1484" type="curve" smooth="yes"/>
    </contour>
  </outline>
</glyph>
<glyph name="Anuswara.mlm" format="2">
  <advance width="905"/>
  <unicode hex="0D02"/>
  <outline>
    <contour>
      <point x="728" y="431" type="curve" smooth="yes"/>
      <point x="728" y="314" type="line" smooth="yes"/>
      <point x="728" y="120.145"/>
      <point x="632.693" y="16"/>
      <point x="453" y="16" type="curve" smooth="yes"/>
      <point x="273.302" y="16"/>
      <point x="177" y="120.145"/>
      <point x="177" y="314" type="curve" smooth="yes"/>
      <point x="177" y="431" type="line" smooth="yes"/>
      <point x="177" y="622.813"/>
      <point x="273.302" y="728"/>
      <point x="453" y="728" type="curve" smooth="yes"/>
      <point x="632.693" y="728"/>
      <point x="728" y="622.813"/>
    </contour>
    <contour>
      <point x="140" y="431" type="curve" smooth="yes"/>
      <point x="140" y="314" type="line" smooth="yes"/>
      <point x="140" y="99.1765"/>
      <point x="248.308" y="-18"/>
      <point x="453" y="-18" type="curve" smooth="yes"/>
      <point x="657.688" y="-18"/>
      <point x="765" y="99.1765"/>
      <point x="765" y="314" type="curve" smooth="yes"/>
      <point x="765" y="431" type="line" smooth="yes"/>
      <point x="765" y="644.814"/>
      <point x="657.688" y="762"/>
      <point x="453" y="762" type="curve" smooth="yes"/>
      <point x="248.308" y="762"/>
      <point x="140" y="644.814"/>
    </contour>
  </outline>
</glyph>
<glyph name="Visarga.mlm" format="2">
  <advance width="727"/>
  <unicode hex="0D03"/>
  <outline>
    <contour>
      <point x="578" y="266" type="curve" smooth="yes"/>
      <point x="578" y="231" type="line" smooth="yes"/>
      <point x="578" y="92.1244"/>
      <point x="504" y="16"/>
      <point x="364" y="16" type="curve" smooth="yes"/>
      <point x="224" y="16"/>
      <point x="149" y="92.1244"/>
      <point x="149" y="231" type="curve" smooth="yes"/>
      <point x="149" y="266" type="line" smooth="yes"/>
      <point x="149" y="405.923"/>
      <point x="224" y="480"/>
      <point x="364" y="480" type="curve" smooth="yes"/>
      <point x="504" y="480"/>
      <point x="578" y="405.923"/>
    </contour>
    <contour>
      <point x="112" y="266" type="curve" smooth="yes"/>
      <point x="112" y="231" type="line" smooth="yes"/>
      <point x="112" y="72.1729"/>
      <point x="198" y="-18"/>
      <point x="364" y="-18" type="curve" smooth="yes"/>
      <point x="530" y="-18"/>
      <point x="615" y="72.1728"/>
      <point x="615" y="231" type="curve" smooth="yes"/>
      <point x="615" y="266" type="line" smooth="yes"/>
      <point x="615" y="424.843"/>
      <point x="530" y="514"/>
      <point x="364" y="514" type="curve" smooth="yes"/>
      <point x="198" y="514"/>
      <point x="112" y="424.843"/>
    </contour>
    <contour>
      <point x="578" y="929" type="curve" smooth="yes"/>
      <point x="578" y="897" type="line" smooth="yes"/>
      <point x="578" y="760.126"/>
      <point x="504" y="685"/>
      <point x="364" y="685" type="curve" smooth="yes"/>
      <point x="224" y="685"/>
      <point x="149" y="760.126"/>
      <point x="149" y="897" type="curve" smooth="yes"/>
      <point x="149" y="929" type="line" smooth="yes"/>
      <point x="149" y="1067.93"/>
      <point x="224" y="1141"/>
      <point x="364" y="1141" type="curve" smooth="yes"/>
      <point x="504" y="1141"/>
      <point x="578" y="1067.93"/>
    </contour>
    <contour>
      <point x="112" y="929" type="curve" smooth="yes"/>
      <point x="112" y="897" type="line" smooth="yes"/>
      <point x="112" y="738.125"/>
      <point x="198" y="651"/>
      <point x="364" y="651" type="curve" smooth="yes"/>
      <point x="530" y="651"/>
      <point x="615" y="738.125"/>
      <point x="615" y="897" type="curve" smooth="yes"/>
      <point x="615" y="929" type="line" smooth="yes"/>
      <point x="615" y="1087.88"/>
      <point x="530" y="1175"/>
      <point x="364" y="1175" type="curve" smooth="yes"/>
      <point x="198" y="1175"/>
      <point x="112" y="1087.88"/>
    </contour>
  </outline>
</glyph>
<glyph name="vowelA.mlm" format="2">
  <advance width="2732"/>
  <unicode hex="0D05"/>
  <outline>
    <contour>
      <point x="1606" y="5" type="line"/>
      <point x="1643" y="5" type="line"/>
      <point x="1643" y="702" type="line"/>
      <point x="1606" y="702" type="line"/>
    </contour>
    <contour>
      <point x="1623" y="864" type="line"/>
      <point x="1584" y="1074"/>
      <point x="1425" y="1173"/>
      <point x="1174" y="1173" type="curve" smooth="yes"/>
      <point x="1084" y="1173"/>
      <point x="1003" y="1162"/>
      <point x="933" y="1138" type="curve"/>
      <point x="967" y="1117" type="line"/>
      <point x="1029" y="1133"/>
      <point x="1097" y="1139"/>
      <point x="1174" y="1139" type="curve" smooth="yes"/>
      <point x="1461" y="1139"/>
      <point x="1606" y="1001"/>
      <point x="1606" y="750" type="curve" smooth="yes"/>
      <point x="1606" y="620" type="line"/>
      <point x="1625" y="620" type="line"/>
    </contour>
    <contour>
      <point x="193" y="628" type="line" smooth="yes"/>
      <point x="193" y="974.786"/>
      <point x="364" y="1139"/>
      <point x="707" y="1139" type="curve" smooth="yes"/>
      <point x="770" y="1139"/>
      <point x="842" y="1134"/>
      <point x="909" y="1118" type="curve"/>
      <point x="914" y="1116"/>
      <point x="930" y="1112"/>
      <point x="933" y="1111" type="curve"/>
      <point x="1085.43" y="1065.41"/>
      <point x="1202" y="973.205"/>
      <point x="1202" y="804" type="curve" smooth="yes"/>
      <point x="1202" y="797" type="line" smooth="yes"/>
      <point x="1202" y="649.339"/>
      <point x="1121.68" y="579.856"/>
      <point x="959" y="575" type="curve" smooth="yes"/>
      <point x="892" y="573" type="line"/>
      <point x="892" y="543" type="line"/>
      <point x="963" y="541" type="line" smooth="yes"/>
      <point x="1134.69" y="536.164"/>
      <point x="1215" y="457.645"/>
      <point x="1215" y="295" type="curve" smooth="yes"/>
      <point x="1215" y="287" type="line" smooth="yes"/>
      <point x="1215" y="114.453"/>
      <point x="1128.33" y="16"/>
      <point x="949" y="16" type="curve" smooth="yes"/>
      <point x="750.663" y="16"/>
      <point x="650" y="131.246"/>
      <point x="650" y="371" type="curve" smooth="yes"/>
      <point x="650" y="611" type="line" smooth="yes"/>
      <point x="650" y="874.255"/>
      <point x="756.648" y="1042.62"/>
      <point x="953" y="1112" type="curve"/>
      <point x="914" y="1130" type="line"/>
      <point x="713.666" y="1053.53"/>
      <point x="613" y="877.128"/>
      <point x="613" y="611" type="curve" smooth="yes"/>
      <point x="613" y="371" type="line" smooth="yes"/>
      <point x="613" y="110.298"/>
      <point x="727.659" y="-18"/>
      <point x="949" y="-18" type="curve" smooth="yes"/>
      <point x="1152.33" y="-18"/>
      <point x="1252" y="91.4352"/>
      <point x="1252" y="287" type="curve" smooth="yes"/>
      <point x="1252" y="294" type="line" smooth="yes"/>
      <point x="1252" y="450.369"/>
      <point x="1182.67" y="539.723"/>
      <point x="1043" y="558" type="curve"/>
      <point x="1043" y="560" type="line"/>
      <point x="1173.67" y="579.326"/>
      <point x="1239" y="659.682"/>
      <point x="1239" y="797" type="curve" smooth="yes"/>
      <point x="1239" y="804" type="line" smooth="yes"/>
      <point x="1239" y="970.05"/>
      <point x="1129.42" y="1077.38"/>
      <point x="981" y="1128" type="curve"/>
      <point x="960" y="1138" type="line"/>
      <point x="877" y="1163"/>
      <point x="787" y="1173"/>
      <point x="707" y="1173" type="curve" smooth="yes"/>
      <point x="342" y="1173"/>
      <point x="156" y="996.766"/>
      <point x="156" y="628" type="curve" smooth="yes"/>
      <point x="156" y="445" type="line" smooth="yes"/>
      <point x="156" y="244.724"/>
      <point x="205" y="106.391"/>
      <point x="290" y="0" type="curve"/>
      <point x="336" y="0" type="line"/>
      <point x="246" y="106.385"/>
      <point x="193" y="245.734"/>
      <point x="193" y="446" type="curve" smooth="yes"/>
    </contour>
    <contour>
      <point x="2072" y="1173" type="curve" smooth="yes"/>
      <point x="1824" y="1173"/>
      <point x="1664" y="1074"/>
      <point x="1625" y="864" type="curve"/>
      <point x="1615" y="864" type="line"/>
      <point x="1615" y="611" type="line"/>
      <point x="1643" y="611" type="line"/>
      <point x="1643" y="751" type="line" smooth="yes"/>
      <point x="1643" y="1002"/>
      <point x="1786" y="1139"/>
      <point x="2072" y="1139" type="curve" smooth="yes"/>
      <point x="2387" y="1139"/>
      <point x="2539" y="959.919"/>
      <point x="2539" y="642" type="curve"/>
      <point x="2539" y="641" type="line"/>
      <point x="2532" y="641" type="line"/>
      <point x="2539" y="620" type="line"/>
      <point x="2539" y="342" type="line" smooth="yes"/>
      <point x="2539" y="117.59"/>
      <point x="2448" y="13"/>
      <point x="2283" y="13" type="curve" smooth="yes"/>
      <point x="2117.65" y="13"/>
      <point x="2028" y="110.661"/>
      <point x="2028" y="307" type="curve" smooth="yes"/>
      <point x="2028" y="446" type="line" smooth="yes"/>
      <point x="2028" y="632.245"/>
      <point x="2109.67" y="733"/>
      <point x="2278" y="733" type="curve" smooth="yes"/>
      <point x="2394" y="733"/>
      <point x="2479" y="689.264"/>
      <point x="2539" y="607" type="curve"/>
      <point x="2549" y="627" type="line"/>
      <point x="2499" y="708.926"/>
      <point x="2407" y="767"/>
      <point x="2276" y="767" type="curve" smooth="yes"/>
      <point x="2086.66" y="767"/>
      <point x="1991" y="654.232"/>
      <point x="1991" y="448" type="curve" smooth="yes"/>
      <point x="1991" y="307" type="line" smooth="yes"/>
      <point x="1991" y="90.7028"/>
      <point x="2092.65" y="-21"/>
      <point x="2283" y="-21" type="curve" smooth="yes"/>
      <point x="2473" y="-21"/>
      <point x="2576" y="95.6061"/>
      <point x="2576" y="342" type="curve" smooth="yes"/>
      <point x="2576" y="639" type="line" smooth="yes"/>
      <point x="2576" y="985.242"/>
      <point x="2409" y="1173"/>
    </contour>
  </outline>
</glyph>
<glyph name="vowelU.mlm" format="2">
  <advance width="1343"/>
  <unicode hex="0D09"/>
  <outline>
    <contour>
      <point x="667" y="1175" type="curve" smooth="yes"/>
      <point x="329" y="1175"/>
      <point x="154" y="1014.32"/>
      <point x="154" y="696" type="curve" smooth="yes"/>
      <point x="154" y="537" type="line" smooth="yes"/>
      <point x="154" y="326.683"/>
      <point x="247" y="220"/>
      <point x="437" y="220" type="curve" smooth="yes"/>
      <point x="614" y="220"/>
      <point x="705" y="321.773"/>
      <point x="705" y="507" type="curve" smooth="yes"/>
      <point x="705" y="587" type="line" smooth="yes"/>
      <point x="705" y="763.204"/>
      <point x="614" y="862"/>
      <point x="446" y="862" type="curve" smooth="yes"/>
      <point x="306" y="862"/>
      <point x="206" y="785.944"/>
      <point x="175" y="677" type="curve"/>
      <point x="189" y="663" type="line"/>
      <point x="228" y="767.156"/>
      <point x="319" y="828"/>
      <point x="444" y="828" type="curve" smooth="yes"/>
      <point x="589" y="828"/>
      <point x="668" y="742.235"/>
      <point x="668" y="585" type="curve" smooth="yes"/>
      <point x="668" y="507" type="line" smooth="yes"/>
      <point x="668" y="343.774"/>
      <point x="588" y="254"/>
      <point x="437" y="254" type="curve" smooth="yes"/>
      <point x="273" y="254"/>
      <point x="190" y="346.637"/>
      <point x="190" y="537" type="curve" smooth="yes"/>
      <point x="190" y="682" type="line"/>
      <point x="198" y="714.614" type="line"/>
      <point x="190" y="714.614" type="line"/>
      <point x="190.138" y="715.275" type="line"/>
      <point x="190.482" y="972.073"/>
      <point x="341.337" y="1141"/>
      <point x="667" y="1141" type="curve" smooth="yes"/>
      <point x="986" y="1141"/>
      <point x="1145" y="977.632"/>
      <point x="1145" y="656" type="curve" smooth="yes"/>
      <point x="1145" y="493" type="line" smooth="yes"/>
      <point x="1145" y="191.326"/>
      <point x="1003" y="41"/>
      <point x="739" y="41" type="curve" smooth="yes"/>
      <point x="367" y="41" type="line" smooth="yes"/>
      <point x="224" y="41"/>
      <point x="150" y="-26.6907"/>
      <point x="150" y="-155" type="curve" smooth="yes"/>
      <point x="150" y="-285.316"/>
      <point x="224" y="-353"/>
      <point x="367" y="-353" type="curve" smooth="yes"/>
      <point x="1168" y="-353" type="line"/>
      <point x="1177" y="-321" type="line"/>
      <point x="367" y="-321" type="line" smooth="yes"/>
      <point x="248" y="-321"/>
      <point x="187" y="-265.329"/>
      <point x="187" y="-155" type="curve" smooth="yes"/>
      <point x="187" y="-47.6914"/>
      <point x="248" y="9"/>
      <point x="367" y="9" type="curve" smooth="yes"/>
      <point x="740" y="9" type="line" smooth="yes"/>
      <point x="1028" y="9"/>
      <point x="1182" y="171.354"/>
      <point x="1182" y="493" type="curve" smooth="yes"/>
      <point x="1182" y="656" type="line" smooth="yes"/>
      <point x="1182" y="999.621"/>
      <point x="1010" y="1175"/>
    </contour>
  </outline>
</glyph>
<glyph name="vowelRu.mlm" format="2">
  <advance width="1578"/>
  <unicode hex="0D0B"/>
  <outline>
    <contour>
      <point x="412.282" y="1173" type="curve" smooth="yes"/>
      <point x="227.282" y="1173"/>
      <point x="136.282" y="1060.86"/>
      <point x="136.282" y="858" type="curve" smooth="yes"/>
      <point x="136.282" y="716" type="line" smooth="yes"/>
      <point x="136.282" y="468.354"/>
      <point x="267.282" y="309.473"/>
      <point x="533.282" y="267" type="curve"/>
      <point x="549.282" y="265"/>
      <point x="565.282" y="262"/>
      <point x="583.282" y="261" type="curve"/>
      <point x="725.282" y="281" type="line"/>
      <point x="358.714" y="281"/>
      <point x="171.837" y="436.114"/>
      <point x="172.364" y="706.205" type="curve"/>
      <point x="172.282" y="706" type="line"/>
      <point x="183.282" y="706" type="line"/>
      <point x="172.282" y="734" type="line"/>
      <point x="172.282" y="858" type="line" smooth="yes"/>
      <point x="172.282" y="1038.86"/>
      <point x="252.282" y="1139"/>
      <point x="412.282" y="1139" type="curve" smooth="yes"/>
      <point x="556.282" y="1139"/>
      <point x="639.282" y="1054.99"/>
      <point x="639.282" y="888" type="curve" smooth="yes"/>
      <point x="639.282" y="812" type="line" smooth="yes"/>
      <point x="639.282" y="663.049"/>
      <point x="561.282" y="583"/>
      <point x="417.282" y="583" type="curve" smooth="yes"/>
      <point x="298.282" y="583"/>
      <point x="213.282" y="646.526"/>
      <point x="172.282" y="758" type="curve"/>
      <point x="158.282" y="743" type="line"/>
      <point x="191.282" y="629.92"/>
      <point x="283.282" y="549"/>
      <point x="418.282" y="549" type="curve" smooth="yes"/>
      <point x="581.282" y="549"/>
      <point x="676.282" y="644.093"/>
      <point x="676.282" y="810" type="curve" smooth="yes"/>
      <point x="676.282" y="888" type="line" smooth="yes"/>
      <point x="676.282" y="1074.94"/>
      <point x="582.282" y="1173"/>
    </contour>
    <contour>
      <point x="882" y="-220" type="line" smooth="yes"/>
      <point x="1183" y="-220"/>
      <point x="1335" y="-140"/>
      <point x="1335" y="30" type="curve" smooth="yes"/>
      <point x="1335" y="170"/>
      <point x="1233" y="243"/>
      <point x="1046" y="266" type="curve"/>
      <point x="1046" y="271" type="line"/>
      <point x="883" y="281" type="line"/>
      <point x="695" y="281" type="line"/>
      <point x="534" y="270" type="line"/>
      <point x="534" y="266" type="line"/>
      <point x="346" y="242"/>
      <point x="243" y="170"/>
      <point x="243" y="30" type="curve" smooth="yes"/>
      <point x="243" y="-140"/>
      <point x="395" y="-220"/>
      <point x="695" y="-220" type="curve" smooth="yes"/>
    </contour>
    <contour>
      <point x="883" y="248" type="line" smooth="yes"/>
      <point x="1156" y="248"/>
      <point x="1297" y="182"/>
      <point x="1297" y="30" type="curve" smooth="yes"/>
      <point x="1297" y="-119"/>
      <point x="1156" y="-187"/>
      <point x="883" y="-187" type="curve" smooth="yes"/>
      <point x="696" y="-187" type="line" smooth="yes"/>
      <point x="422" y="-187"/>
      <point x="281" y="-119"/>
      <point x="281" y="30" type="curve" smooth="yes"/>
      <point x="281" y="182"/>
      <point x="423" y="248"/>
      <point x="696" y="248" type="curve" smooth="yes"/>
    </contour>
    <contour>
      <point x="1406.92" y="706.205" type="line"/>
      <point x="1407.45" y="436.114"/>
      <point x="1220.57" y="281"/>
      <point x="854" y="281" type="curve"/>
      <point x="996" y="261" type="line"/>
      <point x="1014" y="262"/>
      <point x="1030" y="265"/>
      <point x="1046" y="267" type="curve"/>
      <point x="1312" y="309.473"/>
      <point x="1443" y="468.354"/>
      <point x="1443" y="716" type="curve" smooth="yes"/>
      <point x="1443" y="858" type="line" smooth="yes"/>
      <point x="1443" y="1060.86"/>
      <point x="1352" y="1173"/>
      <point x="1167" y="1173" type="curve" smooth="yes"/>
      <point x="997" y="1173"/>
      <point x="903" y="1074.94"/>
      <point x="903" y="888" type="curve" smooth="yes"/>
      <point x="903" y="810" type="line" smooth="yes"/>
      <point x="903" y="644.093"/>
      <point x="998" y="549"/>
      <point x="1161" y="549" type="curve" smooth="yes"/>
      <point x="1296" y="549"/>
      <point x="1388" y="629.92"/>
      <point x="1421" y="743" type="curve"/>
      <point x="1407" y="758" type="line"/>
      <point x="1366" y="646.526"/>
      <point x="1281" y="583"/>
      <point x="1162" y="583" type="curve" smooth="yes"/>
      <point x="1018" y="583"/>
      <point x="940" y="663.049"/>
      <point x="940" y="812" type="curve" smooth="yes"/>
      <point x="940" y="888" type="line" smooth="yes"/>
      <point x="940" y="1054.99"/>
      <point x="1023" y="1139"/>
      <point x="1167" y="1139" type="curve" smooth="yes"/>
      <point x="1327" y="1139"/>
      <point x="1407" y="1038.86"/>
      <point x="1407" y="858" type="curve" smooth="yes"/>
      <point x="1407" y="734" type="line"/>
      <point x="1396" y="706" type="line"/>
      <point x="1407" y="706" type="line"/>
    </contour>
  </outline>
</glyph>
<glyph name="vowelLru.mlm" format="2">
  <advance width="2213"/>
  <unicode hex="0D0C"/>
  <outline>
    <contour>
      <point x="655" y="1173" type="curve" smooth="yes"/>
      <point x="320" y="1173"/>
      <point x="156" y="983.345"/>
      <point x="156" y="603" type="curve" smooth="yes"/>
      <point x="156" y="339" type="line" smooth="yes"/>
      <point x="156" y="94.6056"/>
      <point x="258" y="-21"/>
      <point x="455" y="-21" type="curve" smooth="yes"/>
      <point x="641" y="-21"/>
      <point x="739" y="91.7344"/>
      <point x="739" y="304" type="curve" smooth="yes"/>
      <point x="739" y="439" type="line" smooth="yes"/>
      <point x="739" y="637.261"/>
      <point x="641" y="743"/>
      <point x="465" y="743" type="curve" smooth="yes"/>
      <point x="320" y="743"/>
      <point x="213" y="662"/>
      <point x="179" y="543" type="curve"/>
      <point x="193" y="529" type="line"/>
      <point x="239" y="644"/>
      <point x="331" y="709"/>
      <point x="463" y="709" type="curve" smooth="yes"/>
      <point x="618" y="709"/>
      <point x="702" y="617.315"/>
      <point x="702" y="437" type="curve" smooth="yes"/>
      <point x="702" y="304" type="line" smooth="yes"/>
      <point x="702" y="108.643"/>
      <point x="617" y="13"/>
      <point x="455" y="13" type="curve" smooth="yes"/>
      <point x="282" y="13"/>
      <point x="193" y="115.573"/>
      <point x="193" y="339" type="curve" smooth="yes"/>
      <point x="193" y="555" type="line"/>
      <point x="199" y="581" type="line"/>
      <point x="193" y="581" type="line"/>
      <point x="193" y="603" type="line" smooth="yes"/>
      <point x="193" y="962.411"/>
      <point x="345" y="1139"/>
      <point x="655" y="1139" type="curve" smooth="yes"/>
      <point x="941" y="1139"/>
      <point x="1087" y="1002"/>
      <point x="1087" y="751" type="curve" smooth="yes"/>
      <point x="1087" y="601" type="line"/>
      <point x="1102" y="601" type="line"/>
      <point x="1104" y="864" type="line"/>
      <point x="1064" y="1074"/>
      <point x="903" y="1173"/>
    </contour>
    <contour>
      <point x="1087" y="5" type="line"/>
      <point x="1124" y="5" type="line"/>
      <point x="1124" y="700" type="line"/>
      <point x="1087" y="700" type="line"/>
    </contour>
    <contour>
      <point x="1553" y="1173" type="curve" smooth="yes"/>
      <point x="1305" y="1173"/>
      <point x="1145" y="1074"/>
      <point x="1106" y="864" type="curve"/>
      <point x="1096" y="864" type="line"/>
      <point x="1096" y="611" type="line"/>
      <point x="1124" y="611" type="line"/>
      <point x="1124" y="751" type="line" smooth="yes"/>
      <point x="1124" y="1002"/>
      <point x="1267" y="1139"/>
      <point x="1553" y="1139" type="curve" smooth="yes"/>
      <point x="1868" y="1139"/>
      <point x="2020" y="959.919"/>
      <point x="2020" y="642" type="curve"/>
      <point x="2020" y="641" type="line"/>
      <point x="2013" y="641" type="line"/>
      <point x="2020" y="620" type="line"/>
      <point x="2020" y="342" type="line" smooth="yes"/>
      <point x="2020" y="117.59"/>
      <point x="1929" y="13"/>
      <point x="1764" y="13" type="curve" smooth="yes"/>
      <point x="1598.65" y="13"/>
      <point x="1509" y="110.661"/>
      <point x="1509" y="307" type="curve" smooth="yes"/>
      <point x="1509" y="446" type="line" smooth="yes"/>
      <point x="1509" y="632.245"/>
      <point x="1590.67" y="733"/>
      <point x="1759" y="733" type="curve" smooth="yes"/>
      <point x="1875" y="733"/>
      <point x="1960" y="689.264"/>
      <point x="2020" y="607" type="curve"/>
      <point x="2030" y="627" type="line"/>
      <point x="1980" y="708.926"/>
      <point x="1888" y="767"/>
      <point x="1757" y="767" type="curve" smooth="yes"/>
      <point x="1567.66" y="767"/>
      <point x="1472" y="654.232"/>
      <point x="1472" y="448" type="curve" smooth="yes"/>
      <point x="1472" y="307" type="line" smooth="yes"/>
      <point x="1472" y="90.7028"/>
      <point x="1573.65" y="-21"/>
      <point x="1764" y="-21" type="curve" smooth="yes"/>
      <point x="1954" y="-21"/>
      <point x="2057" y="95.6061"/>
      <point x="2057" y="342" type="curve" smooth="yes"/>
      <point x="2057" y="639" type="line" smooth="yes"/>
      <point x="2057" y="985.242"/>
      <point x="1890" y="1173"/>
    </contour>
  </outline>
</glyph>
<glyph name="vowelshortO.mlm" format="2">
  <advance width="1434"/>
  <unicode hex="0D12"/>
  <outline>
    <contour>
      <point x="1003" y="-15" type="curve" smooth="yes"/>
      <point x="1193" y="-15"/>
      <point x="1287" y="80.6608"/>
      <point x="1287" y="273" type="curve" smooth="yes"/>
      <point x="1287" y="298" type="line" smooth="yes"/>
      <point x="1287" y="450.976"/>
      <point x="1217" y="537.663"/>
      <point x="1072" y="555" type="curve"/>
      <point x="1072" y="557" type="line"/>
      <point x="1199" y="576.391"/>
      <point x="1262" y="659.058"/>
      <point x="1262" y="805" type="curve" smooth="yes"/>
      <point x="1262" y="815" type="line" smooth="yes"/>
      <point x="1262" y="1051.28"/>
      <point x="1091.99" y="1175"/>
      <point x="759" y="1175" type="curve" smooth="yes"/>
      <point x="352.025" y="1175"/>
      <point x="156" y="977.691"/>
      <point x="156" y="582" type="curve" smooth="yes"/>
      <point x="156" y="339" type="line" smooth="yes"/>
      <point x="156" y="94.6056"/>
      <point x="258" y="-21"/>
      <point x="454" y="-21" type="curve" smooth="yes"/>
      <point x="640" y="-21"/>
      <point x="738" y="91.7344"/>
      <point x="738" y="304" type="curve" smooth="yes"/>
      <point x="738" y="439" type="line" smooth="yes"/>
      <point x="738" y="637.261"/>
      <point x="640" y="743"/>
      <point x="464" y="743" type="curve" smooth="yes"/>
      <point x="320" y="743"/>
      <point x="212" y="662"/>
      <point x="179" y="544" type="curve"/>
      <point x="193" y="530" type="line"/>
      <point x="238" y="644"/>
      <point x="330" y="709"/>
      <point x="462" y="709" type="curve" smooth="yes"/>
      <point x="617" y="709"/>
      <point x="701" y="617.315"/>
      <point x="701" y="437" type="curve" smooth="yes"/>
      <point x="701" y="304" type="line" smooth="yes"/>
      <point x="701" y="108.643"/>
      <point x="616" y="13"/>
      <point x="454" y="13" type="curve" smooth="yes"/>
      <point x="282" y="13"/>
      <point x="193" y="115.573"/>
      <point x="193" y="339" type="curve" smooth="yes"/>
      <point x="193" y="556" type="line"/>
      <point x="203" y="582" type="line"/>
      <point x="193" y="582" type="line"/>
      <point x="193" y="582" type="line"/>
      <point x="193" y="955.744"/>
      <point x="377.025" y="1141"/>
      <point x="759" y="1141" type="curve" smooth="yes"/>
      <point x="1069" y="1141"/>
      <point x="1225" y="1028.27"/>
      <point x="1225" y="815" type="curve" smooth="yes"/>
      <point x="1225" y="805" type="line" smooth="yes"/>
      <point x="1225" y="647.623"/>
      <point x="1146.04" y="574.013"/>
      <point x="985" y="572" type="curve" smooth="yes"/>
      <point x="905" y="571" type="line"/>
      <point x="905" y="539" type="line"/>
      <point x="988" y="538" type="line" smooth="yes"/>
      <point x="1167" y="535.843"/>
      <point x="1250" y="457.312"/>
      <point x="1250" y="299" type="curve" smooth="yes"/>
      <point x="1250" y="274" type="line" smooth="yes"/>
      <point x="1250" y="104.68"/>
      <point x="1168" y="19"/>
      <point x="1000" y="19" type="curve" smooth="yes"/>
      <point x="960" y="19"/>
      <point x="909" y="24"/>
      <point x="868" y="32" type="curve"/>
      <point x="876" y="-4" type="line"/>
      <point x="916" y="-12"/>
      <point x="963" y="-15"/>
    </contour>
  </outline>
</glyph>
<glyph name="Ka.mlm" format="2">
  <advance width="1900"/>
  <unicode hex="0D15"/>
  <outline>
    <contour>
      <point x="959" y="15" type="curve" smooth="yes"/>
      <point x="751.667" y="15"/>
      <point x="648" y="140.306"/>
      <point x="648" y="394" type="curve" smooth="yes"/>
      <point x="648" y="766" type="line" smooth="yes"/>
      <point x="648" y="1018.7"/>
      <point x="750.67" y="1143"/>
      <point x="959" y="1143" type="curve" smooth="yes"/>
      <point x="1167.33" y="1143"/>
      <point x="1270" y="1018.7"/>
      <point x="1270" y="766" type="curve" smooth="yes"/>
      <point x="1270" y="394" type="line" smooth="yes"/>
      <point x="1270" y="140.306"/>
      <point x="1166.33" y="15"/>
    </contour>
    <contour>
      <point x="959" y="1177" type="curve" smooth="yes"/>
      <point x="726.668" y="1177"/>
      <point x="611" y="1040.68"/>
      <point x="611" y="766" type="curve" smooth="yes"/>
      <point x="611" y="394" type="line" smooth="yes"/>
      <point x="611" y="306.193"/>
      <point x="623" y="234.915"/>
      <point x="646" y="175" type="curve"/>
      <point x="657" y="151" type="line" smooth="yes"/>
      <point x="709.544" y="36.3592"/>
      <point x="812.485" y="-19"/>
      <point x="959" y="-19" type="curve" smooth="yes"/>
      <point x="1191.33" y="-19"/>
      <point x="1307" y="118.325"/>
      <point x="1307" y="394" type="curve" smooth="yes"/>
      <point x="1307" y="766" type="line" smooth="yes"/>
      <point x="1307" y="1040.68"/>
      <point x="1191.33" y="1177"/>
    </contour>
    <contour>
      <point x="1721" y="385" type="curve" smooth="yes"/>
      <point x="1721" y="326" type="line" smooth="yes"/>
      <point x="1721" y="182.759"/>
      <point x="1682" y="79.4367"/>
      <point x="1612" y="0" type="curve"/>
      <point x="1659" y="0" type="line"/>
      <point x="1725" y="78.4127"/>
      <point x="1758" y="181.746"/>
      <point x="1758" y="325" type="curve" smooth="yes"/>
      <point x="1758" y="385" type="line" smooth="yes"/>
      <point x="1758" y="611.811"/>
      <point x="1654" y="718"/>
      <point x="1454" y="718" type="curve" smooth="yes"/>
      <point x="1295" y="718" type="line"/>
      <point x="1279" y="718" type="line"/>
      <point x="637" y="718" type="line"/>
      <point x="622" y="718" type="line"/>
      <point x="460" y="718" type="line" smooth="yes"/>
      <point x="246" y="718"/>
      <point x="140" y="609.828"/>
      <point x="140" y="377" type="curve" smooth="yes"/>
      <point x="140" y="295" type="line" smooth="yes"/>
      <point x="140" y="91.5197"/>
      <point x="232" y="-19"/>
      <point x="412" y="-19" type="curve" smooth="yes"/>
      <point x="542.533" y="-19"/>
      <point x="620.852" y="42.0778"/>
      <point x="657" y="151" type="curve"/>
      <point x="668" y="152" type="line"/>
      <point x="645" y="203" type="line"/>
      <point x="620.896" y="94.2649"/>
      <point x="549.589" y="15"/>
      <point x="413" y="15" type="curve" smooth="yes"/>
      <point x="255" y="15"/>
      <point x="177" y="111.444"/>
      <point x="177" y="295" type="curve" smooth="yes"/>
      <point x="177" y="377" type="line" smooth="yes"/>
      <point x="177" y="589.89"/>
      <point x="271" y="686"/>
      <point x="461" y="686" type="curve" smooth="yes"/>
      <point x="621" y="686" type="line"/>
      <point x="633" y="686" type="line"/>
      <point x="1283" y="686" type="line"/>
      <point x="1297" y="686" type="line"/>
      <point x="1453" y="686" type="line" smooth="yes"/>
      <point x="1631" y="686"/>
      <point x="1721" y="592.907"/>
    </contour>
  </outline>
</glyph>
<glyph name="Kha.mlm" format="2">
  <advance width="1881"/>
  <unicode hex="0D16"/>
  <outline>
    <contour>
      <point x="1650" y="1149" type="line"/>
      <point x="1650" y="0" type="line"/>
      <point x="1687" y="0" type="line"/>
      <point x="1687" y="1149" type="line"/>
    </contour>
    <contour>
      <point x="1080" y="32" type="line"/>
      <point x="1031" y="0" type="line"/>
      <point x="1670" y="0" type="line"/>
      <point x="1670" y="32" type="line"/>
    </contour>
    <contour>
      <point x="681" y="1175" type="curve" smooth="yes"/>
      <point x="328.343" y="1175"/>
      <point x="156" y="983.309"/>
      <point x="156" y="602" type="curve" smooth="yes"/>
      <point x="156" y="340" type="line" smooth="yes"/>
      <point x="156" y="94.9637"/>
      <point x="258.658" y="-21"/>
      <point x="456" y="-21" type="curve" smooth="yes"/>
      <point x="643.345" y="-21"/>
      <point x="742" y="92.0402"/>
      <point x="742" y="305" type="curve" smooth="yes"/>
      <point x="742" y="440" type="line" smooth="yes"/>
      <point x="742" y="639.609"/>
      <point x="643.357" y="746"/>
      <point x="466" y="746" type="curve" smooth="yes"/>
      <point x="320.507" y="746"/>
      <point x="212.882" y="664"/>
      <point x="179" y="544" type="curve"/>
      <point x="193" y="530" type="line"/>
      <point x="238.831" y="646"/>
      <point x="331.489" y="712"/>
      <point x="464" y="712" type="curve" smooth="yes"/>
      <point x="620.351" y="712"/>
      <point x="705" y="619.652"/>
      <point x="705" y="438" type="curve" smooth="yes"/>
      <point x="705" y="305" type="line" smooth="yes"/>
      <point x="705" y="108.986"/>
      <point x="619.344" y="13"/>
      <point x="456" y="13" type="curve" smooth="yes"/>
      <point x="282.659" y="13"/>
      <point x="193" y="115.944"/>
      <point x="193" y="340" type="curve" smooth="yes"/>
      <point x="193" y="556" type="line"/>
      <point x="203" y="582" type="line"/>
      <point x="193" y="582" type="line"/>
      <point x="193" y="602" type="line" smooth="yes"/>
      <point x="193" y="962.372"/>
      <point x="353.343" y="1141"/>
      <point x="681" y="1141" type="curve" smooth="yes"/>
      <point x="1011" y="1141"/>
      <point x="1173" y="969.706"/>
      <point x="1173" y="621" type="curve" smooth="yes"/>
      <point x="1173" y="455" type="line" smooth="yes"/>
      <point x="1173" y="251.695"/>
      <point x="1122" y="115.437"/>
      <point x="1031" y="6" type="curve"/>
      <point x="1031" y="0" type="line"/>
      <point x="1076" y="6" type="line"/>
      <point x="1162" y="116.466"/>
      <point x="1210" y="250.685"/>
      <point x="1210" y="454" type="curve" smooth="yes"/>
      <point x="1210" y="621" type="line" smooth="yes"/>
      <point x="1210" y="990.673"/>
      <point x="1037" y="1175"/>
    </contour>
  </outline>
</glyph>
<glyph name="Ga.mlm" format="2">
  <advance width="1602"/>
  <unicode hex="0D17"/>
  <outline>
    <contour>
      <point x="1095" y="1173" type="curve" smooth="yes"/>
      <point x="882" y="1173"/>
      <point x="773" y="1050.66"/>
      <point x="773" y="807" type="curve" smooth="yes"/>
      <point x="773" y="663.237"/>
      <point x="787" y="489.763"/>
      <point x="787" y="346" type="curve" smooth="yes"/>
      <point x="787" y="123.354"/>
      <point x="691" y="11"/>
      <point x="504" y="11" type="curve" smooth="yes"/>
      <point x="297" y="11"/>
      <point x="195" y="136.306"/>
      <point x="195" y="390" type="curve" smooth="yes"/>
      <point x="195" y="661" type="line" smooth="yes"/>
      <point x="195" y="886.442"/>
      <point x="263" y="1033.68"/>
      <point x="380" y="1146" type="curve"/>
      <point x="333" y="1146" type="line"/>
      <point x="221" y="1034.7"/>
      <point x="158" y="885.409"/>
      <point x="158" y="662" type="curve" smooth="yes"/>
      <point x="158" y="390" type="line" smooth="yes"/>
      <point x="158" y="117.4"/>
      <point x="272" y="-23"/>
      <point x="504" y="-23" type="curve" smooth="yes"/>
      <point x="715" y="-23"/>
      <point x="824" y="103.445"/>
      <point x="824" y="344" type="curve" smooth="yes"/>
      <point x="824" y="487.763"/>
      <point x="810" y="661.237"/>
      <point x="810" y="805" type="curve" smooth="yes"/>
      <point x="810" y="1027.67"/>
      <point x="906" y="1139"/>
      <point x="1095" y="1139" type="curve" smooth="yes"/>
      <point x="1305" y="1139"/>
      <point x="1407" y="1013.72"/>
      <point x="1407" y="757" type="curve" smooth="yes"/>
      <point x="1407" y="482" type="line" smooth="yes"/>
      <point x="1407" y="258.572"/>
      <point x="1344" y="112.331"/>
      <point x="1229" y="0" type="curve"/>
      <point x="1278" y="0" type="line"/>
      <point x="1386" y="111.314"/>
      <point x="1444" y="259.605"/>
      <point x="1444" y="481" type="curve" smooth="yes"/>
      <point x="1444" y="757" type="line" smooth="yes"/>
      <point x="1444" y="1033.65"/>
      <point x="1330" y="1173"/>
    </contour>
  </outline>
</glyph>
<glyph name="Gha.mlm" format="2">
  <advance width="2448"/>
  <unicode hex="0D18"/>
  <outline>
    <contour>
      <point x="673" y="449" type="line"/>
      <point x="628" y="417" type="line"/>
      <point x="1092" y="417" type="line"/>
      <point x="1092" y="449" type="line"/>
    </contour>
    <contour>
      <point x="455" y="1086" type="curve" smooth="yes"/>
      <point x="248" y="1086"/>
      <point x="147" y="973.944"/>
      <point x="147" y="759" type="curve" smooth="yes"/>
      <point x="147" y="689" type="line" smooth="yes"/>
      <point x="147" y="570.383"/>
      <point x="175" y="477.331"/>
      <point x="229" y="417" type="curve"/>
      <point x="275" y="417" type="line"/>
      <point x="217" y="479.371"/>
      <point x="184" y="571.393"/>
      <point x="184" y="690" type="curve" smooth="yes"/>
      <point x="184" y="759" type="line" smooth="yes"/>
      <point x="184" y="951.951"/>
      <point x="275" y="1052"/>
      <point x="455" y="1052" type="curve" smooth="yes"/>
      <point x="635" y="1052"/>
      <point x="725" y="951.951"/>
      <point x="725" y="759" type="curve" smooth="yes"/>
      <point x="725" y="690" type="line" smooth="yes"/>
      <point x="725" y="574.412"/>
      <point x="691" y="483.374"/>
      <point x="628" y="422" type="curve"/>
      <point x="628" y="417" type="line"/>
      <point x="664" y="417" type="line"/>
      <point x="729" y="477.331"/>
      <point x="762" y="570.383"/>
      <point x="762" y="689" type="curve" smooth="yes"/>
      <point x="762" y="759" type="line" smooth="yes"/>
      <point x="762" y="973.944"/>
      <point x="662" y="1086"/>
    </contour>
    <contour>
      <point x="1760" y="449" type="line"/>
      <point x="1113" y="449" type="line"/>
      <point x="1113" y="776" type="line" smooth="yes"/>
      <point x="1113" y="1016.22"/>
      <point x="1223.98" y="1140"/>
      <point x="1438" y="1140" type="curve" smooth="yes"/>
      <point x="1652.01" y="1140"/>
      <point x="1760" y="1016.22"/>
      <point x="1760" y="776" type="curve" smooth="yes"/>
    </contour>
    <contour>
      <point x="1438" y="1174" type="curve" smooth="yes"/>
      <point x="1199.97" y="1174"/>
      <point x="1076" y="1038.2"/>
      <point x="1076" y="776" type="curve" smooth="yes"/>
      <point x="1076" y="0" type="line"/>
      <point x="2254" y="0" type="line"/>
      <point x="2254" y="1149" type="line"/>
      <point x="2217" y="1149" type="line"/>
      <point x="2217" y="32" type="line"/>
      <point x="1113" y="32" type="line"/>
      <point x="1113" y="417" type="line"/>
      <point x="1797" y="417" type="line"/>
      <point x="1797" y="776" type="line" smooth="yes"/>
      <point x="1797" y="1038.2"/>
      <point x="1677" y="1174"/>
    </contour>
  </outline>
</glyph>
<glyph name="Ca.mlm" format="2">
  <advance width="1568"/>
  <unicode hex="0D1A"/>
  <outline>
    <contour>
      <point x="57" y="32" type="line"/>
      <point x="67" y="0" type="line"/>
      <point x="1343" y="0" type="line"/>
      <point x="1352" y="32" type="line"/>
    </contour>
    <contour>
      <point x="585" y="29" type="curve"/>
      <point x="624" y="15" type="line"/>
      <point x="801" y="81.7621"/>
      <point x="896" y="237.54"/>
      <point x="896" y="453" type="curve" smooth="yes"/>
      <point x="896" y="508" type="line" smooth="yes"/>
      <point x="896" y="725.302"/>
      <point x="791" y="837"/>
      <point x="583" y="837" type="curve" smooth="yes"/>
      <point x="378" y="837"/>
      <point x="274" y="729.285"/>
      <point x="274" y="523" type="curve" smooth="yes"/>
      <point x="274" y="485" type="line" smooth="yes"/>
      <point x="274" y="398.846"/>
      <point x="293" y="331.154"/>
      <point x="322" y="285" type="curve"/>
      <point x="362" y="285" type="line"/>
      <point x="332" y="334.224"/>
      <point x="311" y="399.857"/>
      <point x="311" y="486" type="curve" smooth="yes"/>
      <point x="311" y="522" type="line" smooth="yes"/>
      <point x="311" y="707.297"/>
      <point x="401" y="803"/>
      <point x="583" y="803" type="curve" smooth="yes"/>
      <point x="766" y="803"/>
      <point x="859" y="703.31"/>
      <point x="859" y="508" type="curve" smooth="yes"/>
      <point x="859" y="451" type="line" smooth="yes" name="n15"/>
      <point x="859" y="240.506"/>
      <point x="762" y="97.8153"/>
    </contour>
    <contour>
      <point x="1337" y="1149" type="line" name="n31"/>
      <point x="1337" y="0" type="line"/>
      <point x="1374" y="0" type="line" name="n33"/>
      <point x="1374" y="1149" type="line" name="n32"/>
    </contour>
  </outline>
</glyph>
<glyph name="Cha.mlm" format="2">
  <advance width="2455"/>
  <unicode hex="0D1B"/>
  <outline>
    <contour>
      <point x="57" y="32" type="line"/>
      <point x="67" y="0" type="line"/>
      <point x="1343" y="0" type="line"/>
      <point x="1352" y="32" type="line"/>
    </contour>
    <contour>
      <point x="585" y="29" type="curve"/>
      <point x="624" y="15" type="line"/>
      <point x="801" y="81.7621"/>
      <point x="896" y="237.54"/>
      <point x="896" y="453" type="curve" smooth="yes"/>
      <point x="896" y="508" type="line" smooth="yes"/>
      <point x="896" y="725.302"/>
      <point x="791" y="837"/>
      <point x="583" y="837" type="curve" smooth="yes"/>
      <point x="378" y="837"/>
      <point x="274" y="729.285"/>
      <point x="274" y="523" type="curve" smooth="yes"/>
      <point x="274" y="485" type="line" smooth="yes"/>
      <point x="274" y="398.846"/>
      <point x="293" y="331.154"/>
      <point x="322" y="285" type="curve"/>
      <point x="362" y="285" type="line"/>
      <point x="332" y="334.224"/>
      <point x="311" y="399.857"/>
      <point x="311" y="486" type="curve" smooth="yes"/>
      <point x="311" y="522" type="line" smooth="yes"/>
      <point x="311" y="707.297"/>
      <point x="401" y="803"/>
      <point x="583" y="803" type="curve" smooth="yes"/>
      <point x="766" y="803"/>
      <point x="859" y="703.31"/>
      <point x="859" y="508" type="curve" smooth="yes"/>
      <point x="859" y="451" type="line" smooth="yes" name="n15"/>
      <point x="859" y="240.506"/>
      <point x="762" y="97.8153"/>
    </contour>
    <contour>
      <point x="1372" y="32" type="line"/>
      <point x="1189" y="32" type="line"/>
      <point x="1189" y="0" type="line"/>
      <point x="1422" y="0" type="line"/>
    </contour>
    <contour>
      <point x="1243" y="444" type="line" smooth="yes"/>
      <point x="1243" y="250.818"/>
      <point x="1292" y="113.453"/>
      <point x="1377" y="6" type="curve"/>
      <point x="1422" y="0" type="line"/>
      <point x="1422" y="6" type="line"/>
      <point x="1332" y="112.424"/>
      <point x="1280" y="251.828"/>
      <point x="1280" y="445" type="curve" smooth="yes"/>
      <point x="1280" y="627" type="line" smooth="yes"/>
      <point x="1280" y="967.627"/>
      <point x="1440" y="1141"/>
      <point x="1774" y="1141" type="curve" smooth="yes"/>
      <point x="2103" y="1141"/>
      <point x="2262" y="960.556"/>
      <point x="2262" y="641" type="curve"/>
      <point x="2262" y="640" type="line"/>
      <point x="2253" y="640" type="line"/>
      <point x="2262" y="619" type="line"/>
      <point x="2262" y="342" type="line" smooth="yes"/>
      <point x="2262" y="117.59"/>
      <point x="2170" y="13"/>
      <point x="2005" y="13" type="curve" smooth="yes"/>
      <point x="1838.35" y="13"/>
      <point x="1747" y="110.661"/>
      <point x="1747" y="307" type="curve" smooth="yes"/>
      <point x="1747" y="446" type="line" smooth="yes"/>
      <point x="1747" y="632.245"/>
      <point x="1830.33" y="733"/>
      <point x="2000" y="733" type="curve" smooth="yes"/>
      <point x="2117" y="733"/>
      <point x="2202" y="688.238"/>
      <point x="2262" y="606" type="curve"/>
      <point x="2272" y="626" type="line"/>
      <point x="2222" y="707.904"/>
      <point x="2130" y="767"/>
      <point x="1998" y="767" type="curve" smooth="yes"/>
      <point x="1807.34" y="767"/>
      <point x="1710" y="654.232"/>
      <point x="1710" y="448" type="curve" smooth="yes"/>
      <point x="1710" y="307" type="line" smooth="yes"/>
      <point x="1710" y="90.7028"/>
      <point x="1813.35" y="-21"/>
      <point x="2005" y="-21" type="curve" smooth="yes"/>
      <point x="2195" y="-21"/>
      <point x="2299" y="95.6061"/>
      <point x="2299" y="342" type="curve" smooth="yes"/>
      <point x="2299" y="639" type="line" smooth="yes"/>
      <point x="2299" y="986.239"/>
      <point x="2125" y="1175"/>
      <point x="1774" y="1175" type="curve" smooth="yes"/>
      <point x="1415" y="1175"/>
      <point x="1243" y="988.599"/>
      <point x="1243" y="627" type="curve" smooth="yes"/>
    </contour>
  </outline>
</glyph>
<glyph name="Ja.mlm" format="2">
  <advance width="1729"/>
  <unicode hex="0D1C"/>
  <outline>
    <contour>
      <point x="994" y="78" type="line"/>
      <point x="1075" y="13"/>
      <point x="1183" y="-30"/>
      <point x="1307" y="-30" type="curve" smooth="yes"/>
      <point x="1476" y="-30"/>
      <point x="1566" y="43"/>
      <point x="1566" y="180" type="curve" smooth="yes"/>
      <point x="1566" y="189" type="line" smooth="yes"/>
      <point x="1566" y="311"/>
      <point x="1503" y="378"/>
      <point x="1381" y="393" type="curve"/>
      <point x="1378" y="394"/>
      <point x="1370" y="397"/>
      <point x="1366" y="397" type="curve"/>
      <point x="1353" y="399"/>
      <point x="1338" y="399"/>
      <point x="1324" y="399" type="curve" smooth="yes"/>
      <point x="1173" y="399"/>
      <point x="1069" y="335"/>
      <point x="962" y="265" type="curve" smooth="yes"/>
      <point x="758" y="131" type="line" smooth="yes"/>
      <point x="655" y="64"/>
      <point x="548" y="-3"/>
      <point x="398" y="-3" type="curve" smooth="yes"/>
      <point x="269" y="-3"/>
      <point x="199" y="52"/>
      <point x="199" y="164" type="curve" smooth="yes"/>
      <point x="199" y="172" type="line" smooth="yes"/>
      <point x="199" y="272"/>
      <point x="252" y="329"/>
      <point x="360" y="337" type="curve"/>
      <point x="297" y="363" type="line"/>
      <point x="298" y="352" type="line"/>
      <point x="218" y="334"/>
      <point x="162" y="273"/>
      <point x="162" y="170" type="curve" smooth="yes"/>
      <point x="162" y="163" type="line" smooth="yes"/>
      <point x="162" y="33"/>
      <point x="246" y="-37"/>
      <point x="398" y="-37" type="curve" smooth="yes"/>
      <point x="557" y="-37"/>
      <point x="670" y="33"/>
      <point x="781" y="106" type="curve" smooth="yes"/>
      <point x="986" y="240" type="line" smooth="yes"/>
      <point x="1086" y="305"/>
      <point x="1186" y="366"/>
      <point x="1323" y="366" type="curve" smooth="yes"/>
      <point x="1459" y="366"/>
      <point x="1529" y="308"/>
      <point x="1529" y="189" type="curve" smooth="yes"/>
      <point x="1529" y="180" type="line" smooth="yes"/>
      <point x="1529" y="64"/>
      <point x="1454" y="4"/>
      <point x="1307" y="4" type="curve" smooth="yes"/>
      <point x="1178" y="4"/>
      <point x="1081" y="52"/>
      <point x="993" y="121" type="curve"/>
    </contour>
    <contour>
      <point x="163" y="766" type="curve" smooth="yes"/>
      <point x="163" y="614" type="line" smooth="yes"/>
      <point x="163" y="468.25"/>
      <point x="211" y="381.615"/>
      <point x="311" y="349" type="curve"/>
      <point x="316" y="347"/>
      <point x="321" y="342"/>
      <point x="326" y="341" type="curve"/>
      <point x="352" y="333"/>
      <point x="381" y="330"/>
      <point x="414" y="330" type="curve" smooth="yes"/>
      <point x="571" y="330"/>
      <point x="652" y="420.759"/>
      <point x="652" y="588" type="curve" smooth="yes"/>
      <point x="652" y="659" type="line" smooth="yes"/>
      <point x="652" y="816.208"/>
      <point x="572" y="904"/>
      <point x="425" y="904" type="curve" smooth="yes"/>
      <point x="301" y="904"/>
      <point x="211" y="835.924"/>
      <point x="184" y="737" type="curve"/>
      <point x="198" y="723" type="line"/>
      <point x="233" y="816.35"/>
      <point x="312" y="870"/>
      <point x="423" y="870" type="curve" smooth="yes"/>
      <point x="547" y="870"/>
      <point x="615" y="795.245"/>
      <point x="615" y="657" type="curve" smooth="yes"/>
      <point x="615" y="588" type="line" smooth="yes"/>
      <point x="615" y="442.758"/>
      <point x="546" y="364"/>
      <point x="414" y="364" type="curve" smooth="yes"/>
      <point x="271" y="364"/>
      <point x="199" y="443.592"/>
      <point x="199" y="614" type="curve" smooth="yes"/>
      <point x="199" y="744" type="line"/>
      <point x="207" y="775" type="line"/>
      <point x="199" y="775" type="line"/>
      <point x="199" y="775" type="line"/>
      <point x="199" y="1008.46"/>
      <point x="326" y="1139"/>
      <point x="584" y="1139" type="curve" smooth="yes"/>
      <point x="823" y="1139"/>
      <point x="943" y="1027"/>
      <point x="943" y="824" type="curve" smooth="yes"/>
      <point x="943" y="463" type="line"/>
      <point x="980" y="463" type="line"/>
      <point x="980" y="856" type="line" smooth="yes"/>
      <point x="980" y="1038"/>
      <point x="1062" y="1139"/>
      <point x="1251" y="1139" type="curve" smooth="yes"/>
      <point x="1436" y="1139"/>
      <point x="1524" y="1038.62"/>
      <point x="1524" y="842" type="curve" smooth="yes"/>
      <point x="1524" y="702" type="line" smooth="yes"/>
      <point x="1524" y="526.295"/>
      <point x="1455" y="425.007"/>
      <point x="1315" y="394" type="curve"/>
      <point x="1397" y="381" type="line"/>
      <point x="1397" y="391" type="line"/>
      <point x="1510" y="435.429"/>
      <point x="1561" y="548.05"/>
      <point x="1561" y="702" type="curve" smooth="yes"/>
      <point x="1561" y="842" type="line" smooth="yes"/>
      <point x="1561" y="1056.48"/>
      <point x="1463" y="1173"/>
      <point x="1254" y="1173" type="curve" smooth="yes"/>
      <point x="1080" y="1173"/>
      <point x="982" y="1099"/>
      <point x="959" y="943" type="curve"/>
      <point x="957" y="943" type="line"/>
      <point x="926" y="1090"/>
      <point x="797" y="1173"/>
      <point x="584" y="1173" type="curve" smooth="yes"/>
      <point x="302" y="1173"/>
      <point x="163" y="1036.33"/>
    </contour>
  </outline>
</glyph>
<glyph name="Tta.mlm" format="2">
  <advance width="1045"/>
  <unicode hex="0D1F"/>
  <outline>
    <contour>
      <point x="526" y="-25" type="curve" smooth="yes"/>
      <point x="779" y="-25"/>
      <point x="904" y="77"/>
      <point x="904" y="274" type="curve" smooth="yes"/>
      <point x="904" y="296" type="line" smooth="yes"/>
      <point x="904" y="472"/>
      <point x="822" y="561"/>
      <point x="526" y="607" type="curve" smooth="yes"/>
      <point x="253" y="649"/>
      <point x="180" y="725"/>
      <point x="180" y="877" type="curve" smooth="yes"/>
      <point x="180" y="884" type="line" smooth="yes"/>
      <point x="180" y="1052"/>
      <point x="287" y="1140"/>
      <point x="506" y="1140" type="curve" smooth="yes"/>
      <point x="669" y="1140"/>
      <point x="777" y="1099"/>
      <point x="882" y="1025" type="curve"/>
      <point x="878" y="1068" type="line"/>
      <point x="792" y="1130"/>
      <point x="673" y="1174"/>
      <point x="506" y="1174" type="curve" smooth="yes"/>
      <point x="262" y="1174"/>
      <point x="143" y="1074"/>
      <point x="143" y="884" type="curve" smooth="yes"/>
      <point x="143" y="877" type="line" smooth="yes"/>
      <point x="143" y="705"/>
      <point x="224" y="618"/>
      <point x="519" y="574" type="curve" smooth="yes"/>
      <point x="794" y="532"/>
      <point x="867" y="452"/>
      <point x="867" y="296" type="curve" smooth="yes"/>
      <point x="867" y="273" type="line" smooth="yes"/>
      <point x="867" y="99"/>
      <point x="753" y="9"/>
      <point x="526" y="9" type="curve" smooth="yes"/>
      <point x="356" y="9"/>
      <point x="230" y="65"/>
      <point x="123" y="156" type="curve"/>
      <point x="127" y="110" type="line"/>
      <point x="215" y="34"/>
      <point x="349" y="-25"/>
    </contour>
  </outline>
</glyph>
<glyph name="Ttha.mlm" format="2">
  <advance width="1188"/>
  <unicode hex="0D20"/>
  <outline>
    <contour>
      <point x="594" y="8" type="curve" smooth="yes"/>
      <point x="325" y="8"/>
      <point x="188" y="160.356"/>
      <point x="188" y="462" type="curve" smooth="yes"/>
      <point x="188" y="688" type="line" smooth="yes"/>
      <point x="188" y="988.637"/>
      <point x="325" y="1141"/>
      <point x="594" y="1141" type="curve" smooth="yes"/>
      <point x="862" y="1141"/>
      <point x="1000" y="988.637"/>
      <point x="1000" y="688" type="curve" smooth="yes"/>
      <point x="1000" y="462" type="line" smooth="yes"/>
      <point x="1000" y="160.356"/>
      <point x="862" y="8"/>
    </contour>
    <contour>
      <point x="594" y="-26" type="curve" smooth="yes"/>
      <point x="887" y="-26"/>
      <point x="1037" y="139.389"/>
      <point x="1037" y="462" type="curve" smooth="yes"/>
      <point x="1037" y="688" type="line" smooth="yes"/>
      <point x="1037" y="1010.62"/>
      <point x="887" y="1175"/>
      <point x="594" y="1175" type="curve" smooth="yes"/>
      <point x="300" y="1175"/>
      <point x="151" y="1010.62"/>
      <point x="151" y="688" type="curve" smooth="yes"/>
      <point x="151" y="462" type="line" smooth="yes"/>
      <point x="151" y="139.389"/>
      <point x="300" y="-26"/>
    </contour>
  </outline>
</glyph>
<glyph name="Dda.mlm" format="2">
  <advance width="2214"/>
  <unicode hex="0D21"/>
  <outline>
    <contour>
      <point x="1411" y="450" type="line"/>
      <point x="1411" y="1140" type="line"/>
      <point x="1374" y="1140" type="line"/>
      <point x="1374" y="450" type="line"/>
    </contour>
    <contour>
      <point x="1097" y="-23" type="curve" smooth="yes"/>
      <point x="1267" y="-23"/>
      <point x="1368" y="66"/>
      <point x="1393" y="233" type="curve"/>
      <point x="1404" y="233" type="line"/>
      <point x="1404" y="563" type="line"/>
      <point x="1374" y="586" type="line"/>
      <point x="1374" y="358" type="line" smooth="yes"/>
      <point x="1374" y="127.003"/>
      <point x="1283" y="11"/>
      <point x="1097" y="11" type="curve" smooth="yes"/>
      <point x="910" y="11"/>
      <point x="814" y="120.272"/>
      <point x="814" y="345" type="curve" smooth="yes"/>
      <point x="814" y="491.691"/>
      <point x="829" y="663.309"/>
      <point x="829" y="810" type="curve" smooth="yes"/>
      <point x="829" y="1050.63"/>
      <point x="720" y="1173"/>
      <point x="507" y="1173" type="curve" smooth="yes"/>
      <point x="273" y="1173"/>
      <point x="158" y="1033.65"/>
      <point x="158" y="757" type="curve" smooth="yes"/>
      <point x="158" y="481" type="line" smooth="yes"/>
      <point x="158" y="259.605"/>
      <point x="217" y="111.314"/>
      <point x="324" y="0" type="curve"/>
      <point x="373" y="0" type="line"/>
      <point x="258" y="112.331"/>
      <point x="195" y="258.572"/>
      <point x="195" y="482" type="curve" smooth="yes"/>
      <point x="195" y="757" type="line" smooth="yes"/>
      <point x="195" y="1013.72"/>
      <point x="299" y="1139"/>
      <point x="507" y="1139" type="curve" smooth="yes"/>
      <point x="697" y="1139"/>
      <point x="792" y="1029.7"/>
      <point x="792" y="808" type="curve" smooth="yes"/>
      <point x="792" y="661.296"/>
      <point x="777" y="488.704"/>
      <point x="777" y="342" type="curve" smooth="yes"/>
      <point x="777" y="99.3521"/>
      <point x="888" y="-23"/>
    </contour>
    <contour>
      <point x="1394" y="233" type="line"/>
      <point x="1422" y="67"/>
      <point x="1529" y="-23"/>
      <point x="1707" y="-23" type="curve" smooth="yes"/>
      <point x="1944" y="-23"/>
      <point x="2056" y="120.382"/>
      <point x="2056" y="401" type="curve" smooth="yes"/>
      <point x="2056" y="664" type="line" smooth="yes"/>
      <point x="2056" y="885.395"/>
      <point x="1996" y="1032.66"/>
      <point x="1892" y="1145" type="curve"/>
      <point x="1846" y="1145" type="line"/>
      <point x="1954" y="1032.67"/>
      <point x="2019" y="884.386"/>
      <point x="2019" y="663" type="curve" smooth="yes"/>
      <point x="2019" y="401" type="line" smooth="yes"/>
      <point x="2019" y="141.342"/>
      <point x="1918" y="11"/>
      <point x="1706" y="11" type="curve" smooth="yes"/>
      <point x="1508" y="11"/>
      <point x="1411" y="125.965"/>
      <point x="1411" y="358" type="curve" smooth="yes"/>
      <point x="1411" y="580" type="line"/>
      <point x="1394" y="580" type="line"/>
    </contour>
  </outline>
</glyph>
<glyph name="Ddha.mlm" format="2">
  <advance width="2481"/>
  <unicode hex="0D22"/>
  <outline>
    <contour>
      <point x="1411" y="440" type="line"/>
      <point x="1411" y="1140" type="line"/>
      <point x="1374" y="1140" type="line"/>
      <point x="1374" y="440" type="line"/>
    </contour>
    <contour>
      <point x="1096" y="-23" type="curve" smooth="yes"/>
      <point x="1271" y="-23"/>
      <point x="1372" y="70"/>
      <point x="1396" y="252" type="curve"/>
      <point x="1407" y="252" type="line"/>
      <point x="1404" y="563" type="line"/>
      <point x="1374" y="586" type="line"/>
      <point x="1374" y="356" type="line" smooth="yes"/>
      <point x="1374" y="125"/>
      <point x="1282" y="11"/>
      <point x="1096" y="11" type="curve" smooth="yes"/>
      <point x="909" y="11"/>
      <point x="814" y="120.262"/>
      <point x="814" y="346" type="curve" smooth="yes"/>
      <point x="814" y="491.719"/>
      <point x="828" y="664.281"/>
      <point x="828" y="810" type="curve" smooth="yes"/>
      <point x="828" y="1050.63"/>
      <point x="719" y="1173"/>
      <point x="506" y="1173" type="curve" smooth="yes"/>
      <point x="272" y="1173"/>
      <point x="158" y="1033.65"/>
      <point x="158" y="757" type="curve" smooth="yes"/>
      <point x="158" y="481" type="line" smooth="yes"/>
      <point x="158" y="259.605"/>
      <point x="216" y="111.314"/>
      <point x="323" y="0" type="curve"/>
      <point x="373" y="0" type="line"/>
      <point x="258" y="112.331"/>
      <point x="195" y="258.572"/>
      <point x="195" y="482" type="curve" smooth="yes"/>
      <point x="195" y="757" type="line" smooth="yes"/>
      <point x="195" y="1013.72"/>
      <point x="298" y="1139"/>
      <point x="506" y="1139" type="curve" smooth="yes"/>
      <point x="696" y="1139"/>
      <point x="791" y="1029.7"/>
      <point x="791" y="808" type="curve" smooth="yes"/>
      <point x="791" y="662.281"/>
      <point x="777" y="489.719"/>
      <point x="777" y="344" type="curve" smooth="yes"/>
      <point x="777" y="101.389"/>
      <point x="887" y="-23"/>
    </contour>
    <contour>
      <point x="1841" y="-23" type="curve" smooth="yes"/>
      <point x="2165" y="-23"/>
      <point x="2326" y="162.377"/>
      <point x="2326" y="526" type="curve" smooth="yes"/>
      <point x="2326" y="813" type="line" smooth="yes"/>
      <point x="2326" y="1057.39"/>
      <point x="2224" y="1173"/>
      <point x="2028" y="1173" type="curve" smooth="yes"/>
      <point x="1842" y="1173"/>
      <point x="1744" y="1060.27"/>
      <point x="1744" y="848" type="curve" smooth="yes"/>
      <point x="1744" y="700" type="line" smooth="yes"/>
      <point x="1744" y="501.739"/>
      <point x="1842" y="396"/>
      <point x="2018" y="396" type="curve" smooth="yes"/>
      <point x="2162" y="396"/>
      <point x="2270" y="477"/>
      <point x="2303" y="595" type="curve"/>
      <point x="2289" y="609" type="line"/>
      <point x="2244" y="495"/>
      <point x="2152" y="430"/>
      <point x="2020" y="430" type="curve" smooth="yes"/>
      <point x="1865" y="430"/>
      <point x="1781" y="521.685"/>
      <point x="1781" y="702" type="curve" smooth="yes"/>
      <point x="1781" y="848" type="line" smooth="yes"/>
      <point x="1781" y="1043.36"/>
      <point x="1866" y="1139"/>
      <point x="2028" y="1139" type="curve" smooth="yes"/>
      <point x="2200" y="1139"/>
      <point x="2289" y="1036.43"/>
      <point x="2289" y="813" type="curve" smooth="yes"/>
      <point x="2289" y="586" type="line"/>
      <point x="2277" y="557" type="line"/>
      <point x="2289" y="557" type="line"/>
      <point x="2289" y="526" type="line" smooth="yes"/>
      <point x="2289" y="182.325"/>
      <point x="2141" y="11"/>
      <point x="1841" y="11" type="curve" smooth="yes"/>
      <point x="1555" y="11"/>
      <point x="1411" y="138"/>
      <point x="1411" y="375" type="curve" smooth="yes"/>
      <point x="1411" y="540" type="line"/>
      <point x="1397" y="540" type="line"/>
      <point x="1397" y="252" type="line"/>
      <point x="1439" y="65"/>
      <point x="1603" y="-23"/>
    </contour>
  </outline>
</glyph>
<glyph name="Nna.mlm" format="2">
  <advance width="2559"/>
  <unicode hex="0D23"/>
  <outline>
    <contour>
      <point x="1085" y="5" type="line"/>
      <point x="1122" y="5" type="line"/>
      <point x="1122" y="700" type="line"/>
      <point x="1085" y="700" type="line"/>
    </contour>
    <contour>
      <point x="655" y="1173" type="curve" smooth="yes"/>
      <point x="320" y="1173"/>
      <point x="156" y="983.345"/>
      <point x="156" y="603" type="curve" smooth="yes"/>
      <point x="156" y="339" type="line" smooth="yes"/>
      <point x="156" y="94.6056"/>
      <point x="258" y="-21"/>
      <point x="455" y="-21" type="curve" smooth="yes"/>
      <point x="641" y="-21"/>
      <point x="739" y="91.7344"/>
      <point x="739" y="304" type="curve" smooth="yes"/>
      <point x="739" y="439" type="line" smooth="yes"/>
      <point x="739" y="637.261"/>
      <point x="641" y="743"/>
      <point x="465" y="743" type="curve" smooth="yes"/>
      <point x="320" y="743"/>
      <point x="213" y="662"/>
      <point x="179" y="543" type="curve"/>
      <point x="193" y="529" type="line"/>
      <point x="239" y="644"/>
      <point x="331" y="709"/>
      <point x="463" y="709" type="curve" smooth="yes"/>
      <point x="618" y="709"/>
      <point x="702" y="617.315"/>
      <point x="702" y="437" type="curve" smooth="yes"/>
      <point x="702" y="304" type="line" smooth="yes"/>
      <point x="702" y="108.643"/>
      <point x="617" y="13"/>
      <point x="455" y="13" type="curve" smooth="yes"/>
      <point x="282" y="13"/>
      <point x="193" y="115.573"/>
      <point x="193" y="339" type="curve" smooth="yes"/>
      <point x="193" y="555" type="line"/>
      <point x="209" y="581" type="line"/>
      <point x="193" y="581" type="line"/>
      <point x="193" y="603" type="line" smooth="yes"/>
      <point x="193" y="962.411"/>
      <point x="345" y="1139"/>
      <point x="655" y="1139" type="curve" smooth="yes"/>
      <point x="941" y="1139"/>
      <point x="1085" y="1006"/>
      <point x="1085" y="760" type="curve" smooth="yes"/>
      <point x="1085" y="611" type="line"/>
      <point x="1100" y="611" type="line"/>
      <point x="1099" y="889" type="line"/>
      <point x="1055" y="1080"/>
      <point x="893" y="1173"/>
    </contour>
    <contour>
      <point x="1704" y="705" type="line"/>
      <point x="1704" y="5" type="line"/>
      <point x="1741" y="5" type="line"/>
      <point x="1741" y="705" type="line"/>
    </contour>
    <contour>
      <point x="1722" y="913" type="line"/>
      <point x="1696" y="1083"/>
      <point x="1592" y="1173"/>
      <point x="1413" y="1173" type="curve" smooth="yes"/>
      <point x="1234" y="1173"/>
      <point x="1126" y="1083"/>
      <point x="1101" y="889" type="curve"/>
      <point x="1092" y="889" type="line"/>
      <point x="1092" y="582" type="line"/>
      <point x="1122" y="581" type="line"/>
      <point x="1122" y="788" type="line" smooth="yes"/>
      <point x="1122" y="1021"/>
      <point x="1216" y="1139"/>
      <point x="1413" y="1139" type="curve" smooth="yes"/>
      <point x="1610" y="1139"/>
      <point x="1704" y="1021"/>
      <point x="1704" y="788" type="curve" smooth="yes"/>
      <point x="1704" y="555" type="line"/>
      <point x="1722" y="555" type="line"/>
    </contour>
    <contour>
      <point x="1741" y="549" type="line"/>
      <point x="1741" y="788" type="line" smooth="yes"/>
      <point x="1741" y="1021"/>
      <point x="1840" y="1139"/>
      <point x="2040" y="1139" type="curve" smooth="yes"/>
      <point x="2258" y="1139"/>
      <point x="2364" y="1004.61"/>
      <point x="2364" y="742" type="curve" smooth="yes"/>
      <point x="2364" y="476" type="line" smooth="yes"/>
      <point x="2364" y="257.622"/>
      <point x="2301" y="109.296"/>
      <point x="2196" y="0" type="curve"/>
      <point x="2245" y="0" type="line"/>
      <point x="2344" y="110.323"/>
      <point x="2401" y="255.591"/>
      <point x="2401" y="475" type="curve" smooth="yes"/>
      <point x="2401" y="742" type="line" smooth="yes"/>
      <point x="2401" y="1027.63"/>
      <point x="2284" y="1173"/>
      <point x="2041" y="1173" type="curve" smooth="yes"/>
      <point x="1861" y="1173"/>
      <point x="1754" y="1082"/>
      <point x="1724" y="913" type="curve"/>
      <point x="1712" y="913" type="line"/>
      <point x="1712" y="572" type="line"/>
    </contour>
  </outline>
</glyph>
<glyph name="Ta.mlm" format="2">
  <advance width="1855"/>
  <unicode hex="0D24"/>
  <outline>
    <contour>
      <point x="928" y="-21" type="curve" smooth="yes"/>
      <point x="1123.34" y="-21"/>
      <point x="1222" y="104.398"/>
      <point x="1222" y="348" type="curve" smooth="yes"/>
      <point x="1222" y="582" type="line" smooth="yes"/>
      <point x="1222" y="851.136"/>
      <point x="1130.35" y="1013.4"/>
      <point x="959" y="1108" type="curve"/>
      <point x="943" y="1115" type="line"/>
      <point x="865" y="1153"/>
      <point x="772" y="1173"/>
      <point x="667" y="1173" type="curve" smooth="yes"/>
      <point x="326" y="1173"/>
      <point x="156" y="987.598"/>
      <point x="156" y="628" type="curve" smooth="yes"/>
      <point x="156" y="445" type="line" smooth="yes"/>
      <point x="156" y="245.747"/>
      <point x="205" y="106.391"/>
      <point x="290" y="0" type="curve"/>
      <point x="336" y="0" type="line"/>
      <point x="246" y="106.385"/>
      <point x="193" y="245.734"/>
      <point x="193" y="446" type="curve" smooth="yes"/>
      <point x="193" y="628" type="line" smooth="yes"/>
      <point x="193" y="966.627"/>
      <point x="348" y="1139"/>
      <point x="667" y="1139" type="curve" smooth="yes"/>
      <point x="756" y="1139"/>
      <point x="837" y="1125"/>
      <point x="903" y="1098" type="curve" smooth="yes"/>
      <point x="923" y="1090" type="line"/>
      <point x="1093.35" y="1001.52"/>
      <point x="1185" y="844.223"/>
      <point x="1185" y="582" type="curve" smooth="yes"/>
      <point x="1185" y="348" type="line" smooth="yes"/>
      <point x="1185" y="125.354"/>
      <point x="1099.33" y="13"/>
      <point x="928" y="13" type="curve" smooth="yes"/>
      <point x="756.664" y="13"/>
      <point x="670" y="125.354"/>
      <point x="670" y="348" type="curve" smooth="yes"/>
      <point x="670" y="582" type="line" smooth="yes"/>
      <point x="670" y="844.223"/>
      <point x="761.65" y="1001.52"/>
      <point x="932" y="1090" type="curve"/>
      <point x="952" y="1098" type="line" smooth="yes"/>
      <point x="1018" y="1125"/>
      <point x="1099" y="1139"/>
      <point x="1186" y="1139" type="curve" smooth="yes"/>
      <point x="1506" y="1139"/>
      <point x="1662" y="966.627"/>
      <point x="1662" y="628" type="curve" smooth="yes"/>
      <point x="1662" y="446" type="line" smooth="yes"/>
      <point x="1662" y="245.734"/>
      <point x="1610" y="106.385"/>
      <point x="1519" y="0" type="curve"/>
      <point x="1565" y="0" type="line"/>
      <point x="1650" y="106.391"/>
      <point x="1699" y="245.747"/>
      <point x="1699" y="445" type="curve" smooth="yes"/>
      <point x="1699" y="628" type="line" smooth="yes"/>
      <point x="1699" y="987.598"/>
      <point x="1529" y="1173"/>
      <point x="1186" y="1173" type="curve" smooth="yes"/>
      <point x="1082" y="1173"/>
      <point x="989" y="1153"/>
      <point x="912" y="1115" type="curve"/>
      <point x="896" y="1108" type="line"/>
      <point x="724.651" y="1013.4"/>
      <point x="633" y="851.136"/>
      <point x="633" y="582" type="curve" smooth="yes"/>
      <point x="633" y="348" type="line" smooth="yes"/>
      <point x="633" y="104.398"/>
      <point x="731.666" y="-21"/>
    </contour>
  </outline>
</glyph>
<glyph name="Pa.mlm" format="2">
  <advance width="1595"/>
  <unicode hex="0D2A"/>
  <outline>
    <contour>
      <point x="471" y="756" type="curve" smooth="yes"/>
      <point x="252" y="756"/>
      <point x="144" y="632.522"/>
      <point x="144" y="401" type="curve" smooth="yes"/>
      <point x="144" y="308" type="line" smooth="yes"/>
      <point x="144" y="170.855"/>
      <point x="178" y="70.1386"/>
      <point x="242" y="0" type="curve"/>
      <point x="288" y="0" type="line"/>
      <point x="220" y="72.1716"/>
      <point x="181" y="171.871"/>
      <point x="181" y="308" type="curve" smooth="yes"/>
      <point x="181" y="401" type="line" smooth="yes"/>
      <point x="181" y="612.592"/>
      <point x="279" y="722"/>
      <point x="471" y="722" type="curve" smooth="yes"/>
      <point x="664" y="722"/>
      <point x="762" y="612.592"/>
      <point x="762" y="401" type="curve" smooth="yes"/>
      <point x="762" y="308" type="line" smooth="yes"/>
      <point x="762" y="174.879"/>
      <point x="722" y="76.1616"/>
      <point x="651" y="6" type="curve"/>
      <point x="651" y="0" type="line"/>
      <point x="686" y="0" type="line"/>
      <point x="761" y="70.1386"/>
      <point x="799" y="170.855"/>
      <point x="799" y="308" type="curve" smooth="yes"/>
      <point x="799" y="401" type="line" smooth="yes"/>
      <point x="799" y="632.522"/>
      <point x="691" y="756"/>
    </contour>
    <contour>
      <point x="1364" y="1149" type="line"/>
      <point x="1364" y="0" type="line"/>
      <point x="1401" y="0" type="line"/>
      <point x="1401" y="1149" type="line"/>
    </contour>
    <contour>
      <point x="695" y="32" type="line"/>
      <point x="651" y="0" type="line"/>
      <point x="1384" y="0" type="line"/>
      <point x="1384" y="32" type="line"/>
    </contour>
  </outline>
</glyph>
<glyph name="Ba.mlm" format="2">
  <advance width="2484"/>
  <unicode hex="0D2C"/>
  <outline>
    <contour>
      <point x="1085" y="5" type="line"/>
      <point x="1122" y="5" type="line"/>
      <point x="1122" y="700" type="line"/>
      <point x="1085" y="700" type="line"/>
    </contour>
    <contour>
      <point x="655" y="1173" type="curve" smooth="yes"/>
      <point x="320" y="1173"/>
      <point x="156" y="983.345"/>
      <point x="156" y="603" type="curve" smooth="yes"/>
      <point x="156" y="339" type="line" smooth="yes"/>
      <point x="156" y="94.6056"/>
      <point x="258" y="-21"/>
      <point x="455" y="-21" type="curve" smooth="yes"/>
      <point x="641" y="-21"/>
      <point x="739" y="91.7344"/>
      <point x="739" y="304" type="curve" smooth="yes"/>
      <point x="739" y="439" type="line" smooth="yes"/>
      <point x="739" y="637.261"/>
      <point x="641" y="743"/>
      <point x="465" y="743" type="curve" smooth="yes"/>
      <point x="320" y="743"/>
      <point x="213" y="662"/>
      <point x="179" y="543" type="curve"/>
      <point x="193" y="529" type="line"/>
      <point x="239" y="644"/>
      <point x="331" y="709"/>
      <point x="463" y="709" type="curve" smooth="yes"/>
      <point x="618" y="709"/>
      <point x="702" y="617.315"/>
      <point x="702" y="437" type="curve" smooth="yes"/>
      <point x="702" y="304" type="line" smooth="yes"/>
      <point x="702" y="108.643"/>
      <point x="617" y="13"/>
      <point x="455" y="13" type="curve" smooth="yes"/>
      <point x="282" y="13"/>
      <point x="193" y="115.573"/>
      <point x="193" y="339" type="curve" smooth="yes"/>
      <point x="193" y="555" type="line"/>
      <point x="209" y="581" type="line"/>
      <point x="193" y="581" type="line"/>
      <point x="193" y="603" type="line" smooth="yes"/>
      <point x="193" y="962.411"/>
      <point x="345" y="1139"/>
      <point x="655" y="1139" type="curve" smooth="yes"/>
      <point x="941" y="1139"/>
      <point x="1085" y="1006"/>
      <point x="1085" y="760" type="curve" smooth="yes"/>
      <point x="1085" y="611" type="line"/>
      <point x="1100" y="611" type="line"/>
      <point x="1099" y="889" type="line"/>
      <point x="1055" y="1080"/>
      <point x="893" y="1173"/>
    </contour>
    <contour>
      <point x="1429" y="1139" type="curve" smooth="yes"/>
      <point x="1652" y="1139"/>
      <point x="1761" y="1006.63"/>
      <point x="1761" y="746" type="curve" smooth="yes"/>
      <point x="1761" y="480" type="line" smooth="yes"/>
      <point x="1761" y="263.647"/>
      <point x="1701" y="117.349"/>
      <point x="1591" y="6" type="curve"/>
      <point x="1591" y="0" type="line"/>
      <point x="1631" y="0" type="line"/>
      <point x="1740" y="112.345"/>
      <point x="1798" y="257.586"/>
      <point x="1798" y="479" type="curve" smooth="yes"/>
      <point x="1798" y="746" type="line" smooth="yes"/>
      <point x="1798" y="1029.64"/>
      <point x="1678" y="1173"/>
      <point x="1430" y="1173" type="curve" smooth="yes"/>
      <point x="1243" y="1173"/>
      <point x="1130" y="1083"/>
      <point x="1101" y="889" type="curve"/>
      <point x="1092" y="889" type="line"/>
      <point x="1092" y="582" type="line"/>
      <point x="1122" y="581" type="line"/>
      <point x="1122" y="788" type="line" smooth="yes"/>
      <point x="1122" y="1021"/>
      <point x="1223" y="1139"/>
    </contour>
    <contour>
      <point x="2253" y="1149" type="line"/>
      <point x="2253" y="0" type="line"/>
      <point x="2290" y="0" type="line"/>
      <point x="2290" y="1149" type="line"/>
    </contour>
    <contour>
      <point x="1637" y="32" type="line"/>
      <point x="1591" y="0" type="line"/>
      <point x="2271" y="0" type="line"/>
      <point x="2271" y="32" type="line"/>
    </contour>
  </outline>
</glyph>
<glyph name="Bha.mlm" format="2">
  <advance width="1237"/>
  <unicode hex="0D2D"/>
  <outline>
    <contour>
      <point x="1088" y="921" type="curve" smooth="yes"/>
      <point x="1088" y="1079"/>
      <point x="955.311" y="1175"/>
      <point x="683" y="1175" type="curve" smooth="yes"/>
      <point x="334.338" y="1175"/>
      <point x="159" y="1018.86"/>
      <point x="159" y="648" type="curve" smooth="yes"/>
      <point x="159" y="431" type="line" smooth="yes"/>
      <point x="159" y="231.487"/>
      <point x="197" y="104.423"/>
      <point x="254" y="0" type="curve"/>
      <point x="298" y="0" type="line"/>
      <point x="236" y="104.423"/>
      <point x="196" y="231.487"/>
      <point x="196" y="431" type="curve" smooth="yes"/>
      <point x="196" y="647" type="line" smooth="yes"/>
      <point x="196" y="995.941"/>
      <point x="357.325" y="1141"/>
      <point x="683" y="1141" type="curve" smooth="yes"/>
      <point x="931.301" y="1141"/>
      <point x="1051" y="1057"/>
      <point x="1051" y="921" type="curve" smooth="yes"/>
      <point x="1051" y="843"/>
      <point x="1020" y="796"/>
      <point x="914" y="793" type="curve" smooth="yes"/>
      <point x="767" y="789" type="line" smooth="yes"/>
      <point x="621" y="785"/>
      <point x="554" y="710"/>
      <point x="554" y="585" type="curve" smooth="yes"/>
      <point x="554" y="579" type="line" smooth="yes"/>
      <point x="554" y="454"/>
      <point x="621" y="379"/>
      <point x="767" y="375" type="curve" smooth="yes"/>
      <point x="899" y="371" type="line" smooth="yes"/>
      <point x="1038" y="367"/>
      <point x="1079" y="311"/>
      <point x="1079" y="208" type="curve" smooth="yes"/>
      <point x="1079" y="200" type="line" smooth="yes"/>
      <point x="1079" y="78"/>
      <point x="985" y="19"/>
      <point x="794" y="19" type="curve" smooth="yes"/>
      <point x="727" y="19"/>
      <point x="642" y="30"/>
      <point x="571" y="51" type="curve"/>
      <point x="579" y="14" type="line"/>
      <point x="648" y="-7"/>
      <point x="728" y="-15"/>
      <point x="797" y="-15" type="curve" smooth="yes"/>
      <point x="1012" y="-15"/>
      <point x="1116" y="54"/>
      <point x="1116" y="199" type="curve" smooth="yes"/>
      <point x="1116" y="207" type="line" smooth="yes"/>
      <point x="1116" y="332"/>
      <point x="1062" y="399"/>
      <point x="906" y="404" type="curve" smooth="yes"/>
      <point x="774" y="408" type="line" smooth="yes"/>
      <point x="649" y="412"/>
      <point x="591" y="472"/>
      <point x="591" y="579" type="curve" smooth="yes"/>
      <point x="591" y="585" type="line" smooth="yes"/>
      <point x="591" y="692"/>
      <point x="649" y="753"/>
      <point x="774" y="756" type="curve" smooth="yes"/>
      <point x="921" y="760" type="line" smooth="yes"/>
      <point x="1045" y="763"/>
      <point x="1088" y="821"/>
    </contour>
  </outline>
</glyph>
<glyph name="Ya.mlm" format="2">
  <advance width="1884"/>
  <unicode hex="0D2F"/>
  <outline>
    <contour>
      <point x="964" y="64" type="curve"/>
      <point x="950" y="58" type="line"/>
      <point x="882" y="24.3043"/>
      <point x="797" y="8"/>
      <point x="701" y="8" type="curve" smooth="yes"/>
      <point x="370" y="8"/>
      <point x="195" y="181.673"/>
      <point x="195" y="527" type="curve" smooth="yes"/>
      <point x="195" y="819" type="line" smooth="yes"/>
      <point x="195" y="1027.52"/>
      <point x="281" y="1139"/>
      <point x="441" y="1139" type="curve" smooth="yes"/>
      <point x="590" y="1139"/>
      <point x="657.371" y="1047.94"/>
      <point x="674" y="862" type="curve" smooth="yes"/>
      <point x="707" y="493" type="line" smooth="yes"/>
      <point x="726.665" y="273.112"/>
      <point x="806" y="124.059"/>
      <point x="950" y="45" type="curve"/>
      <point x="964" y="38" type="line" smooth="yes"/>
      <point x="1044.24" y="-2.12202"/>
      <point x="1139" y="-27"/>
      <point x="1253" y="-27" type="curve" smooth="yes"/>
      <point x="1570" y="-27"/>
      <point x="1729" y="148.353"/>
      <point x="1729" y="496" type="curve" smooth="yes"/>
      <point x="1729" y="690" type="line" smooth="yes"/>
      <point x="1729" y="900.395"/>
      <point x="1672" y="1040.69"/>
      <point x="1571" y="1146" type="curve"/>
      <point x="1525" y="1146" type="line"/>
      <point x="1630" y="1040.7"/>
      <point x="1692" y="904.497"/>
      <point x="1692" y="689" type="curve" smooth="yes"/>
      <point x="1692" y="496" type="line" smooth="yes"/>
      <point x="1692" y="171.347"/>
      <point x="1547" y="8"/>
      <point x="1253" y="8" type="curve" smooth="yes"/>
      <point x="1154" y="8"/>
      <point x="1069" y="24.3043"/>
      <point x="999" y="58" type="curve"/>
      <point x="987" y="63" type="line"/>
      <point x="840" y="134.995"/>
      <point x="762.216" y="282.131"/>
      <point x="743" y="497" type="curve" smooth="yes"/>
      <point x="710" y="866" type="line" smooth="yes"/>
      <point x="706.871" y="900.989"/>
      <point x="703" y="929"/>
      <point x="697" y="957" type="curve"/>
      <point x="695" y="965" type="line" smooth="yes"/>
      <point x="660" y="1104"/>
      <point x="583" y="1173"/>
      <point x="440" y="1173" type="curve" smooth="yes"/>
      <point x="257" y="1173"/>
      <point x="158" y="1049.51"/>
      <point x="158" y="819" type="curve" smooth="yes"/>
      <point x="158" y="527" type="line" smooth="yes"/>
      <point x="158" y="158.676"/>
      <point x="348" y="-27"/>
      <point x="701" y="-27" type="curve" smooth="yes"/>
      <point x="813" y="-27"/>
      <point x="906" y="-4.62295"/>
      <point x="984" y="38" type="curve"/>
      <point x="999" y="45" type="line"/>
      <point x="1100" y="106.304"/>
      <point x="1160.38" y="213.114"/>
      <point x="1200" y="327" type="curve" smooth="yes"/>
      <point x="1249.53" y="469.371"/>
      <point x="1279" y="651.771"/>
      <point x="1279" y="818" type="curve" smooth="yes"/>
      <point x="1279" y="1050.55"/>
      <point x="1175" y="1173"/>
      <point x="981" y="1173" type="curve" smooth="yes"/>
      <point x="831" y="1173"/>
      <point x="728" y="1094"/>
      <point x="689" y="982" type="curve"/>
      <point x="675" y="981" type="line"/>
      <point x="699" y="938" type="line"/>
      <point x="741" y="1064"/>
      <point x="835" y="1139"/>
      <point x="980" y="1139" type="curve" smooth="yes"/>
      <point x="1150" y="1139"/>
      <point x="1242" y="1029.59"/>
      <point x="1242" y="818" type="curve" smooth="yes"/>
      <point x="1242" y="661.559"/>
      <point x="1212.51" y="473.615"/>
      <point x="1167" y="341" type="curve" smooth="yes"/>
      <point x="1127.63" y="226.292"/>
      <point x="1070" y="118.173"/>
    </contour>
  </outline>
</glyph>
<glyph name="Ra.mlm" format="2">
  <advance width="1368"/>
  <unicode hex="0D30"/>
  <outline>
    <contour>
      <point x="687" y="1141" type="curve" smooth="yes"/>
      <point x="1016" y="1141"/>
      <point x="1175" y="960.196"/>
      <point x="1175" y="640" type="curve"/>
      <point x="1175" y="640" type="line"/>
      <point x="1162" y="640" type="line"/>
      <point x="1175" y="616" type="line"/>
      <point x="1175" y="342" type="line" smooth="yes"/>
      <point x="1175" y="117.59"/>
      <point x="1083" y="13"/>
      <point x="918" y="13" type="curve" smooth="yes"/>
      <point x="751.354" y="13"/>
      <point x="660" y="110.661"/>
      <point x="660" y="307" type="curve" smooth="yes"/>
      <point x="660" y="446" type="line" smooth="yes"/>
      <point x="660" y="632.245"/>
      <point x="743.329" y="733"/>
      <point x="913" y="733" type="curve" smooth="yes"/>
      <point x="1030" y="733"/>
      <point x="1115" y="687.885"/>
      <point x="1175" y="605" type="curve"/>
      <point x="1185" y="625" type="line"/>
      <point x="1135" y="707.485"/>
      <point x="1043" y="767"/>
      <point x="911" y="767" type="curve" smooth="yes"/>
      <point x="720.338" y="767"/>
      <point x="623" y="654.232"/>
      <point x="623" y="448" type="curve" smooth="yes"/>
      <point x="623" y="307" type="line" smooth="yes"/>
      <point x="623" y="90.7028"/>
      <point x="726.35" y="-21"/>
      <point x="918" y="-21" type="curve" smooth="yes"/>
      <point x="1108" y="-21"/>
      <point x="1212" y="95.6061"/>
      <point x="1212" y="342" type="curve" smooth="yes"/>
      <point x="1212" y="639" type="line" smooth="yes"/>
      <point x="1212" y="986.239"/>
      <point x="1038" y="1175"/>
      <point x="687" y="1175" type="curve" smooth="yes"/>
      <point x="328" y="1175"/>
      <point x="156" y="988.599"/>
      <point x="156" y="627" type="curve" smooth="yes"/>
      <point x="156" y="439" type="line" smooth="yes"/>
      <point x="156" y="242.758"/>
      <point x="205" y="103.354"/>
      <point x="289" y="0" type="curve"/>
      <point x="335" y="0" type="line"/>
      <point x="246" y="103.349"/>
      <point x="193" y="243.767"/>
      <point x="193" y="440" type="curve" smooth="yes"/>
      <point x="193" y="627" type="line" smooth="yes"/>
      <point x="193" y="967.627"/>
      <point x="353" y="1141"/>
    </contour>
  </outline>
</glyph>
<glyph name="Rra.mlm" format="2">
  <advance width="1197"/>
  <unicode hex="0D31"/>
  <outline>
    <contour>
      <point x="598" y="1141" type="curve" smooth="yes"/>
      <point x="864" y="1141"/>
      <point x="1002" y="989.294"/>
      <point x="1002" y="689" type="curve" smooth="yes"/>
      <point x="1002" y="454" type="line" smooth="yes"/>
      <point x="1002" y="246"/>
      <point x="943" y="103"/>
      <point x="840" y="0" type="curve"/>
      <point x="890" y="0" type="line"/>
      <point x="984" y="104"/>
      <point x="1039" y="243"/>
      <point x="1039" y="453" type="curve" smooth="yes"/>
      <point x="1039" y="689" type="line" smooth="yes"/>
      <point x="1039" y="1011.27"/>
      <point x="889" y="1175"/>
      <point x="598" y="1175" type="curve" smooth="yes"/>
      <point x="306" y="1175"/>
      <point x="158" y="1011.27"/>
      <point x="158" y="689" type="curve" smooth="yes"/>
      <point x="158" y="453" type="line" smooth="yes"/>
      <point x="158" y="243"/>
      <point x="214" y="104"/>
      <point x="309" y="0" type="curve"/>
      <point x="357" y="0" type="line"/>
      <point x="256" y="103"/>
      <point x="195" y="246"/>
      <point x="195" y="454" type="curve" smooth="yes"/>
      <point x="195" y="689" type="line" smooth="yes"/>
      <point x="195" y="989.294"/>
      <point x="331" y="1141"/>
    </contour>
  </outline>
</glyph>
<glyph name="Va.mlm" format="2">
  <advance width="1663"/>
  <unicode hex="0D35"/>
  <outline>
    <contour>
      <point x="577" y="1141" type="curve" smooth="yes"/>
      <point x="830" y="1141"/>
      <point x="960" y="994.964"/>
      <point x="960" y="706" type="curve" smooth="yes"/>
      <point x="960" y="464" type="line" smooth="yes"/>
      <point x="960" y="254.647"/>
      <point x="901" y="111.299"/>
      <point x="799" y="6" type="curve"/>
      <point x="799" y="0" type="line"/>
      <point x="841" y="0" type="line"/>
      <point x="940" y="106.296"/>
      <point x="997" y="248.585"/>
      <point x="997" y="463" type="curve" smooth="yes"/>
      <point x="997" y="706" type="line" smooth="yes"/>
      <point x="997" y="1016.94"/>
      <point x="855" y="1175"/>
      <point x="577" y="1175" type="curve" smooth="yes"/>
      <point x="299" y="1175"/>
      <point x="158" y="1016.94"/>
      <point x="158" y="706" type="curve" smooth="yes"/>
      <point x="158" y="463" type="line" smooth="yes"/>
      <point x="158" y="248.585"/>
      <point x="214" y="106.296"/>
      <point x="308" y="0" type="curve"/>
      <point x="356" y="0" type="line"/>
      <point x="256" y="105.269"/>
      <point x="195" y="251.639"/>
      <point x="195" y="464" type="curve" smooth="yes"/>
      <point x="195" y="706" type="line" smooth="yes"/>
      <point x="195" y="994.964"/>
      <point x="324" y="1141"/>
    </contour>
    <contour>
      <point x="1432" y="1149" type="line"/>
      <point x="1432" y="0" type="line"/>
      <point x="1469" y="0" type="line"/>
      <point x="1469" y="1149" type="line"/>
    </contour>
    <contour>
      <point x="848" y="32" type="line"/>
      <point x="799" y="0" type="line"/>
      <point x="1452" y="0" type="line"/>
      <point x="1452" y="32" type="line"/>
    </contour>
  </outline>
</glyph>
<glyph name="Sha.mlm" format="2">
  <advance width="1868"/>
  <unicode hex="0D36"/>
  <outline>
    <contour>
      <point x="1227" y="1141" type="curve" smooth="yes"/>
      <point x="1528.51" y="1141"/>
      <point x="1673.77" y="961.198"/>
      <point x="1673.77" y="642" type="curve"/>
      <point x="1673.77" y="641" type="line"/>
      <point x="1663.77" y="641" type="line"/>
      <point x="1673.77" y="619" type="line"/>
      <point x="1673.77" y="342" type="line" smooth="yes"/>
      <point x="1673.77" y="117.59"/>
      <point x="1582.77" y="13"/>
      <point x="1417.77" y="13" type="curve" smooth="yes"/>
      <point x="1252.42" y="13"/>
      <point x="1162.77" y="110.661"/>
      <point x="1162.77" y="307" type="curve" smooth="yes"/>
      <point x="1162.77" y="445" type="line" smooth="yes"/>
      <point x="1162.77" y="631.894"/>
      <point x="1244.44" y="733"/>
      <point x="1412.77" y="733" type="curve" smooth="yes"/>
      <point x="1528.77" y="733"/>
      <point x="1613.77" y="689.264"/>
      <point x="1673.77" y="607" type="curve"/>
      <point x="1683.77" y="627" type="line"/>
      <point x="1633.77" y="708.926"/>
      <point x="1541.77" y="767"/>
      <point x="1410.77" y="767" type="curve" smooth="yes"/>
      <point x="1221.43" y="767"/>
      <point x="1125.77" y="653.879"/>
      <point x="1125.77" y="447" type="curve" smooth="yes"/>
      <point x="1125.77" y="307" type="line" smooth="yes"/>
      <point x="1125.77" y="90.7028"/>
      <point x="1227.42" y="-21"/>
      <point x="1417.77" y="-21" type="curve" smooth="yes"/>
      <point x="1607.77" y="-21"/>
      <point x="1710.77" y="95.6061"/>
      <point x="1710.77" y="342" type="curve" smooth="yes"/>
      <point x="1710.77" y="639" type="line" smooth="yes"/>
      <point x="1710.77" y="986.539"/>
      <point x="1550.63" y="1175"/>
      <point x="1227" y="1175" type="curve" smooth="yes"/>
      <point x="906" y="1175"/>
      <point x="749" y="1007.63"/>
      <point x="749" y="679" type="curve" smooth="yes"/>
      <point x="749" y="574.93"/>
      <point x="764" y="432.07"/>
      <point x="764" y="328" type="curve" smooth="yes"/>
      <point x="764" y="117.355"/>
      <point x="673" y="11"/>
      <point x="492" y="11" type="curve" smooth="yes"/>
      <point x="294" y="11"/>
      <point x="195" y="132.296"/>
      <point x="195" y="379" type="curve" smooth="yes"/>
      <point x="195" y="652" type="line" smooth="yes"/>
      <point x="195" y="880.422"/>
      <point x="263" y="1031.69"/>
      <point x="380" y="1146" type="curve"/>
      <point x="333" y="1146" type="line"/>
      <point x="221" y="1032.7"/>
      <point x="158" y="880.41"/>
      <point x="158" y="653" type="curve" smooth="yes"/>
      <point x="158" y="379" type="line" smooth="yes"/>
      <point x="158" y="113.393"/>
      <point x="269" y="-23"/>
      <point x="492" y="-23" type="curve" smooth="yes"/>
      <point x="697" y="-23"/>
      <point x="801" y="97.4513"/>
      <point x="801" y="326" type="curve" smooth="yes"/>
      <point x="801" y="430.054"/>
      <point x="786" y="571.946"/>
      <point x="786" y="676" type="curve" smooth="yes"/>
      <point x="786" y="985.659"/>
      <point x="931" y="1141"/>
    </contour>
  </outline>
</glyph>
<glyph name="Sa.mlm" format="2">
  <advance width="2235"/>
  <unicode hex="0D38"/>
  <outline>
    <contour>
      <point x="158" y="742" type="curve" smooth="yes"/>
      <point x="158" y="475" type="line" smooth="yes"/>
      <point x="158" y="256.493"/>
      <point x="215" y="110.323"/>
      <point x="314" y="0" type="curve"/>
      <point x="363" y="0" type="line"/>
      <point x="258" y="109.296"/>
      <point x="195" y="258.51"/>
      <point x="195" y="476" type="curve" smooth="yes"/>
      <point x="195" y="742" type="line" smooth="yes"/>
      <point x="195" y="1004.61"/>
      <point x="301" y="1139"/>
      <point x="518" y="1139" type="curve" smooth="yes"/>
      <point x="719" y="1139"/>
      <point x="817" y="1021"/>
      <point x="817" y="788" type="curve" smooth="yes"/>
      <point x="817" y="555" type="line"/>
      <point x="835" y="555" type="line"/>
      <point x="835" y="913" type="line"/>
      <point x="806" y="1082"/>
      <point x="698" y="1173"/>
      <point x="517" y="1173" type="curve" smooth="yes"/>
      <point x="275" y="1173"/>
      <point x="158" y="1027.63"/>
    </contour>
    <contour>
      <point x="817" y="707" type="line"/>
      <point x="817" y="5" type="line"/>
      <point x="854" y="5" type="line"/>
      <point x="854" y="707" type="line"/>
    </contour>
    <contour>
      <point x="1142" y="1139" type="curve" smooth="yes"/>
      <point x="1332" y="1139"/>
      <point x="1430" y="1017.49"/>
      <point x="1430" y="793" type="curve" smooth="yes"/>
      <point x="1430" y="654.263"/>
      <point x="1416" y="488.736"/>
      <point x="1416" y="350" type="curve" smooth="yes"/>
      <point x="1416" y="107.499"/>
      <point x="1528" y="-23"/>
      <point x="1744" y="-23" type="curve" smooth="yes"/>
      <point x="1968" y="-23"/>
      <point x="2077" y="116.375"/>
      <point x="2077" y="390" type="curve" smooth="yes"/>
      <point x="2077" y="662" type="line" smooth="yes"/>
      <point x="2077" y="885.409"/>
      <point x="2016" y="1034.7"/>
      <point x="1903" y="1146" type="curve"/>
      <point x="1856" y="1146" type="line"/>
      <point x="1973" y="1033.68"/>
      <point x="2040" y="886.442"/>
      <point x="2040" y="661" type="curve" smooth="yes"/>
      <point x="2040" y="390" type="line" smooth="yes"/>
      <point x="2040" y="135.279"/>
      <point x="1943" y="11"/>
      <point x="1744" y="11" type="curve" smooth="yes"/>
      <point x="1551" y="11"/>
      <point x="1453" y="126.373"/>
      <point x="1453" y="353" type="curve" smooth="yes"/>
      <point x="1453" y="491.723"/>
      <point x="1467" y="656.277"/>
      <point x="1467" y="795" type="curve" smooth="yes"/>
      <point x="1467" y="1038.44"/>
      <point x="1358" y="1173"/>
      <point x="1143" y="1173" type="curve" smooth="yes"/>
      <point x="966" y="1173"/>
      <point x="864" y="1081"/>
      <point x="837" y="913" type="curve"/>
      <point x="825" y="913" type="line"/>
      <point x="825" y="572" type="line"/>
      <point x="854" y="549" type="line"/>
      <point x="854" y="788" type="line" smooth="yes"/>
      <point x="854" y="1021"/>
      <point x="949" y="1139"/>
    </contour>
  </outline>
</glyph>
<glyph name="Ha.mlm" format="2">
  <advance width="2126"/>
  <unicode hex="0D39"/>
  <outline>
    <contour>
      <point x="471" y="756" type="curve" smooth="yes"/>
      <point x="252" y="756"/>
      <point x="144" y="632.522"/>
      <point x="144" y="401" type="curve" smooth="yes"/>
      <point x="144" y="308" type="line" smooth="yes"/>
      <point x="144" y="170.855"/>
      <point x="178" y="70.1386"/>
      <point x="242" y="0" type="curve"/>
      <point x="288" y="0" type="line"/>
      <point x="220" y="72.1716"/>
      <point x="181" y="171.871"/>
      <point x="181" y="308" type="curve" smooth="yes"/>
      <point x="181" y="401" type="line" smooth="yes"/>
      <point x="181" y="612.592"/>
      <point x="279" y="722"/>
      <point x="471" y="722" type="curve" smooth="yes"/>
      <point x="664" y="722"/>
      <point x="762" y="612.592"/>
      <point x="762" y="401" type="curve" smooth="yes"/>
      <point x="762" y="308" type="line" smooth="yes"/>
      <point x="762" y="174.879"/>
      <point x="722" y="76.1616"/>
      <point x="651" y="6" type="curve"/>
      <point x="651" y="0" type="line"/>
      <point x="686" y="0" type="line"/>
      <point x="761" y="70.1386"/>
      <point x="799" y="170.855"/>
      <point x="799" y="308" type="curve" smooth="yes"/>
      <point x="799" y="401" type="line" smooth="yes"/>
      <point x="799" y="632.522"/>
      <point x="691" y="756"/>
    </contour>
    <contour>
      <point x="695" y="32" type="line"/>
      <point x="651" y="0" type="line"/>
      <point x="1331" y="0" type="line"/>
      <point x="1290" y="32" type="line"/>
    </contour>
    <contour>
      <point x="1552" y="1141" type="curve" smooth="yes"/>
      <point x="1803" y="1141"/>
      <point x="1931" y="995.641"/>
      <point x="1931" y="707" type="curve" smooth="yes"/>
      <point x="1931" y="463" type="line" smooth="yes"/>
      <point x="1931" y="250.629"/>
      <point x="1871" y="105.274"/>
      <point x="1772" y="0" type="curve"/>
      <point x="1820" y="0" type="line"/>
      <point x="1913" y="106.301"/>
      <point x="1968" y="247.575"/>
      <point x="1968" y="462" type="curve" smooth="yes"/>
      <point x="1968" y="707" type="line" smooth="yes"/>
      <point x="1968" y="1017.62"/>
      <point x="1828" y="1175"/>
      <point x="1552" y="1175" type="curve" smooth="yes"/>
      <point x="1276" y="1175"/>
      <point x="1135" y="1017.62"/>
      <point x="1135" y="707" type="curve" smooth="yes"/>
      <point x="1135" y="462" type="line" smooth="yes"/>
      <point x="1135" y="247.575"/>
      <point x="1192" y="105.279"/>
      <point x="1290" y="0" type="curve"/>
      <point x="1331" y="0" type="line"/>
      <point x="1331" y="6" type="line"/>
      <point x="1230" y="111.304"/>
      <point x="1172" y="253.638"/>
      <point x="1172" y="463" type="curve" smooth="yes"/>
      <point x="1172" y="707" type="line" smooth="yes"/>
      <point x="1172" y="995.641"/>
      <point x="1301" y="1141"/>
    </contour>
  </outline>
</glyph>
<glyph name="Ttta.mlm" format="2">
  <advance width="1294"/>
  <unicode hex="0D3A"/>
  <outline>
    <contour>
      <point x="194" y="1149" type="line" name="n32"/>
      <point x="194" y="0" type="line" name="n33"/>
      <point x="231" y="0" type="line"/>
      <point x="231" y="1149" type="line" name="n31"/>
    </contour>
    <contour>
      <point x="1234" y="32" type="line"/>
      <point x="224" y="32" type="line"/>
      <point x="224" y="0" type="line"/>
      <point x="1226" y="0" type="line"/>
    </contour>
    <contour>
      <point x="743" y="16" type="line" name="n31"/>
      <point x="709" y="16" type="line" name="n32"/>
      <point x="709" y="-330" type="line" name="n33"/>
      <point x="743" y="-330" type="line"/>
    </contour>
  </outline>
</glyph>
<glyph name="verticalbarviramasign.mlm" format="2">
  <unicode hex="0D3B"/>
  <outline>
    <contour>
      <point x="-593" y="1648" type="line"/>
      <point x="-593" y="1281" type="line"/>
      <point x="-559" y="1281" type="line"/>
      <point x="-559" y="1648" type="line"/>
    </contour>
  </outline>
</glyph>
<glyph name="circularviramasign.mlm" format="2">
  <unicode hex="0D3C"/>
  <outline>
    <contour>
      <point x="-239" y="1412" type="line" smooth="yes"/>
      <point x="-239" y="1273.3"/>
      <point x="-158" y="1199"/>
      <point x="-10" y="1199" type="curve" smooth="yes"/>
      <point x="139" y="1199"/>
      <point x="220" y="1273.3"/>
      <point x="220" y="1412" type="curve" smooth="yes"/>
      <point x="220" y="1429" type="line" smooth="yes"/>
      <point x="220" y="1568.69"/>
      <point x="139" y="1643"/>
      <point x="-10" y="1643" type="curve" smooth="yes"/>
      <point x="-158" y="1643"/>
      <point x="-239" y="1568.69"/>
      <point x="-239" y="1429" type="curve" smooth="yes"/>
    </contour>
    <contour>
      <point x="186" y="1412" type="line" smooth="yes"/>
      <point x="186" y="1296.29"/>
      <point x="116" y="1232"/>
      <point x="-10" y="1232" type="curve" smooth="yes" name="n03"/>
      <point x="-136" y="1232"/>
      <point x="-204" y="1296.29"/>
      <point x="-204" y="1412" type="curve" smooth="yes"/>
      <point x="-204" y="1429" type="line" smooth="yes"/>
      <point x="-204" y="1545.71"/>
      <point x="-136" y="1610"/>
      <point x="-10" y="1610" type="curve" smooth="yes" name="n03"/>
      <point x="116" y="1610"/>
      <point x="186" y="1545.71"/>
      <point x="186" y="1429" type="curve" smooth="yes"/>
    </contour>
  </outline>
</glyph>
<glyph name="matraA.mlm" format="2">
  <advance width="866"/>
  <unicode hex="0D3E"/>
  <outline>
    <contour>
      <point x="363" y="8" type="curve" smooth="yes"/>
      <point x="251" y="8"/>
      <point x="166" y="42"/>
      <point x="89" y="104" type="curve"/>
      <point x="96" y="60" type="line"/>
      <point x="163" y="8"/>
      <point x="250" y="-26"/>
      <point x="362" y="-26" type="curve" smooth="yes"/>
      <point x="594" y="-26"/>
      <point x="708" y="119.373"/>
      <point x="708" y="405" type="curve" smooth="yes"/>
      <point x="708" y="743" type="line" smooth="yes"/>
      <point x="708" y="1029.67"/>
      <point x="593" y="1173"/>
      <point x="359" y="1173" type="curve" smooth="yes"/>
      <point x="248" y="1173"/>
      <point x="164" y="1141"/>
      <point x="98" y="1091" type="curve"/>
      <point x="91" y="1049" type="line"/>
      <point x="167" y="1106"/>
      <point x="250" y="1139"/>
      <point x="360" y="1139" type="curve" smooth="yes"/>
      <point x="570" y="1139"/>
      <point x="671" y="1006.68"/>
      <point x="671" y="741" type="curve" smooth="yes"/>
      <point x="671" y="407" type="line" smooth="yes"/>
      <point x="671" y="141.342"/>
      <point x="570" y="8"/>
    </contour>
  </outline>
</glyph>
<glyph name="matraI.mlm" format="2">
  <advance width="465"/>
  <unicode hex="0D3F"/>
  <outline>
    <contour>
      <point x="271" y="0" type="line"/>
      <point x="271" y="1207" type="line" smooth="yes"/>
      <point x="271" y="1454.69"/>
      <point x="169.66" y="1577"/>
      <point x="-36" y="1577" type="curve" smooth="yes"/>
      <point x="-170.748" y="1577"/>
      <point x="-277.785" y="1526"/>
      <point x="-359" y="1465" type="curve"/>
      <point x="-368" y="1419" type="line"/>
      <point x="-280.821" y="1487"/>
      <point x="-169.796" y="1543"/>
      <point x="-37" y="1543" type="curve" smooth="yes"/>
      <point x="145.652" y="1543"/>
      <point x="234" y="1432.74"/>
      <point x="234" y="1205" type="curve" smooth="yes"/>
      <point x="234" y="0" type="line"/>
    </contour>
  </outline>
</glyph>
<glyph name="matraRru.mlm" format="2">
  <advance width="481"/>
  <unicode hex="0D44"/>
  <outline>
    <contour>
      <point x="445" y="-126" type="line"/>
      <point x="422" y="-80"/>
      <point x="381" y="-54"/>
      <point x="319" y="-54" type="curve" smooth="yes"/>
      <point x="234" y="-54"/>
      <point x="183" y="-97"/>
      <point x="169" y="-171" type="curve"/>
      <point x="167" y="-171" type="line"/>
      <point x="154" y="-97"/>
      <point x="101" y="-54"/>
      <point x="9" y="-54" type="curve" smooth="yes"/>
      <point x="-107" y="-54"/>
      <point x="-171" y="-120"/>
      <point x="-171" y="-236" type="curve" smooth="yes"/>
      <point x="-171" y="-249" type="line" smooth="yes"/>
      <point x="-171" y="-412"/>
      <point x="-58" y="-503"/>
      <point x="152" y="-503" type="curve" smooth="yes" name="n03"/>
      <point x="363" y="-503"/>
      <point x="477" y="-404"/>
      <point x="477" y="-215" type="curve" smooth="yes"/>
      <point x="477" y="-198" type="line" smooth="yes"/>
      <point x="477" y="88"/>
      <point x="230" y="316"/>
      <point x="230" y="704" type="curve" smooth="yes"/>
      <point x="230" y="867"/>
      <point x="252" y="1005"/>
      <point x="291" y="1149" type="curve"/>
      <point x="257" y="1149" type="line"/>
      <point x="212" y="1005"/>
      <point x="193" y="867"/>
      <point x="193" y="704" type="curve" smooth="yes"/>
      <point x="193" y="354"/>
      <point x="378" y="135"/>
      <point x="434" y="-106" type="curve"/>
      <point x="432" y="-107" type="line"/>
      <point x="434" y="-121" type="line"/>
      <point x="439" y="-148"/>
      <point x="440" y="-173"/>
      <point x="440" y="-199" type="curve" smooth="yes"/>
      <point x="440" y="-215" type="line" smooth="yes"/>
      <point x="440" y="-380"/>
      <point x="339" y="-469"/>
      <point x="152" y="-469" type="curve" smooth="yes"/>
      <point x="-34" y="-469"/>
      <point x="-134" y="-392"/>
      <point x="-134" y="-249" type="curve" smooth="yes"/>
      <point x="-134" y="-236" type="line" smooth="yes"/>
      <point x="-134" y="-142"/>
      <point x="-83" y="-88"/>
      <point x="11" y="-88" type="curve" smooth="yes"/>
      <point x="109" y="-88"/>
      <point x="148" y="-144"/>
      <point x="150" y="-229" type="curve" smooth="yes"/>
      <point x="151" y="-294" type="line"/>
      <point x="185" y="-294" type="line"/>
      <point x="186" y="-229" type="line" smooth="yes"/>
      <point x="189" y="-144"/>
      <point x="226" y="-88"/>
      <point x="319" y="-88" type="curve" smooth="yes"/>
      <point x="378" y="-88"/>
      <point x="416" y="-110"/>
      <point x="438" y="-148" type="curve"/>
    </contour>
  </outline>
</glyph>
<glyph name="matraE.mlm" format="2">
  <advance width="897"/>
  <unicode hex="0D47"/>
  <outline>
    <contour>
      <point x="201" y="794" type="line"/>
      <point x="212" y="794" type="line"/>
      <point x="201" y="818" type="line"/>
      <point x="201" y="869" type="line" smooth="yes"/>
      <point x="201" y="1047.63"/>
      <point x="293" y="1141"/>
      <point x="474" y="1141" type="curve" smooth="yes"/>
      <point x="641" y="1141"/>
      <point x="730" y="1060.61"/>
      <point x="730" y="910" type="curve" smooth="yes"/>
      <point x="730" y="900" type="line" smooth="yes"/>
      <point x="730" y="757.395"/>
      <point x="643" y="681"/>
      <point x="479" y="681" type="curve" smooth="yes"/>
      <point x="346" y="681"/>
      <point x="246" y="740"/>
      <point x="201" y="841" type="curve"/>
      <point x="187" y="827" type="line"/>
      <point x="223" y="720"/>
      <point x="331" y="647"/>
      <point x="481" y="647" type="curve" smooth="yes"/>
      <point x="664" y="647"/>
      <point x="767" y="737.441"/>
      <point x="767" y="898" type="curve" smooth="yes"/>
      <point x="767" y="910" type="line" smooth="yes"/>
      <point x="767" y="1081.59"/>
      <point x="665" y="1175"/>
      <point x="474" y="1175" type="curve" smooth="yes"/>
      <point x="268" y="1175"/>
      <point x="165" y="1070.64"/>
      <point x="165" y="869" type="curve" smooth="yes"/>
      <point x="165" y="281" type="line" smooth="yes"/>
      <point x="165" y="80.3861"/>
      <point x="269" y="-26"/>
      <point x="474" y="-26" type="curve" smooth="yes"/>
      <point x="665" y="-26"/>
      <point x="767" y="67.41"/>
      <point x="767" y="239" type="curve" smooth="yes"/>
      <point x="767" y="253" type="line" smooth="yes"/>
      <point x="767" y="415.581"/>
      <point x="664" y="505"/>
      <point x="481" y="505" type="curve" smooth="yes"/>
      <point x="331" y="505"/>
      <point x="223" y="431"/>
      <point x="187" y="324" type="curve"/>
      <point x="201" y="311" type="line"/>
      <point x="246" y="413"/>
      <point x="346" y="471"/>
      <point x="479" y="471" type="curve" smooth="yes"/>
      <point x="643" y="471"/>
      <point x="730" y="393.593"/>
      <point x="730" y="251" type="curve" smooth="yes"/>
      <point x="730" y="239" type="line" smooth="yes"/>
      <point x="730" y="89.4097"/>
      <point x="641" y="8"/>
      <point x="474" y="8" type="curve" smooth="yes"/>
      <point x="294" y="8"/>
      <point x="201" y="102.383"/>
      <point x="201" y="281" type="curve" smooth="yes"/>
      <point x="201" y="334" type="line"/>
      <point x="213" y="357" type="line"/>
      <point x="201" y="357" type="line"/>
    </contour>
  </outline>
</glyph>
<glyph name="parasign.mlm" format="2">
  <advance width="2383"/>
  <unicode hex="0D4F"/>
  <outline>
    <contour>
      <point x="192" y="417" type="curve" smooth="yes"/>
      <point x="192" y="545" type="line" smooth="yes"/>
      <point x="192" y="829.545"/>
      <point x="272" y="1012.74"/>
      <point x="408" y="1149" type="curve"/>
      <point x="365" y="1149" type="line"/>
      <point x="233" y="1013.76"/>
      <point x="155" y="827.503"/>
      <point x="155" y="546" type="curve" smooth="yes"/>
      <point x="155" y="417" type="line" smooth="yes"/>
      <point x="155" y="-115.633"/>
      <point x="492" y="-386"/>
      <point x="1203" y="-386" type="curve" smooth="yes"/>
      <point x="1900" y="-386"/>
      <point x="2226" y="-115.7"/>
      <point x="2226" y="433" type="curve" smooth="yes"/>
      <point x="2226" y="707" type="line" smooth="yes"/>
      <point x="2226" y="1015.62"/>
      <point x="2106" y="1173"/>
      <point x="1851" y="1173" type="curve" smooth="yes"/>
      <point x="1666" y="1173"/>
      <point x="1554" y="1082"/>
      <point x="1526" y="889" type="curve"/>
      <point x="1516" y="889" type="line"/>
      <point x="1516" y="582" type="line"/>
      <point x="1546" y="581" type="line"/>
      <point x="1546" y="788" type="line" smooth="yes"/>
      <point x="1546" y="1021"/>
      <point x="1648" y="1139"/>
      <point x="1850" y="1139" type="curve" smooth="yes"/>
      <point x="2080" y="1139"/>
      <point x="2189" y="993.635"/>
      <point x="2189" y="707" type="curve" smooth="yes"/>
      <point x="2189" y="433" type="line" smooth="yes"/>
      <point x="2189" y="-94.7226"/>
      <point x="1871" y="-352"/>
      <point x="1203" y="-352" type="curve" smooth="yes"/>
      <point x="521" y="-352"/>
      <point x="192" y="-94.6535"/>
    </contour>
    <contour>
      <point x="1509" y="5" type="line"/>
      <point x="1546" y="5" type="line"/>
      <point x="1546" y="700" type="line"/>
      <point x="1509" y="700" type="line"/>
    </contour>
    <contour>
      <point x="1079" y="1173" type="curve" smooth="yes"/>
      <point x="744" y="1173"/>
      <point x="580" y="983.345"/>
      <point x="580" y="603" type="curve" smooth="yes"/>
      <point x="580" y="339" type="line" smooth="yes"/>
      <point x="580" y="94.6056"/>
      <point x="682" y="-21"/>
      <point x="879" y="-21" type="curve" smooth="yes"/>
      <point x="1065" y="-21"/>
      <point x="1163" y="91.7344"/>
      <point x="1163" y="304" type="curve" smooth="yes"/>
      <point x="1163" y="439" type="line" smooth="yes"/>
      <point x="1163" y="637.261"/>
      <point x="1065" y="743"/>
      <point x="889" y="743" type="curve" smooth="yes"/>
      <point x="744" y="743"/>
      <point x="637" y="662"/>
      <point x="603" y="543" type="curve"/>
      <point x="617" y="529" type="line"/>
      <point x="663" y="644"/>
      <point x="755" y="709"/>
      <point x="887" y="709" type="curve" smooth="yes"/>
      <point x="1042" y="709"/>
      <point x="1126" y="617.315"/>
      <point x="1126" y="437" type="curve" smooth="yes"/>
      <point x="1126" y="304" type="line" smooth="yes"/>
      <point x="1126" y="108.643"/>
      <point x="1041" y="13"/>
      <point x="879" y="13" type="curve" smooth="yes"/>
      <point x="706" y="13"/>
      <point x="617" y="115.573"/>
      <point x="617" y="339" type="curve" smooth="yes"/>
      <point x="617" y="555" type="line"/>
      <point x="633" y="581" type="line"/>
      <point x="617" y="581" type="line"/>
      <point x="617" y="603" type="line" smooth="yes"/>
      <point x="617" y="962.411"/>
      <point x="769" y="1139"/>
      <point x="1079" y="1139" type="curve" smooth="yes"/>
      <point x="1365" y="1139"/>
      <point x="1509" y="1006"/>
      <point x="1509" y="760" type="curve" smooth="yes"/>
      <point x="1509" y="611" type="line"/>
      <point x="1524" y="611" type="line"/>
      <point x="1523" y="889" type="line"/>
      <point x="1479" y="1080"/>
      <point x="1317" y="1173"/>
    </contour>
  </outline>
</glyph>
<glyph name="chilluM.mlm" format="2">
  <advance width="1332"/>
  <unicode hex="0D54"/>
  <outline>
    <contour>
      <point x="203" y="32" type="line"/>
      <point x="201" y="0" type="line"/>
      <point x="1139" y="0" type="line"/>
      <point x="1139" y="32" type="line"/>
    </contour>
    <contour>
      <point x="1148" y="656" type="line" smooth="yes"/>
      <point x="1148" y="990.298"/>
      <point x="999" y="1048.22"/>
      <point x="999" y="1287" type="curve" smooth="yes"/>
      <point x="999" y="1368.03"/>
      <point x="1012" y="1442.99"/>
      <point x="1050" y="1522" type="curve"/>
      <point x="1015" y="1522" type="line"/>
      <point x="980" y="1447.04"/>
      <point x="963" y="1370.05"/>
      <point x="963" y="1288" type="curve" smooth="yes"/>
      <point x="963" y="1189.82"/>
      <point x="990.871" y="1113.9"/>
      <point x="1027" y="1039" type="curve"/>
      <point x="1025" y="1037" type="line"/>
      <point x="954.608" y="1133.09"/>
      <point x="825.891" y="1175"/>
      <point x="666" y="1175" type="curve" smooth="yes"/>
      <point x="344" y="1175"/>
      <point x="184" y="999.621"/>
      <point x="184" y="656" type="curve" smooth="yes"/>
      <point x="184" y="0" type="line"/>
      <point x="221" y="0" type="line"/>
      <point x="221" y="656" type="line" smooth="yes"/>
      <point x="221" y="978.653"/>
      <point x="367" y="1141"/>
      <point x="666" y="1141" type="curve" smooth="yes"/>
      <point x="964" y="1141"/>
      <point x="1111" y="979.674"/>
      <point x="1111" y="656" type="curve" smooth="yes"/>
      <point x="1111" y="0" type="line"/>
      <point x="1148" y="0" type="line"/>
    </contour>
    <contour>
      <point x="753" y="698" type="line" smooth="yes"/>
      <point x="753" y="938.912"/>
      <point x="647.547" y="1065"/>
      <point x="450" y="1065" type="curve" smooth="yes"/>
      <point x="407.364" y="1065"/>
      <point x="360.667" y="1056.75"/>
      <point x="316" y="1037" type="curve"/>
      <point x="309" y="1009" type="line"/>
      <point x="355.951" y="1028.57"/>
      <point x="400.978" y="1034"/>
      <point x="445" y="1034" type="curve" smooth="yes"/>
      <point x="621.652" y="1034"/>
      <point x="716" y="920.785"/>
      <point x="716" y="697" type="curve" smooth="yes"/>
      <point x="716" y="674" type="line" smooth="yes" name="n15"/>
      <point x="716" y="378.636"/>
      <point x="577.622" y="169.04"/>
      <point x="350" y="29" type="curve"/>
      <point x="388" y="16" type="line"/>
      <point x="612.615" y="149.852"/>
      <point x="753" y="374.689"/>
      <point x="753" y="673" type="curve" smooth="yes"/>
    </contour>
  </outline>
</glyph>
<glyph name="chilluY.mlm" format="2">
  <advance width="1851"/>
  <unicode hex="0D55"/>
  <outline>
    <contour>
      <point x="707" y="493" type="line" smooth="yes"/>
      <point x="726.665" y="273.111"/>
      <point x="806" y="124.059"/>
      <point x="950" y="45" type="curve"/>
      <point x="964" y="38" type="line" smooth="yes"/>
      <point x="1044.29" y="-2.14403"/>
      <point x="1139" y="-27"/>
      <point x="1253" y="-27" type="curve" smooth="yes"/>
      <point x="1554" y="-27"/>
      <point x="1705" y="125"/>
      <point x="1705" y="426" type="curve" smooth="yes"/>
      <point x="1705" y="707.84"/>
      <point x="1587" y="948.41"/>
      <point x="1587" y="1192" type="curve" smooth="yes"/>
      <point x="1587" y="1309.77"/>
      <point x="1612" y="1413.2"/>
      <point x="1673" y="1532" type="curve"/>
      <point x="1635" y="1532" type="line"/>
      <point x="1577" y="1423.45"/>
      <point x="1550" y="1311.82"/>
      <point x="1550" y="1192" type="curve" smooth="yes"/>
      <point x="1550" y="947.403"/>
      <point x="1668" y="704.82"/>
      <point x="1668" y="426" type="curve" smooth="yes"/>
      <point x="1668" y="148"/>
      <point x="1531" y="8"/>
      <point x="1253" y="8" type="curve" smooth="yes"/>
      <point x="1154" y="8"/>
      <point x="1069" y="25.0213"/>
      <point x="999" y="58" type="curve"/>
      <point x="987" y="63" type="line"/>
      <point x="840" y="135.164"/>
      <point x="762.261" y="281.632"/>
      <point x="743" y="497" type="curve" smooth="yes"/>
      <point x="710" y="866" type="line" smooth="yes"/>
      <point x="706.871" y="900.989"/>
      <point x="703" y="929"/>
      <point x="697" y="957" type="curve"/>
      <point x="695" y="965" type="line" smooth="yes"/>
      <point x="660" y="1104"/>
      <point x="583" y="1173"/>
      <point x="440" y="1173" type="curve" smooth="yes"/>
      <point x="257" y="1173"/>
      <point x="158" y="1049.51"/>
      <point x="158" y="819" type="curve" smooth="yes"/>
      <point x="158" y="527" type="line" smooth="yes"/>
      <point x="158" y="158.676"/>
      <point x="348" y="-27"/>
      <point x="701" y="-27" type="curve" smooth="yes"/>
      <point x="813" y="-27"/>
      <point x="906" y="-4.62295"/>
      <point x="984" y="38" type="curve"/>
      <point x="999" y="45" type="line"/>
      <point x="1100" y="106.304"/>
      <point x="1160.38" y="213.114"/>
      <point x="1200" y="327" type="curve" smooth="yes"/>
      <point x="1249.53" y="469.371"/>
      <point x="1279" y="651.771"/>
      <point x="1279" y="818" type="curve" smooth="yes"/>
      <point x="1279" y="1050.55"/>
      <point x="1175" y="1173"/>
      <point x="981" y="1173" type="curve" smooth="yes"/>
      <point x="831" y="1173"/>
      <point x="728" y="1094"/>
      <point x="689" y="982" type="curve"/>
      <point x="675" y="981" type="line"/>
      <point x="699" y="938" type="line"/>
      <point x="741" y="1064"/>
      <point x="835" y="1139"/>
      <point x="980" y="1139" type="curve" smooth="yes"/>
      <point x="1150" y="1139"/>
      <point x="1242" y="1029.59"/>
      <point x="1242" y="818" type="curve" smooth="yes"/>
      <point x="1242" y="661.559"/>
      <point x="1212.51" y="473.615"/>
      <point x="1167" y="341" type="curve" smooth="yes"/>
      <point x="1127.63" y="226.292"/>
      <point x="1070" y="118.173"/>
      <point x="964" y="64" type="curve"/>
      <point x="950" y="58" type="line"/>
      <point x="882" y="24.3043"/>
      <point x="797" y="8"/>
      <point x="701" y="8" type="curve" smooth="yes"/>
      <point x="370" y="8"/>
      <point x="195" y="181.673"/>
      <point x="195" y="527" type="curve" smooth="yes"/>
      <point x="195" y="819" type="line" smooth="yes"/>
      <point x="195" y="1027.52"/>
      <point x="281" y="1139"/>
      <point x="441" y="1139" type="curve" smooth="yes"/>
      <point x="590" y="1139"/>
      <point x="657.371" y="1047.94"/>
      <point x="674" y="862" type="curve" smooth="yes"/>
    </contour>
  </outline>
</glyph>
<glyph name="oneonehundredandsixtieth.mlm" format="2">
  <advance width="2256"/>
  <unicode hex="0D58"/>
  <outline>
    <contour>
      <point x="804" y="440" type="line"/>
      <point x="841" y="440" type="line"/>
      <point x="841" y="1140" type="line"/>
      <point x="804" y="1140" type="line"/>
    </contour>
    <contour>
      <point x="822" y="233" type="curve"/>
      <point x="822" y="580" type="line"/>
      <point x="804" y="580" type="line"/>
      <point x="804" y="358" type="line" smooth="yes"/>
      <point x="804" y="127"/>
      <point x="708" y="11"/>
      <point x="513" y="11" type="curve" smooth="yes"/>
      <point x="297" y="11"/>
      <point x="195" y="142.368"/>
      <point x="195" y="401" type="curve" smooth="yes"/>
      <point x="195" y="663" type="line" smooth="yes"/>
      <point x="195" y="884.386"/>
      <point x="259" y="1032.67"/>
      <point x="367" y="1145" type="curve"/>
      <point x="321" y="1145" type="line"/>
      <point x="218" y="1032.66"/>
      <point x="158" y="885.395"/>
      <point x="158" y="664" type="curve" smooth="yes"/>
      <point x="158" y="401" type="line" smooth="yes"/>
      <point x="158" y="120.382"/>
      <point x="272" y="-23"/>
      <point x="512" y="-23" type="curve" smooth="yes"/>
      <point x="689" y="-23"/>
      <point x="794" y="67"/>
    </contour>
    <contour>
      <point x="1124" y="-23" type="curve" smooth="yes"/>
      <point x="1296" y="-23"/>
      <point x="1397" y="66"/>
      <point x="1423" y="233" type="curve"/>
      <point x="1435" y="233" type="line"/>
      <point x="1435" y="563" type="line"/>
      <point x="1405" y="586" type="line"/>
      <point x="1405" y="358" type="line" smooth="yes"/>
      <point x="1405" y="127"/>
      <point x="1313" y="11"/>
      <point x="1124" y="11" type="curve" smooth="yes"/>
      <point x="936" y="11"/>
      <point x="841" y="127"/>
      <point x="841" y="358" type="curve" smooth="yes"/>
      <point x="841" y="586" type="line"/>
      <point x="813" y="563" type="line"/>
      <point x="813" y="233" type="line"/>
      <point x="824" y="233" type="line"/>
      <point x="850" y="66"/>
      <point x="953" y="-23"/>
    </contour>
    <contour>
      <point x="1442" y="440" type="line"/>
      <point x="1442" y="1140" type="line"/>
      <point x="1405" y="1140" type="line"/>
      <point x="1405" y="440" type="line"/>
    </contour>
    <contour>
      <point x="2061" y="437" type="line" smooth="yes"/>
      <point x="2061" y="155.389"/>
      <point x="1957" y="11"/>
      <point x="1738" y="11" type="curve" smooth="yes"/>
      <point x="1540" y="11"/>
      <point x="1442" y="127"/>
      <point x="1442" y="358" type="curve" smooth="yes"/>
      <point x="1442" y="580" type="line"/>
      <point x="1424" y="580" type="line"/>
      <point x="1425" y="233" type="line"/>
      <point x="1453" y="67"/>
      <point x="1560" y="-23"/>
      <point x="1739" y="-23" type="curve" smooth="yes"/>
      <point x="1983" y="-23"/>
      <point x="2098" y="133.4"/>
      <point x="2098" y="437" type="curve" smooth="yes"/>
      <point x="2098" y="725" type="line" smooth="yes"/>
      <point x="2098" y="1222.6"/>
      <point x="1834" y="1479"/>
      <point x="1309" y="1479" type="curve" smooth="yes"/>
      <point x="1121" y="1479"/>
      <point x="954" y="1452"/>
      <point x="803" y="1397" type="curve"/>
      <point x="790" y="1358" type="line"/>
      <point x="941" y="1414"/>
      <point x="1117" y="1445"/>
      <point x="1309" y="1445" type="curve" smooth="yes"/>
      <point x="1808" y="1445"/>
      <point x="2061" y="1200.61"/>
      <point x="2061" y="725" type="curve" smooth="yes"/>
    </contour>
  </outline>
</glyph>
<glyph name="onefortieth.mlm" format="2">
  <advance width="1962"/>
  <unicode hex="0D59"/>
  <outline>
    <contour>
      <point x="677" y="1141" type="curve" smooth="yes"/>
      <point x="996" y="1141"/>
      <point x="1150" y="956.402"/>
      <point x="1150" y="628" type="curve" smooth="yes"/>
      <point x="1150" y="330" type="line" smooth="yes"/>
      <point x="1150" y="114.603"/>
      <point x="1060" y="13"/>
      <point x="897" y="13" type="curve" smooth="yes"/>
      <point x="734" y="13"/>
      <point x="645" y="106.661"/>
      <point x="645" y="295" type="curve" smooth="yes"/>
      <point x="645" y="400" type="line" smooth="yes"/>
      <point x="645" y="580.242"/>
      <point x="732" y="678"/>
      <point x="915" y="678" type="curve" smooth="yes"/>
      <point x="1161" y="678" type="line"/>
      <point x="1171" y="710" type="line"/>
      <point x="913" y="710" type="line" smooth="yes"/>
      <point x="709" y="710"/>
      <point x="608" y="601.234"/>
      <point x="608" y="402" type="curve" smooth="yes"/>
      <point x="608" y="295" type="line" smooth="yes"/>
      <point x="608" y="86.7042"/>
      <point x="709" y="-21"/>
      <point x="897" y="-21" type="curve" smooth="yes"/>
      <point x="1085" y="-21"/>
      <point x="1187" y="91.604"/>
      <point x="1187" y="330" type="curve" smooth="yes"/>
      <point x="1187" y="627" type="line" smooth="yes"/>
      <point x="1187" y="982.487"/>
      <point x="1018" y="1175"/>
      <point x="677" y="1175" type="curve" smooth="yes"/>
      <point x="325" y="1175"/>
      <point x="156" y="988.599"/>
      <point x="156" y="627" type="curve" smooth="yes"/>
      <point x="156" y="439" type="line" smooth="yes"/>
      <point x="156" y="242.758"/>
      <point x="205" y="103.354"/>
      <point x="289" y="0" type="curve"/>
      <point x="335" y="0" type="line"/>
      <point x="246" y="103.349"/>
      <point x="193" y="243.767"/>
      <point x="193" y="440" type="curve" smooth="yes"/>
      <point x="193" y="627" type="line" smooth="yes"/>
      <point x="193" y="967.627"/>
      <point x="350" y="1141"/>
    </contour>
    <contour>
      <point x="1430" y="702" type="line"/>
      <point x="1430" y="904" type="line" smooth="yes"/>
      <point x="1430" y="1055"/>
      <point x="1503" y="1132"/>
      <point x="1647" y="1132" type="curve" smooth="yes"/>
      <point x="1779" y="1132"/>
      <point x="1850" y="1056"/>
      <point x="1850" y="920" type="curve" smooth="yes"/>
      <point x="1850" y="906" type="line" smooth="yes"/>
      <point x="1850" y="776"/>
      <point x="1782" y="710"/>
      <point x="1643" y="710" type="curve" smooth="yes"/>
      <point x="1164" y="710" type="line"/>
      <point x="1167" y="678" type="line"/>
      <point x="1646" y="678" type="line" smooth="yes"/>
      <point x="1803" y="678"/>
      <point x="1887" y="754"/>
      <point x="1887" y="904" type="curve" smooth="yes"/>
      <point x="1887" y="920" type="line" smooth="yes"/>
      <point x="1887" y="1078"/>
      <point x="1804" y="1166"/>
      <point x="1647" y="1166" type="curve" smooth="yes"/>
      <point x="1480" y="1166"/>
      <point x="1394" y="1079"/>
      <point x="1394" y="906" type="curve" smooth="yes"/>
      <point x="1394" y="703" type="line"/>
    </contour>
  </outline>
</glyph>
<glyph name="threeeightieths.mlm" format="2">
  <advance width="1980"/>
  <unicode hex="0D5A"/>
  <outline>
    <contour>
      <point x="526" y="1139" type="curve" smooth="yes"/>
      <point x="731" y="1139"/>
      <point x="833" y="1021"/>
      <point x="833" y="788" type="curve" smooth="yes"/>
      <point x="833" y="559" type="line"/>
      <point x="852" y="559" type="line"/>
      <point x="859" y="848" type="line"/>
      <point x="844" y="1073"/>
      <point x="721" y="1173"/>
      <point x="525" y="1173" type="curve" smooth="yes"/>
      <point x="278" y="1173"/>
      <point x="158" y="1027.63"/>
      <point x="158" y="742" type="curve" smooth="yes"/>
      <point x="158" y="475" type="line" smooth="yes"/>
      <point x="158" y="255.591"/>
      <point x="215" y="110.323"/>
      <point x="314" y="0" type="curve"/>
      <point x="362" y="0" type="line"/>
      <point x="257" y="109.296"/>
      <point x="195" y="257.622"/>
      <point x="195" y="476" type="curve" smooth="yes"/>
      <point x="195" y="742" type="line" smooth="yes"/>
      <point x="195" y="1004.61"/>
      <point x="305" y="1139"/>
    </contour>
    <contour>
      <point x="849" y="848" type="line"/>
      <point x="833" y="629" type="line"/>
      <point x="833" y="0" type="line"/>
      <point x="870" y="0" type="line"/>
      <point x="870" y="664" type="line" smooth="yes"/>
      <point x="870" y="980"/>
      <point x="1015" y="1139"/>
      <point x="1315" y="1139" type="curve" smooth="yes"/>
      <point x="1613" y="1139"/>
      <point x="1759" y="976.653"/>
      <point x="1759" y="654" type="curve" smooth="yes"/>
      <point x="1759" y="0" type="line"/>
      <point x="1796" y="0" type="line"/>
      <point x="1796" y="654" type="line" smooth="yes"/>
      <point x="1796" y="997.621"/>
      <point x="1637" y="1173"/>
      <point x="1315" y="1173" type="curve" smooth="yes"/>
      <point x="1066" y="1173"/>
      <point x="910" y="1067"/>
      <point x="861" y="848" type="curve"/>
    </contour>
    <contour>
      <point x="850" y="32" type="line"/>
      <point x="848" y="0" type="line"/>
      <point x="1787" y="0" type="line"/>
      <point x="1787" y="32" type="line"/>
    </contour>
    <contour>
      <point x="1401" y="698" type="line" smooth="yes"/>
      <point x="1401" y="938.912"/>
      <point x="1295.55" y="1065"/>
      <point x="1098" y="1065" type="curve" smooth="yes"/>
      <point x="1055.36" y="1065"/>
      <point x="1008.67" y="1056.75"/>
      <point x="964" y="1037" type="curve"/>
      <point x="957" y="1009" type="line"/>
      <point x="1003.95" y="1028.57"/>
      <point x="1048.98" y="1034"/>
      <point x="1093" y="1034" type="curve" smooth="yes"/>
      <point x="1269.65" y="1034"/>
      <point x="1364" y="920.785"/>
      <point x="1364" y="697" type="curve" smooth="yes"/>
      <point x="1364" y="674" type="line" smooth="yes" name="n15"/>
      <point x="1364" y="378.636"/>
      <point x="1225.62" y="169.04"/>
      <point x="998" y="29" type="curve"/>
      <point x="1036" y="16" type="line"/>
      <point x="1260.62" y="149.852"/>
      <point x="1401" y="374.689"/>
      <point x="1401" y="673" type="curve" smooth="yes"/>
    </contour>
  </outline>
</glyph>
<glyph name="vowelRuu.mlm" format="2">
  <advance width="1578"/>
  <unicode hex="0D60"/>
  <outline>
    <contour>
      <point x="872" y="-220" type="line" smooth="yes"/>
      <point x="1179.64" y="-220"/>
      <point x="1335" y="-134.24"/>
      <point x="1335" y="48" type="curve" smooth="yes"/>
      <point x="1335" y="199.271"/>
      <point x="1229.47" y="278.148"/>
      <point x="1036" y="303" type="curve"/>
      <point x="1036" y="308" type="line"/>
      <point x="873" y="318" type="line"/>
      <point x="705" y="318" type="line"/>
      <point x="544" y="307" type="line"/>
      <point x="544" y="303" type="line"/>
      <point x="349.54" y="277.068"/>
      <point x="243" y="199.271"/>
      <point x="243" y="48" type="curve" smooth="yes"/>
      <point x="243" y="-134.24"/>
      <point x="398.363" y="-220"/>
      <point x="705" y="-220" type="curve" smooth="yes"/>
    </contour>
    <contour>
      <point x="873" y="285" type="line" smooth="yes"/>
      <point x="1152.59" y="285"/>
      <point x="1297" y="213.248"/>
      <point x="1297" y="48" type="curve" smooth="yes"/>
      <point x="1297" y="-113.359"/>
      <point x="1152.59" y="-187"/>
      <point x="873" y="-187" type="curve" smooth="yes"/>
      <point x="706" y="-187" type="line" smooth="yes"/>
      <point x="425.398" y="-187"/>
      <point x="281" y="-113.359"/>
      <point x="281" y="48" type="curve" smooth="yes"/>
      <point x="281" y="213.248"/>
      <point x="426.404" y="285"/>
      <point x="706" y="285" type="curve" smooth="yes"/>
    </contour>
    <contour>
      <point x="642" y="155" type="curve" smooth="yes"/>
      <point x="530" y="155"/>
      <point x="472" y="93"/>
      <point x="472" y="-13" type="curve" smooth="yes"/>
      <point x="472" y="-34" type="line"/>
      <point x="507" y="-35" type="line"/>
      <point x="507" y="-13" type="line" smooth="yes"/>
      <point x="507" y="75"/>
      <point x="555" y="124"/>
      <point x="642" y="124" type="curve" smooth="yes"/>
      <point x="730" y="124"/>
      <point x="767" y="75"/>
      <point x="773" y="-6" type="curve"/>
      <point x="774" y="-32" type="line"/>
      <point x="806" y="-32" type="line"/>
      <point x="808" y="-6" type="line" smooth="yes"/>
      <point x="814.229" y="74.9827"/>
      <point x="851" y="124"/>
      <point x="938" y="124" type="curve" smooth="yes"/>
      <point x="1026" y="124"/>
      <point x="1074" y="75"/>
      <point x="1074" y="-13" type="curve" smooth="yes"/>
      <point x="1074" y="-35" type="line"/>
      <point x="1109" y="-34" type="line"/>
      <point x="1109" y="-13" type="line" smooth="yes"/>
      <point x="1109" y="93"/>
      <point x="1051" y="155"/>
      <point x="938" y="155" type="curve" smooth="yes"/>
      <point x="851" y="155"/>
      <point x="804" y="115"/>
      <point x="791" y="49" type="curve"/>
      <point x="790" y="49" type="line"/>
      <point x="778" y="115"/>
      <point x="730" y="155"/>
    </contour>
    <contour>
      <point x="1406.92" y="716.205" type="line"/>
      <point x="1407.45" y="462.63"/>
      <point x="1217.2" y="318"/>
      <point x="844" y="318" type="curve"/>
      <point x="986" y="298" type="line"/>
      <point x="1004" y="299"/>
      <point x="1020" y="302"/>
      <point x="1036" y="304" type="curve"/>
      <point x="1308.7" y="343.919"/>
      <point x="1443" y="492.644"/>
      <point x="1443" y="726" type="curve" smooth="yes"/>
      <point x="1443" y="859" type="line" smooth="yes"/>
      <point x="1443" y="1061.22"/>
      <point x="1352" y="1173"/>
      <point x="1167" y="1173" type="curve" smooth="yes"/>
      <point x="997" y="1173"/>
      <point x="903" y="1075.28"/>
      <point x="903" y="889" type="curve" smooth="yes"/>
      <point x="903" y="820" type="line" smooth="yes"/>
      <point x="903" y="654.093"/>
      <point x="998" y="559"/>
      <point x="1161" y="559" type="curve" smooth="yes"/>
      <point x="1296" y="559"/>
      <point x="1388" y="639.92"/>
      <point x="1421" y="753" type="curve"/>
      <point x="1407" y="768" type="line"/>
      <point x="1366" y="656.526"/>
      <point x="1281" y="593"/>
      <point x="1162" y="593" type="curve" smooth="yes"/>
      <point x="1018" y="593"/>
      <point x="940" y="673.049"/>
      <point x="940" y="822" type="curve" smooth="yes"/>
      <point x="940" y="889" type="line" smooth="yes"/>
      <point x="940" y="1055.33"/>
      <point x="1023" y="1139"/>
      <point x="1167" y="1139" type="curve" smooth="yes"/>
      <point x="1327" y="1139"/>
      <point x="1407" y="1039.22"/>
      <point x="1407" y="859" type="curve" smooth="yes"/>
      <point x="1407" y="744" type="line"/>
      <point x="1396" y="716" type="line"/>
      <point x="1407" y="716" type="line"/>
    </contour>
    <contour>
      <point x="735.282" y="318" type="line"/>
      <point x="362.084" y="318"/>
      <point x="171.827" y="462.63"/>
      <point x="172.364" y="716.205" type="curve"/>
      <point x="172.282" y="716" type="line"/>
      <point x="183.282" y="716" type="line"/>
      <point x="172.282" y="744" type="line"/>
      <point x="172.282" y="859" type="line" smooth="yes"/>
      <point x="172.282" y="1039.22"/>
      <point x="252.282" y="1139"/>
      <point x="412.282" y="1139" type="curve" smooth="yes"/>
      <point x="556.282" y="1139"/>
      <point x="639.282" y="1055.33"/>
      <point x="639.282" y="889" type="curve" smooth="yes"/>
      <point x="639.282" y="822" type="line" smooth="yes"/>
      <point x="639.282" y="673.049"/>
      <point x="561.282" y="593"/>
      <point x="417.282" y="593" type="curve" smooth="yes"/>
      <point x="298.282" y="593"/>
      <point x="213.282" y="656.526"/>
      <point x="172.282" y="768" type="curve"/>
      <point x="158.282" y="753" type="line"/>
      <point x="191.282" y="639.92"/>
      <point x="283.282" y="559"/>
      <point x="418.282" y="559" type="curve" smooth="yes"/>
      <point x="581.282" y="559"/>
      <point x="676.282" y="654.093"/>
      <point x="676.282" y="820" type="curve" smooth="yes"/>
      <point x="676.282" y="889" type="line" smooth="yes"/>
      <point x="676.282" y="1075.28"/>
      <point x="582.282" y="1173"/>
      <point x="412.282" y="1173" type="curve" smooth="yes"/>
      <point x="227.282" y="1173"/>
      <point x="136.282" y="1061.22"/>
      <point x="136.282" y="859" type="curve" smooth="yes"/>
      <point x="136.282" y="726" type="line" smooth="yes"/>
      <point x="136.282" y="492.644"/>
      <point x="270.912" y="343.919"/>
      <point x="544.282" y="304" type="curve"/>
      <point x="559.962" y="302"/>
      <point x="575.642" y="299"/>
      <point x="593.282" y="298" type="curve"/>
    </contour>
  </outline>
</glyph>
<glyph name="vowelLruu.mlm" format="2">
  <advance width="2592"/>
  <unicode hex="0D61"/>
  <outline>
    <contour>
      <point x="2005" y="842" type="line"/>
      <point x="2273.99" y="819.112"/>
      <point x="2409" y="669.748"/>
      <point x="2409" y="369" type="curve" smooth="yes"/>
      <point x="2409" y="239" type="line" smooth="yes"/>
      <point x="2409" y="-96.902"/>
      <point x="2239.61" y="-269"/>
      <point x="1909" y="-269" type="curve" smooth="yes"/>
      <point x="1774" y="-269"/>
      <point x="1663" y="-250"/>
      <point x="1565" y="-213" type="curve"/>
      <point x="1576" y="-251" type="line"/>
      <point x="1673" y="-285"/>
      <point x="1784" y="-303"/>
      <point x="1909" y="-303" type="curve" smooth="yes"/>
      <point x="2262.58" y="-303"/>
      <point x="2446" y="-116.817"/>
      <point x="2446" y="239" type="curve" smooth="yes"/>
      <point x="2446" y="370" type="line" smooth="yes"/>
      <point x="2446" y="684.237"/>
      <point x="2300.13" y="854.248"/>
      <point x="1997" y="877" type="curve"/>
    </contour>
    <contour>
      <point x="1551" y="1139" type="curve" smooth="yes"/>
      <point x="1769.95" y="1139"/>
      <point x="1913.27" y="1044"/>
      <point x="1970" y="870" type="curve"/>
      <point x="1975" y="856" type="line" smooth="yes"/>
      <point x="1995.46" y="798.711"/>
      <point x="2006" y="730.839"/>
      <point x="2006" y="658" type="curve" smooth="yes"/>
      <point x="2006" y="389" type="line" smooth="yes"/>
      <point x="2006" y="169.959"/>
      <point x="1917.71" y="67"/>
      <point x="1758" y="67" type="curve" smooth="yes"/>
      <point x="1596" y="67"/>
      <point x="1508" y="162.655"/>
      <point x="1508" y="356" type="curve" smooth="yes"/>
      <point x="1508" y="438" type="line" smooth="yes"/>
      <point x="1508" y="705.558"/>
      <point x="1650.33" y="846"/>
      <point x="1933" y="846" type="curve" smooth="yes"/>
      <point x="1955.03" y="846"/>
      <point x="1977.07" y="845"/>
      <point x="1997" y="842" type="curve"/>
      <point x="1986" y="877" type="line"/>
      <point x="1970.1" y="879"/>
      <point x="1953.14" y="880"/>
      <point x="1933" y="880" type="curve" smooth="yes"/>
      <point x="1626.33" y="880"/>
      <point x="1471" y="727.551"/>
      <point x="1471" y="438" type="curve" smooth="yes"/>
      <point x="1471" y="355" type="line" smooth="yes"/>
      <point x="1471" y="142.703"/>
      <point x="1571" y="33"/>
      <point x="1758" y="33" type="curve" smooth="yes"/>
      <point x="1942.7" y="33"/>
      <point x="2043" y="146.963"/>
      <point x="2043" y="388" type="curve" smooth="yes"/>
      <point x="2043" y="657" type="line" smooth="yes"/>
      <point x="2043" y="728.813"/>
      <point x="2034" y="795.497"/>
      <point x="2014" y="855" type="curve"/>
      <point x="2010" y="865" type="line"/>
      <point x="1951.26" y="1061"/>
      <point x="1801.91" y="1173"/>
      <point x="1551" y="1173" type="curve" smooth="yes"/>
      <point x="1306" y="1173"/>
      <point x="1145" y="1075"/>
      <point x="1106" y="864" type="curve"/>
      <point x="1096" y="864" type="line"/>
      <point x="1097" y="611" type="line"/>
      <point x="1124" y="611" type="line"/>
      <point x="1124" y="751" type="line" smooth="yes"/>
      <point x="1124" y="1002"/>
      <point x="1268" y="1139"/>
    </contour>
    <contour>
      <point x="655" y="1173" type="curve" smooth="yes"/>
      <point x="320" y="1173"/>
      <point x="156" y="983.345"/>
      <point x="156" y="603" type="curve" smooth="yes"/>
      <point x="156" y="339" type="line" smooth="yes"/>
      <point x="156" y="94.6056"/>
      <point x="258" y="-21"/>
      <point x="455" y="-21" type="curve" smooth="yes"/>
      <point x="641" y="-21"/>
      <point x="739" y="91.7344"/>
      <point x="739" y="304" type="curve" smooth="yes"/>
      <point x="739" y="439" type="line" smooth="yes"/>
      <point x="739" y="637.261"/>
      <point x="641" y="743"/>
      <point x="465" y="743" type="curve" smooth="yes"/>
      <point x="320" y="743"/>
      <point x="213" y="662"/>
      <point x="179" y="543" type="curve"/>
      <point x="193" y="529" type="line"/>
      <point x="239" y="644"/>
      <point x="331" y="709"/>
      <point x="463" y="709" type="curve" smooth="yes"/>
      <point x="618" y="709"/>
      <point x="702" y="617.315"/>
      <point x="702" y="437" type="curve" smooth="yes"/>
      <point x="702" y="304" type="line" smooth="yes"/>
      <point x="702" y="108.643"/>
      <point x="617" y="13"/>
      <point x="455" y="13" type="curve" smooth="yes"/>
      <point x="282" y="13"/>
      <point x="193" y="115.573"/>
      <point x="193" y="339" type="curve" smooth="yes"/>
      <point x="193" y="555" type="line"/>
      <point x="199" y="581" type="line"/>
      <point x="193" y="581" type="line"/>
      <point x="193" y="603" type="line" smooth="yes"/>
      <point x="193" y="962.411"/>
      <point x="345" y="1139"/>
      <point x="655" y="1139" type="curve" smooth="yes"/>
      <point x="941" y="1139"/>
      <point x="1087" y="1002"/>
      <point x="1087" y="751" type="curve" smooth="yes"/>
      <point x="1087" y="601" type="line"/>
      <point x="1102" y="601" type="line"/>
      <point x="1104" y="864" type="line"/>
      <point x="1064" y="1074"/>
      <point x="903" y="1173"/>
    </contour>
    <contour>
      <point x="1087" y="5" type="line"/>
      <point x="1124" y="5" type="line"/>
      <point x="1124" y="700" type="line"/>
      <point x="1087" y="700" type="line"/>
    </contour>
  </outline>
</glyph>
<glyph name="uni0D63" format="2">
  <unicode hex="0D63"/>
  <outline>
    <contour>
      <point x="-201" y="-102" type="curve"/>
      <point x="-191" y="-135" type="line"/>
      <point x="-42.8615" y="-153.08"/>
      <point x="45" y="-219.375"/>
      <point x="45" y="-360" type="curve" smooth="yes"/>
      <point x="45" y="-370" type="line" smooth="yes"/>
      <point x="45" y="-524"/>
      <point x="-63" y="-599"/>
      <point x="-267" y="-599" type="curve" smooth="yes"/>
      <point x="-352" y="-599"/>
      <point x="-421" y="-590"/>
      <point x="-485" y="-569" type="curve"/>
      <point x="-474" y="-603" type="line"/>
      <point x="-412" y="-622"/>
      <point x="-344" y="-631"/>
      <point x="-267" y="-631" type="curve" smooth="yes"/>
      <point x="-40" y="-631"/>
      <point x="79" y="-544"/>
      <point x="79" y="-371" type="curve" smooth="yes"/>
      <point x="79" y="-360" type="line" smooth="yes"/>
      <point x="79" y="-195.362"/>
      <point x="-26.8909" y="-118.062"/>
    </contour>
    <contour>
      <point x="-485" y="0" type="curve" smooth="yes"/>
      <point x="-354" y="0"/>
      <point x="-265" y="-47.9091"/>
      <point x="-222" y="-115" type="curve"/>
      <point x="-215" y="-130" type="line"/>
      <point x="-201.381" y="-163.009"/>
      <point x="-193" y="-194.578"/>
      <point x="-193" y="-245" type="curve" smooth="yes"/>
      <point x="-193" y="-260" type="line" smooth="yes"/>
      <point x="-193" y="-370"/>
      <point x="-249" y="-426"/>
      <point x="-361" y="-426" type="curve" smooth="yes"/>
      <point x="-465.956" y="-426"/>
      <point x="-522" y="-380.9"/>
      <point x="-522" y="-294" type="curve" smooth="yes"/>
      <point x="-522" y="-287" type="line" smooth="yes"/>
      <point x="-522" y="-187.633"/>
      <point x="-444" y="-130"/>
      <point x="-289" y="-130" type="curve" smooth="yes"/>
      <point x="-258" y="-130"/>
      <point x="-228" y="-132"/>
      <point x="-201" y="-135" type="curve"/>
      <point x="-215" y="-101" type="line"/>
      <point x="-240" y="-99"/>
      <point x="-266" y="-98"/>
      <point x="-294" y="-98" type="curve" smooth="yes"/>
      <point x="-463" y="-98"/>
      <point x="-557" y="-165.642"/>
      <point x="-557" y="-287" type="curve" smooth="yes"/>
      <point x="-557" y="-293" type="line" smooth="yes"/>
      <point x="-557" y="-400.143"/>
      <point x="-487.943" y="-458"/>
      <point x="-361" y="-458" type="curve" smooth="yes"/>
      <point x="-226.99" y="-458"/>
      <point x="-159" y="-388.054"/>
      <point x="-159" y="-260" type="curve" smooth="yes"/>
      <point x="-159" y="-246" type="line" smooth="yes"/>
      <point x="-159" y="-197.686"/>
      <point x="-165.333" y="-166.093"/>
      <point x="-178" y="-132" type="curve"/>
      <point x="-185" y="-116" type="line"/>
      <point x="-228" y="-28.5278"/>
      <point x="-327" y="32"/>
      <point x="-485" y="32" type="curve" smooth="yes"/>
      <point x="-663.423" y="32"/>
      <point x="-760.654" y="-31.1623"/>
      <point x="-786.061" y="-151.035" type="curve"/>
      <point x="-796.402" y="-150.841" type="line"/>
      <point x="-793" y="-249" type="line"/>
      <point x="-771" y="-282" type="line"/>
      <point x="-771" y="-236" type="line" smooth="yes"/>
      <point x="-771" y="-86"/>
      <point x="-682" y="0"/>
    </contour>
    <contour>
      <point x="-805.067" y="-497" type="line"/>
      <point x="-771.067" y="-497" type="line"/>
      <point x="-771.067" y="-182" type="line"/>
      <point x="-805.067" y="-182" type="line"/>
    </contour>
    <contour>
      <point x="-1097.07" y="32" type="curve" smooth="yes"/>
      <point x="-1322.4" y="32"/>
      <point x="-1435" y="-71.0699"/>
      <point x="-1435" y="-267" type="curve" smooth="yes"/>
      <point x="-1435" y="-302" type="line" smooth="yes"/>
      <point x="-1435" y="-437"/>
      <point x="-1365" y="-512"/>
      <point x="-1225" y="-512" type="curve" smooth="yes"/>
      <point x="-1096" y="-512"/>
      <point x="-1027" y="-452"/>
      <point x="-1027" y="-345" type="curve" smooth="yes"/>
      <point x="-1027" y="-331" type="line" smooth="yes"/>
      <point x="-1027" y="-222"/>
      <point x="-1096" y="-163"/>
      <point x="-1216" y="-163" type="curve" smooth="yes"/>
      <point x="-1311" y="-163"/>
      <point x="-1383" y="-205"/>
      <point x="-1414" y="-273" type="curve"/>
      <point x="-1403" y="-290" type="line"/>
      <point x="-1372" y="-230"/>
      <point x="-1308" y="-195"/>
      <point x="-1219" y="-195" type="curve" smooth="yes"/>
      <point x="-1116" y="-195"/>
      <point x="-1061" y="-244"/>
      <point x="-1061" y="-331" type="curve" smooth="yes"/>
      <point x="-1061" y="-346" type="line" smooth="yes"/>
      <point x="-1061" y="-433"/>
      <point x="-1119" y="-480"/>
      <point x="-1225" y="-480" type="curve" smooth="yes"/>
      <point x="-1343" y="-480"/>
      <point x="-1401" y="-421"/>
      <point x="-1401" y="-303" type="curve" smooth="yes"/>
      <point x="-1401" y="-279" type="line"/>
      <point x="-1394" y="-250" type="line"/>
      <point x="-1400.9" y="-250.089" type="line"/>
      <point x="-1395.3" y="-83.0372"/>
      <point x="-1293.82" y="0"/>
      <point x="-1097.07" y="0" type="curve" smooth="yes"/>
      <point x="-896.067" y="0"/>
      <point x="-805.067" y="-82"/>
      <point x="-805.067" y="-226" type="curve" smooth="yes"/>
      <point x="-805.067" y="-273" type="line"/>
      <point x="-782.067" y="-240" type="line"/>
      <point x="-788.467" y="-150.886" type="line"/>
      <point x="-809.898" y="-29.5571"/>
      <point x="-913.762" y="32"/>
    </contour>
  </outline>
</glyph>
<glyph name="three.mlm" format="2">
  <advance width="1957"/>
  <unicode hex="0D69"/>
  <outline>
    <contour>
      <point x="822" y="695" type="line"/>
      <point x="822" y="5" type="line"/>
      <point x="859" y="5" type="line"/>
      <point x="859" y="695" type="line"/>
    </contour>
    <contour>
      <point x="158" y="742" type="curve" smooth="yes"/>
      <point x="158" y="475" type="line" smooth="yes"/>
      <point x="158" y="255.591"/>
      <point x="215" y="110.323"/>
      <point x="314" y="0" type="curve"/>
      <point x="363" y="0" type="line"/>
      <point x="257" y="109.296"/>
      <point x="195" y="257.622"/>
      <point x="195" y="476" type="curve" smooth="yes"/>
      <point x="195" y="742" type="line" smooth="yes"/>
      <point x="195" y="1004.61"/>
      <point x="301" y="1139"/>
      <point x="521" y="1139" type="curve" smooth="yes"/>
      <point x="723" y="1139"/>
      <point x="822" y="1021"/>
      <point x="822" y="788" type="curve" smooth="yes"/>
      <point x="822" y="565" type="line"/>
      <point x="840" y="565" type="line"/>
      <point x="840" y="909" type="line"/>
      <point x="812" y="1081"/>
      <point x="704" y="1173"/>
      <point x="520" y="1173" type="curve" smooth="yes"/>
      <point x="275" y="1173"/>
      <point x="158" y="1027.63"/>
    </contour>
    <contour>
      <point x="1523" y="742" type="line" smooth="yes"/>
      <point x="1523" y="1027.63"/>
      <point x="1407" y="1173"/>
      <point x="1162" y="1173" type="curve" smooth="yes"/>
      <point x="979" y="1173"/>
      <point x="870" y="1081"/>
      <point x="842" y="909" type="curve"/>
      <point x="830" y="909" type="line"/>
      <point x="830" y="582" type="line"/>
      <point x="859" y="559" type="line"/>
      <point x="859" y="788" type="line" smooth="yes"/>
      <point x="859" y="1021"/>
      <point x="959" y="1139"/>
      <point x="1161" y="1139" type="curve" smooth="yes"/>
      <point x="1380" y="1139"/>
      <point x="1486" y="1004.61"/>
      <point x="1486" y="742" type="curve" smooth="yes"/>
      <point x="1486" y="476" type="line" smooth="yes"/>
      <point x="1486" y="261.652"/>
      <point x="1427" y="116.348"/>
      <point x="1323" y="6" type="curve"/>
      <point x="1323" y="0" type="line"/>
      <point x="1363" y="0" type="line"/>
      <point x="1466" y="111.344"/>
      <point x="1523" y="255.591"/>
      <point x="1523" y="475" type="curve" smooth="yes"/>
    </contour>
    <contour>
      <point x="1377" y="32" type="line"/>
      <point x="1329" y="0" type="line"/>
      <point x="1918" y="0" type="line"/>
      <point x="1927" y="32" type="line"/>
    </contour>
  </outline>
</glyph>
<glyph name="four.mlm" format="2">
  <advance width="1368"/>
  <unicode hex="0D6A"/>
  <outline>
    <contour>
      <point x="632" y="468" type="curve" smooth="yes"/>
      <point x="632" y="333" type="line" smooth="yes"/>
      <point x="632" y="100.052"/>
      <point x="732.651" y="-21"/>
      <point x="920" y="-21" type="curve" smooth="yes"/>
      <point x="1119.32" y="-21"/>
      <point x="1212" y="106.055"/>
      <point x="1212" y="350" type="curve" smooth="yes"/>
      <point x="1212" y="609" type="line" smooth="yes"/>
      <point x="1212" y="808.58"/>
      <point x="1156.93" y="957.217"/>
      <point x="1051" y="1055" type="curve" smooth="yes"/>
      <point x="1038" y="1067" type="line"/>
      <point x="952" y="1136.28"/>
      <point x="838" y="1175"/>
      <point x="688" y="1175" type="curve" smooth="yes"/>
      <point x="327" y="1175"/>
      <point x="156" y="988.605"/>
      <point x="156" y="626" type="curve" smooth="yes"/>
      <point x="156" y="429" type="line" smooth="yes"/>
      <point x="156" y="237"/>
      <point x="205" y="101"/>
      <point x="289" y="0" type="curve"/>
      <point x="335" y="0" type="line"/>
      <point x="246" y="101"/>
      <point x="193" y="238"/>
      <point x="193" y="430" type="curve" smooth="yes"/>
      <point x="193" y="626" type="line" smooth="yes"/>
      <point x="193" y="967.634"/>
      <point x="353" y="1141"/>
      <point x="688" y="1141" type="curve" smooth="yes"/>
      <point x="822" y="1141"/>
      <point x="926" y="1107.29"/>
      <point x="1006" y="1046" type="curve"/>
      <point x="1019" y="1035" type="line" smooth="yes"/>
      <point x="1123.84" y="946.289"/>
      <point x="1175" y="802.636"/>
      <point x="1175" y="609" type="curve" smooth="yes"/>
      <point x="1175" y="350" type="line" smooth="yes"/>
      <point x="1175" y="128.048"/>
      <point x="1095.31" y="13"/>
      <point x="920" y="13" type="curve" smooth="yes"/>
      <point x="756.651" y="13"/>
      <point x="669" y="123.064"/>
      <point x="669" y="333" type="curve" smooth="yes"/>
      <point x="669" y="466" type="line" smooth="yes"/>
      <point x="669" y="755.526"/>
      <point x="811.64" y="891.12"/>
      <point x="1034" y="1035" type="curve" smooth="yes"/>
      <point x="1051" y="1046" type="line" smooth="yes"/>
      <point x="1141.19" y="1104.36"/>
      <point x="1197" y="1183.86"/>
      <point x="1197" y="1296" type="curve" smooth="yes"/>
      <point x="1197" y="1384.04"/>
      <point x="1175" y="1458.61"/>
      <point x="1126" y="1528" type="curve"/>
      <point x="1087" y="1528" type="line"/>
      <point x="1141" y="1450.32"/>
      <point x="1161" y="1379.89"/>
      <point x="1161" y="1296" type="curve" smooth="yes"/>
      <point x="1161" y="1193.89"/>
      <point x="1109" y="1119.63"/>
      <point x="1022" y="1066" type="curve"/>
      <point x="1008" y="1058" type="line"/>
      <point x="785.185" y="915.274"/>
      <point x="632" y="782.6"/>
    </contour>
  </outline>
</glyph>
<glyph name="seven.mlm" format="2">
  <advance width="1374"/>
  <unicode hex="0D6D"/>
  <outline>
    <contour>
      <point x="179" y="544" type="curve"/>
      <point x="193" y="530" type="line"/>
      <point x="238.831" y="646"/>
      <point x="331.489" y="712"/>
      <point x="464" y="712" type="curve" smooth="yes"/>
      <point x="620.351" y="712"/>
      <point x="705" y="619.652"/>
      <point x="705" y="438" type="curve" smooth="yes"/>
      <point x="705" y="306" type="line" smooth="yes"/>
      <point x="705" y="109.315"/>
      <point x="619.344" y="13"/>
      <point x="456" y="13" type="curve" smooth="yes"/>
      <point x="282.659" y="13"/>
      <point x="193" y="116.259"/>
      <point x="193" y="341" type="curve" smooth="yes"/>
      <point x="193" y="556" type="line"/>
      <point x="204" y="582" type="line"/>
      <point x="193" y="582" type="line"/>
      <point x="193" y="602" type="line" smooth="yes"/>
      <point x="193" y="963.41"/>
      <point x="355.314" y="1141"/>
      <point x="687" y="1141" type="curve" smooth="yes"/>
      <point x="1018.66" y="1141"/>
      <point x="1181" y="958.703"/>
      <point x="1181" y="588" type="curve" smooth="yes"/>
      <point x="1181" y="315" type="line" smooth="yes"/>
      <point x="1181" y="-70.5685"/>
      <point x="1009" y="-272"/>
      <point x="674" y="-272" type="curve" smooth="yes"/>
      <point x="573" y="-272"/>
      <point x="485" y="-259"/>
      <point x="412" y="-232" type="curve"/>
      <point x="425" y="-271" type="line"/>
      <point x="497" y="-296"/>
      <point x="579" y="-306"/>
      <point x="674" y="-306" type="curve" smooth="yes"/>
      <point x="1034" y="-306"/>
      <point x="1218" y="-91.5466"/>
      <point x="1218" y="315" type="curve" smooth="yes"/>
      <point x="1218" y="588" type="line" smooth="yes"/>
      <point x="1218" y="979.672"/>
      <point x="1044.65" y="1175"/>
      <point x="687" y="1175" type="curve" smooth="yes"/>
      <point x="330.313" y="1175"/>
      <point x="156" y="984.345"/>
      <point x="156" y="602" type="curve" smooth="yes"/>
      <point x="156" y="341" type="line" smooth="yes"/>
      <point x="156" y="95.2849"/>
      <point x="258.658" y="-21"/>
      <point x="456" y="-21" type="curve" smooth="yes"/>
      <point x="643.345" y="-21"/>
      <point x="742" y="92.387"/>
      <point x="742" y="306" type="curve" smooth="yes"/>
      <point x="742" y="440" type="line" smooth="yes"/>
      <point x="742" y="639.609"/>
      <point x="643.357" y="746"/>
      <point x="466" y="746" type="curve" smooth="yes"/>
      <point x="320.507" y="746"/>
      <point x="212.882" y="664"/>
    </contour>
  </outline>
</glyph>
<glyph name="ten.mlm" format="2">
  <advance width="1736"/>
  <unicode hex="0D70"/>
  <outline>
    <contour>
      <point x="614" y="-23" type="curve" smooth="yes"/>
      <point x="786" y="-23"/>
      <point x="888" y="66"/>
      <point x="914" y="233" type="curve"/>
      <point x="925" y="233" type="line"/>
      <point x="925" y="563" type="line"/>
      <point x="896" y="586" type="line"/>
      <point x="896" y="358" type="line" smooth="yes"/>
      <point x="896" y="127"/>
      <point x="803" y="11"/>
      <point x="614" y="11" type="curve" smooth="yes"/>
      <point x="425" y="11"/>
      <point x="332" y="127"/>
      <point x="332" y="358" type="curve" smooth="yes"/>
      <point x="332" y="586" type="line"/>
      <point x="302" y="563" type="line"/>
      <point x="304" y="174" type="line"/>
      <point x="330" y="174" type="line"/>
      <point x="367" y="45"/>
      <point x="465" y="-23"/>
    </contour>
    <contour>
      <point x="933" y="440" type="line"/>
      <point x="933" y="1140" type="line"/>
      <point x="896" y="1140" type="line"/>
      <point x="896" y="440" type="line"/>
    </contour>
    <contour>
      <point x="295" y="41" type="line" smooth="yes"/>
      <point x="295" y="-146"/>
      <point x="208" y="-239"/>
      <point x="44" y="-239" type="curve" smooth="yes"/>
      <point x="-27" y="-239"/>
      <point x="-91" y="-229"/>
      <point x="-146" y="-206" type="curve"/>
      <point x="-133" y="-245" type="line"/>
      <point x="-80" y="-264"/>
      <point x="-22" y="-273"/>
      <point x="44" y="-273" type="curve" smooth="yes"/>
      <point x="230" y="-273"/>
      <point x="328" y="-166"/>
      <point x="328" y="41" type="curve" smooth="yes"/>
      <point x="328" y="201" type="line"/>
      <point x="332" y="220" type="line"/>
      <point x="332" y="1149" type="line"/>
      <point x="295" y="1149" type="line"/>
    </contour>
    <contour>
      <point x="916" y="233" type="line"/>
      <point x="944" y="67"/>
      <point x="1051" y="-23"/>
      <point x="1229" y="-23" type="curve" smooth="yes"/>
      <point x="1466" y="-23"/>
      <point x="1578" y="120.382"/>
      <point x="1578" y="401" type="curve" smooth="yes"/>
      <point x="1578" y="664" type="line" smooth="yes"/>
      <point x="1578" y="885.395"/>
      <point x="1518" y="1032.66"/>
      <point x="1414" y="1145" type="curve"/>
      <point x="1368" y="1145" type="line"/>
      <point x="1476" y="1032.67"/>
      <point x="1541" y="884.386"/>
      <point x="1541" y="663" type="curve" smooth="yes"/>
      <point x="1541" y="401" type="line" smooth="yes"/>
      <point x="1541" y="141.342"/>
      <point x="1440" y="11"/>
      <point x="1228" y="11" type="curve" smooth="yes"/>
      <point x="1030" y="11"/>
      <point x="933" y="125.965"/>
      <point x="933" y="358" type="curve" smooth="yes"/>
      <point x="933" y="580" type="line"/>
      <point x="916" y="580" type="line"/>
    </contour>
  </outline>
</glyph>
<glyph name="onehundred.mlm" format="2">
  <advance width="1681"/>
  <unicode hex="0D71"/>
  <outline>
    <contour>
      <point x="1156" y="1139" type="curve" smooth="yes"/>
      <point x="1380" y="1139"/>
      <point x="1486" y="994"/>
      <point x="1486" y="708" type="curve" smooth="yes"/>
      <point x="1486" y="337" type="line" smooth="yes"/>
      <point x="1486" y="-62.5609"/>
      <point x="1315" y="-272"/>
      <point x="982" y="-272" type="curve" smooth="yes"/>
      <point x="878" y="-272"/>
      <point x="787" y="-259"/>
      <point x="712" y="-232" type="curve"/>
      <point x="724" y="-271" type="line"/>
      <point x="799" y="-296"/>
      <point x="883" y="-306"/>
      <point x="982" y="-306" type="curve" smooth="yes"/>
      <point x="1341" y="-306"/>
      <point x="1523" y="-83.5403"/>
      <point x="1523" y="337" type="curve" smooth="yes"/>
      <point x="1523" y="708" type="line" smooth="yes"/>
      <point x="1523" y="1017"/>
      <point x="1407" y="1173"/>
      <point x="1157" y="1173" type="curve" smooth="yes"/>
      <point x="977" y="1173"/>
      <point x="871" y="1082"/>
      <point x="842" y="913" type="curve"/>
      <point x="831" y="913" type="line"/>
      <point x="831" y="588" type="line"/>
      <point x="859" y="565" type="line"/>
      <point x="859" y="788" type="line" smooth="yes"/>
      <point x="859" y="1021"/>
      <point x="956" y="1139"/>
    </contour>
    <contour>
      <point x="822" y="695" type="line"/>
      <point x="822" y="5" type="line"/>
      <point x="859" y="5" type="line"/>
      <point x="859" y="695" type="line"/>
    </contour>
    <contour>
      <point x="158" y="742" type="curve" smooth="yes"/>
      <point x="158" y="475" type="line" smooth="yes"/>
      <point x="158" y="255.591"/>
      <point x="215" y="110.323"/>
      <point x="314" y="0" type="curve"/>
      <point x="363" y="0" type="line"/>
      <point x="257" y="109.296"/>
      <point x="195" y="257.622"/>
      <point x="195" y="476" type="curve" smooth="yes"/>
      <point x="195" y="742" type="line" smooth="yes"/>
      <point x="195" y="1004.61"/>
      <point x="301" y="1139"/>
      <point x="521" y="1139" type="curve" smooth="yes"/>
      <point x="723" y="1139"/>
      <point x="822" y="1021"/>
      <point x="822" y="788" type="curve" smooth="yes"/>
      <point x="822" y="565" type="line"/>
      <point x="840" y="565" type="line"/>
      <point x="840" y="909" type="line"/>
      <point x="812" y="1081"/>
      <point x="704" y="1173"/>
      <point x="520" y="1173" type="curve" smooth="yes"/>
      <point x="275" y="1173"/>
      <point x="158" y="1027.63"/>
    </contour>
  </outline>
</glyph>
<glyph name="onethousand.mlm" format="2">
  <advance width="2560"/>
  <unicode hex="0D72"/>
  <outline>
    <component base="date.mlm"/>
    <contour>
      <point x="2025" y="702" type="line"/>
      <point x="2025" y="904" type="line" smooth="yes"/>
      <point x="2025" y="1055"/>
      <point x="2098" y="1132"/>
      <point x="2242" y="1132" type="curve" smooth="yes"/>
      <point x="2374" y="1132"/>
      <point x="2445" y="1056"/>
      <point x="2445" y="920" type="curve" smooth="yes"/>
      <point x="2445" y="906" type="line" smooth="yes"/>
      <point x="2445" y="776"/>
      <point x="2377" y="710"/>
      <point x="2238" y="710" type="curve" smooth="yes"/>
      <point x="1759" y="710" type="line"/>
      <point x="1762" y="678" type="line"/>
      <point x="2241" y="678" type="line" smooth="yes"/>
      <point x="2398" y="678"/>
      <point x="2482" y="754"/>
      <point x="2482" y="904" type="curve" smooth="yes"/>
      <point x="2482" y="920" type="line" smooth="yes"/>
      <point x="2482" y="1078"/>
      <point x="2399" y="1166"/>
      <point x="2242" y="1166" type="curve" smooth="yes"/>
      <point x="2075" y="1166"/>
      <point x="1989" y="1079"/>
      <point x="1989" y="906" type="curve" smooth="yes"/>
      <point x="1989" y="703" type="line"/>
    </contour>
  </outline>
</glyph>
<glyph name="onequarter.mlm" format="2">
  <advance width="1165"/>
  <unicode hex="0D73"/>
  <outline>
    <contour>
      <point x="193" y="530" type="line"/>
      <point x="238" y="644"/>
      <point x="330" y="709"/>
      <point x="462" y="709" type="curve" smooth="yes"/>
      <point x="617" y="709"/>
      <point x="701" y="617.315"/>
      <point x="701" y="437" type="curve" smooth="yes"/>
      <point x="701" y="304" type="line" smooth="yes"/>
      <point x="701" y="108.643"/>
      <point x="616" y="13"/>
      <point x="454" y="13" type="curve" smooth="yes"/>
      <point x="282" y="13"/>
      <point x="193" y="115.573"/>
      <point x="193" y="339" type="curve" smooth="yes"/>
      <point x="193" y="556" type="line"/>
      <point x="203" y="582" type="line"/>
      <point x="193" y="582" type="line"/>
      <point x="193" y="582" type="line"/>
      <point x="193" y="920.977"/>
      <point x="361.768" y="1089"/>
      <point x="710" y="1089" type="curve" smooth="yes"/>
      <point x="1094" y="1089" type="line"/>
      <point x="1085" y="1121" type="line"/>
      <point x="709" y="1121" type="line" smooth="yes"/>
      <point x="336.444" y="1121"/>
      <point x="156" y="941.658"/>
      <point x="156" y="582" type="curve" smooth="yes"/>
      <point x="156" y="339" type="line" smooth="yes"/>
      <point x="156" y="94.6056"/>
      <point x="258" y="-21"/>
      <point x="454" y="-21" type="curve" smooth="yes"/>
      <point x="640" y="-21"/>
      <point x="738" y="91.7344"/>
      <point x="738" y="304" type="curve" smooth="yes"/>
      <point x="738" y="439" type="line" smooth="yes"/>
      <point x="738" y="637.261"/>
      <point x="640" y="743"/>
      <point x="464" y="743" type="curve" smooth="yes"/>
      <point x="320" y="743"/>
      <point x="212" y="662"/>
      <point x="179" y="544" type="curve"/>
    </contour>
  </outline>
</glyph>
<glyph name="onehalf.mlm" format="2">
  <advance width="1691"/>
  <unicode hex="0D74"/>
  <outline>
    <contour>
      <point x="1248" y="-21" type="curve" smooth="yes"/>
      <point x="1444" y="-21"/>
      <point x="1535" y="102.386"/>
      <point x="1535" y="341" type="curve" smooth="yes"/>
      <point x="1535" y="579" type="line" smooth="yes"/>
      <point x="1535" y="874.273"/>
      <point x="1407" y="1063.65"/>
      <point x="1146" y="1139" type="curve"/>
      <point x="1141" y="1141"/>
      <point x="1134" y="1142"/>
      <point x="1128" y="1143" type="curve"/>
      <point x="1045" y="1165"/>
      <point x="949" y="1175"/>
      <point x="839" y="1175" type="curve" smooth="yes"/>
      <point x="378.031" y="1175"/>
      <point x="156" y="977.691"/>
      <point x="156" y="582" type="curve" smooth="yes"/>
      <point x="156" y="339" type="line" smooth="yes"/>
      <point x="156" y="94.6056"/>
      <point x="258" y="-21"/>
      <point x="454" y="-21" type="curve" smooth="yes"/>
      <point x="640" y="-21"/>
      <point x="738" y="91.7344"/>
      <point x="738" y="304" type="curve" smooth="yes"/>
      <point x="738" y="439" type="line" smooth="yes"/>
      <point x="738" y="637.261"/>
      <point x="640" y="743"/>
      <point x="464" y="743" type="curve" smooth="yes"/>
      <point x="320" y="743"/>
      <point x="212" y="662"/>
      <point x="179" y="544" type="curve"/>
      <point x="193" y="530" type="line"/>
      <point x="238" y="644"/>
      <point x="330" y="709"/>
      <point x="462" y="709" type="curve" smooth="yes"/>
      <point x="617" y="709"/>
      <point x="701" y="617.315"/>
      <point x="701" y="437" type="curve" smooth="yes"/>
      <point x="701" y="304" type="line" smooth="yes"/>
      <point x="701" y="108.643"/>
      <point x="616" y="13"/>
      <point x="454" y="13" type="curve" smooth="yes"/>
      <point x="282" y="13"/>
      <point x="193" y="115.573"/>
      <point x="193" y="339" type="curve" smooth="yes"/>
      <point x="193" y="556" type="line"/>
      <point x="203" y="582" type="line"/>
      <point x="193" y="582" type="line"/>
      <point x="193" y="582" type="line"/>
      <point x="193" y="955.744"/>
      <point x="403.035" y="1141"/>
      <point x="839" y="1141" type="curve" smooth="yes"/>
      <point x="945" y="1141"/>
      <point x="1036" y="1131"/>
      <point x="1116" y="1110" type="curve" smooth="yes"/>
      <point x="1120" y="1109"/>
      <point x="1130" y="1107"/>
      <point x="1133" y="1106" type="curve"/>
      <point x="1372" y="1034.65"/>
      <point x="1498" y="866.455"/>
      <point x="1498" y="579" type="curve" smooth="yes"/>
      <point x="1498" y="341" type="line" smooth="yes"/>
      <point x="1498" y="125.399"/>
      <point x="1420" y="13"/>
      <point x="1248" y="13" type="curve" smooth="yes"/>
      <point x="1089" y="13"/>
      <point x="1003" y="116.405"/>
      <point x="1003" y="314" type="curve" smooth="yes"/>
      <point x="1003" y="565" type="line" smooth="yes"/>
      <point x="1003" y="794.083"/>
      <point x="1066" y="946.468"/>
      <point x="1147" y="1115" type="curve"/>
      <point x="1149" y="1118"/>
      <point x="1152" y="1125"/>
      <point x="1154" y="1128" type="curve"/>
      <point x="1185" y="1189.63"/>
      <point x="1203" y="1252.29"/>
      <point x="1203" y="1317" type="curve" smooth="yes"/>
      <point x="1203" y="1401.04"/>
      <point x="1181" y="1471.6"/>
      <point x="1136" y="1538" type="curve"/>
      <point x="1096" y="1538" type="line"/>
      <point x="1146" y="1463.3"/>
      <point x="1166" y="1397.93"/>
      <point x="1166" y="1317" type="curve" smooth="yes"/>
      <point x="1166" y="1254.27"/>
      <point x="1149" y="1195.65"/>
      <point x="1118" y="1136" type="curve"/>
      <point x="1117" y="1133"/>
      <point x="1113.97" y="1127.02"/>
      <point x="1112" y="1123" type="curve" smooth="yes"/>
      <point x="1031" y="957.512"/>
      <point x="966" y="807.16"/>
      <point x="966" y="567" type="curve" smooth="yes"/>
      <point x="966" y="314" type="line" smooth="yes"/>
      <point x="966" y="93.3902"/>
      <point x="1065" y="-21"/>
    </contour>
  </outline>
</glyph>
<glyph name="threequarters.mlm" format="2">
  <advance width="2221"/>
  <unicode hex="0D75"/>
  <outline>
    <contour>
      <point x="655" y="1173" type="curve" smooth="yes"/>
      <point x="320" y="1173"/>
      <point x="156" y="983.345"/>
      <point x="156" y="603" type="curve" smooth="yes"/>
      <point x="156" y="339" type="line" smooth="yes"/>
      <point x="156" y="94.6056"/>
      <point x="258" y="-21"/>
      <point x="455" y="-21" type="curve" smooth="yes"/>
      <point x="641" y="-21"/>
      <point x="739" y="91.7344"/>
      <point x="739" y="304" type="curve" smooth="yes"/>
      <point x="739" y="439" type="line" smooth="yes"/>
      <point x="739" y="637.261"/>
      <point x="641" y="743"/>
      <point x="465" y="743" type="curve" smooth="yes"/>
      <point x="320" y="743"/>
      <point x="213" y="662"/>
      <point x="179" y="543" type="curve"/>
      <point x="193" y="529" type="line"/>
      <point x="239" y="644"/>
      <point x="331" y="709"/>
      <point x="463" y="709" type="curve" smooth="yes"/>
      <point x="618" y="709"/>
      <point x="702" y="617.315"/>
      <point x="702" y="437" type="curve" smooth="yes"/>
      <point x="702" y="304" type="line" smooth="yes"/>
      <point x="702" y="108.643"/>
      <point x="617" y="13"/>
      <point x="455" y="13" type="curve" smooth="yes"/>
      <point x="282" y="13"/>
      <point x="193" y="115.573"/>
      <point x="193" y="339" type="curve" smooth="yes"/>
      <point x="193" y="555" type="line"/>
      <point x="199" y="581" type="line"/>
      <point x="193" y="581" type="line"/>
      <point x="193" y="603" type="line" smooth="yes"/>
      <point x="193" y="962.411"/>
      <point x="345" y="1139"/>
      <point x="655" y="1139" type="curve" smooth="yes"/>
      <point x="941" y="1139"/>
      <point x="1087" y="1002"/>
      <point x="1087" y="751" type="curve" smooth="yes"/>
      <point x="1087" y="601" type="line"/>
      <point x="1102" y="601" type="line"/>
      <point x="1104" y="864" type="line"/>
      <point x="1064" y="1074"/>
      <point x="903" y="1173"/>
    </contour>
    <contour>
      <point x="1087" y="5" type="line"/>
      <point x="1124" y="5" type="line"/>
      <point x="1124" y="700" type="line"/>
      <point x="1087" y="700" type="line"/>
    </contour>
    <contour>
      <point x="1556" y="1139" type="curve" smooth="yes"/>
      <point x="1594" y="1139"/>
      <point x="1628" y="1137"/>
      <point x="1660" y="1132" type="curve"/>
      <point x="1676" y="1129" type="line" smooth="yes"/>
      <point x="1911.14" y="1084.91"/>
      <point x="2028" y="897.635"/>
      <point x="2028" y="599" type="curve" smooth="yes"/>
      <point x="2028" y="339" type="line" smooth="yes"/>
      <point x="2028" y="124.392"/>
      <point x="1951" y="13"/>
      <point x="1780" y="13" type="curve" smooth="yes"/>
      <point x="1622" y="13"/>
      <point x="1537" y="115.397"/>
      <point x="1537" y="312" type="curve" smooth="yes"/>
      <point x="1537" y="565" type="line" smooth="yes"/>
      <point x="1537" y="804.083"/>
      <point x="1606" y="962.462"/>
      <point x="1696" y="1139" type="curve"/>
      <point x="1698" y="1142"/>
      <point x="1700" y="1150"/>
      <point x="1702" y="1153" type="curve"/>
      <point x="1729" y="1208.64"/>
      <point x="1743" y="1264.27"/>
      <point x="1743" y="1323" type="curve" smooth="yes"/>
      <point x="1743" y="1404.01"/>
      <point x="1721" y="1472.57"/>
      <point x="1676" y="1538" type="curve"/>
      <point x="1637" y="1538" type="line"/>
      <point x="1687" y="1465.29"/>
      <point x="1706" y="1401.94"/>
      <point x="1706" y="1323" type="curve" smooth="yes"/>
      <point x="1706" y="1266.26"/>
      <point x="1692" y="1213.65"/>
      <point x="1666" y="1160" type="curve"/>
      <point x="1664" y="1157"/>
      <point x="1663" y="1150"/>
      <point x="1660" y="1147" type="curve"/>
      <point x="1570" y="973.504"/>
      <point x="1500" y="817.157"/>
      <point x="1500" y="567" type="curve" smooth="yes"/>
      <point x="1500" y="312" type="line" smooth="yes"/>
      <point x="1500" y="92.3834"/>
      <point x="1598" y="-21"/>
      <point x="1780" y="-21" type="curve" smooth="yes"/>
      <point x="1975" y="-21"/>
      <point x="2065" y="102.399"/>
      <point x="2065" y="339" type="curve" smooth="yes"/>
      <point x="2065" y="599" type="line" smooth="yes"/>
      <point x="2065" y="913.608"/>
      <point x="1941" y="1108.07"/>
      <point x="1692" y="1160" type="curve"/>
      <point x="1676" y="1164" type="line"/>
      <point x="1640" y="1170"/>
      <point x="1600" y="1173"/>
      <point x="1556" y="1173" type="curve" smooth="yes"/>
      <point x="1307" y="1173"/>
      <point x="1147" y="1075"/>
      <point x="1107" y="864" type="curve"/>
      <point x="1097" y="864" type="line"/>
      <point x="1098" y="611" type="line"/>
      <point x="1124" y="611" type="line"/>
      <point x="1124" y="751" type="line" smooth="yes"/>
      <point x="1124" y="1002"/>
      <point x="1269" y="1139"/>
    </contour>
  </outline>
</glyph>
<glyph name="oneeighth.mlm" format="2">
  <advance width="3291"/>
  <unicode hex="0D77"/>
  <outline>
    <contour>
      <point x="471" y="756" type="curve" smooth="yes"/>
      <point x="252" y="756"/>
      <point x="144" y="632.522"/>
      <point x="144" y="401" type="curve" smooth="yes"/>
      <point x="144" y="308" type="line" smooth="yes"/>
      <point x="144" y="170.855"/>
      <point x="178" y="70.1386"/>
      <point x="242" y="0" type="curve"/>
      <point x="288" y="0" type="line"/>
      <point x="220" y="72.1716"/>
      <point x="181" y="171.871"/>
      <point x="181" y="308" type="curve" smooth="yes"/>
      <point x="181" y="401" type="line" smooth="yes"/>
      <point x="181" y="612.592"/>
      <point x="279" y="722"/>
      <point x="471" y="722" type="curve" smooth="yes"/>
      <point x="664" y="722"/>
      <point x="762" y="612.592"/>
      <point x="762" y="401" type="curve" smooth="yes"/>
      <point x="762" y="308" type="line" smooth="yes"/>
      <point x="762" y="174.879"/>
      <point x="722" y="76.1616"/>
      <point x="651" y="6" type="curve"/>
      <point x="651" y="0" type="line"/>
      <point x="686" y="0" type="line"/>
      <point x="761" y="70.1386"/>
      <point x="799" y="170.855"/>
      <point x="799" y="308" type="curve" smooth="yes"/>
      <point x="799" y="401" type="line" smooth="yes"/>
      <point x="799" y="632.522"/>
      <point x="691" y="756"/>
    </contour>
    <contour>
      <point x="1853" y="700" type="line"/>
      <point x="1853" y="266" type="line"/>
      <point x="1890" y="266" type="line"/>
      <point x="1890" y="700" type="line"/>
    </contour>
    <contour>
      <point x="2316" y="1173" type="curve" smooth="yes"/>
      <point x="2082" y="1173"/>
      <point x="1919" y="1080"/>
      <point x="1876" y="889" type="curve"/>
      <point x="1864" y="889" type="line"/>
      <point x="1864" y="611" type="line"/>
      <point x="1890" y="611" type="line"/>
      <point x="1890" y="760" type="line" smooth="yes"/>
      <point x="1890" y="1006"/>
      <point x="2036" y="1139"/>
      <point x="2316" y="1139" type="curve" smooth="yes"/>
      <point x="2620" y="1139"/>
      <point x="2767" y="955.407"/>
      <point x="2767" y="628" type="curve" smooth="yes"/>
      <point x="2767" y="330" type="line" smooth="yes"/>
      <point x="2767" y="114.603"/>
      <point x="2677" y="13"/>
      <point x="2514" y="13" type="curve" smooth="yes"/>
      <point x="2351" y="13"/>
      <point x="2262" y="106.661"/>
      <point x="2262" y="295" type="curve" smooth="yes"/>
      <point x="2262" y="400" type="line" smooth="yes"/>
      <point x="2262" y="580.242"/>
      <point x="2349" y="678"/>
      <point x="2532" y="678" type="curve" smooth="yes"/>
      <point x="2781" y="678" type="line"/>
      <point x="2791" y="710" type="line"/>
      <point x="2530" y="710" type="line" smooth="yes"/>
      <point x="2326" y="710"/>
      <point x="2225" y="601.234"/>
      <point x="2225" y="402" type="curve" smooth="yes"/>
      <point x="2225" y="295" type="line" smooth="yes"/>
      <point x="2225" y="86.7042"/>
      <point x="2326" y="-21"/>
      <point x="2514" y="-21" type="curve" smooth="yes"/>
      <point x="2702" y="-21"/>
      <point x="2804" y="91.604"/>
      <point x="2804" y="330" type="curve" smooth="yes"/>
      <point x="2804" y="627" type="line" smooth="yes"/>
      <point x="2804" y="981.493"/>
      <point x="2642" y="1173"/>
    </contour>
    <contour>
      <point x="1192" y="742" type="curve" smooth="yes"/>
      <point x="1192" y="475" type="line" smooth="yes"/>
      <point x="1192" y="255.591"/>
      <point x="1250" y="111.344"/>
      <point x="1352" y="0" type="curve"/>
      <point x="1392" y="0" type="line"/>
      <point x="1392" y="6" type="line"/>
      <point x="1289" y="116.348"/>
      <point x="1229" y="261.652"/>
      <point x="1229" y="476" type="curve" smooth="yes"/>
      <point x="1229" y="742" type="line" smooth="yes"/>
      <point x="1229" y="1004.61"/>
      <point x="1337" y="1139"/>
      <point x="1554" y="1139" type="curve" smooth="yes"/>
      <point x="1753" y="1139"/>
      <point x="1853" y="1021"/>
      <point x="1853" y="788" type="curve" smooth="yes"/>
      <point x="1853" y="559" type="line"/>
      <point x="1872" y="559" type="line"/>
      <point x="1874" y="889" type="line"/>
      <point x="1848" y="1082"/>
      <point x="1736" y="1173"/>
      <point x="1553" y="1173" type="curve" smooth="yes"/>
      <point x="1310" y="1173"/>
      <point x="1192" y="1027.63"/>
    </contour>
    <contour>
      <point x="695" y="32" type="line"/>
      <point x="651" y="0" type="line"/>
      <point x="1392" y="0" type="line"/>
      <point x="1358" y="32" type="line"/>
    </contour>
    <contour>
      <point x="3159" y="1066" type="curve"/>
      <point x="3127" y="1066" type="line"/>
      <point x="3127" y="931" type="line" smooth="yes"/>
      <point x="3127" y="782"/>
      <point x="3062" y="710"/>
      <point x="2923" y="710" type="curve" smooth="yes"/>
      <point x="2790" y="710" type="line"/>
      <point x="2780" y="678" type="line"/>
      <point x="2926" y="678" type="line" smooth="yes"/>
      <point x="3083" y="678"/>
      <point x="3163" y="758"/>
      <point x="3163" y="924" type="curve" smooth="yes"/>
      <point x="3163" y="980"/>
      <point x="3161" y="1012"/>
    </contour>
  </outline>
</glyph>
<glyph name="chilluRr.mlm" format="2">
  <advance width="1366"/>
  <unicode hex="0D7C"/>
  <outline>
    <contour>
      <point x="635" y="567" type="curve" smooth="yes"/>
      <point x="635" y="320" type="line" smooth="yes"/>
      <point x="635" y="95.0632"/>
      <point x="734.65" y="-21"/>
      <point x="920" y="-21" type="curve" smooth="yes"/>
      <point x="1118.32" y="-21"/>
      <point x="1210" y="105.084"/>
      <point x="1210" y="347" type="curve" smooth="yes"/>
      <point x="1210" y="599" type="line" smooth="yes"/>
      <point x="1210" y="914.606"/>
      <point x="1083.66" y="1110.08"/>
      <point x="830" y="1162" type="curve"/>
      <point x="814" y="1166" type="line"/>
      <point x="775" y="1172"/>
      <point x="732" y="1175"/>
      <point x="685" y="1175" type="curve" smooth="yes"/>
      <point x="326" y="1175"/>
      <point x="156" y="988.605"/>
      <point x="156" y="626" type="curve" smooth="yes"/>
      <point x="156" y="439" type="line" smooth="yes"/>
      <point x="156" y="242.758"/>
      <point x="205" y="103.354"/>
      <point x="289" y="0" type="curve"/>
      <point x="335" y="0" type="line"/>
      <point x="246" y="103.349"/>
      <point x="193" y="243.767"/>
      <point x="193" y="440" type="curve" smooth="yes"/>
      <point x="193" y="626" type="line" smooth="yes"/>
      <point x="193" y="967.634"/>
      <point x="351" y="1141"/>
      <point x="685" y="1141" type="curve" smooth="yes"/>
      <point x="726" y="1141"/>
      <point x="763" y="1139"/>
      <point x="798" y="1134" type="curve"/>
      <point x="814" y="1131" type="line" smooth="yes"/>
      <point x="1054.2" y="1085.96"/>
      <point x="1173" y="898.632"/>
      <point x="1173" y="599" type="curve" smooth="yes"/>
      <point x="1173" y="347" type="line" smooth="yes"/>
      <point x="1173" y="127.074"/>
      <point x="1094.31" y="13"/>
      <point x="920" y="13" type="curve" smooth="yes"/>
      <point x="758.651" y="13"/>
      <point x="672" y="118.081"/>
      <point x="672" y="320" type="curve" smooth="yes"/>
      <point x="672" y="565" type="line" smooth="yes"/>
      <point x="672" y="804.083"/>
      <point x="741" y="962.462"/>
      <point x="831" y="1139" type="curve"/>
      <point x="833" y="1142"/>
      <point x="835" y="1150"/>
      <point x="837" y="1153" type="curve"/>
      <point x="864" y="1208.64"/>
      <point x="878" y="1264.27"/>
      <point x="878" y="1323" type="curve" smooth="yes"/>
      <point x="878" y="1404.01"/>
      <point x="856" y="1472.57"/>
      <point x="811" y="1538" type="curve"/>
      <point x="772" y="1538" type="line"/>
      <point x="822" y="1465.29"/>
      <point x="841" y="1401.94"/>
      <point x="841" y="1323" type="curve" smooth="yes"/>
      <point x="841" y="1266.26"/>
      <point x="827" y="1213.65"/>
      <point x="801" y="1160" type="curve"/>
      <point x="799" y="1157"/>
      <point x="798" y="1150"/>
      <point x="795" y="1147" type="curve"/>
      <point x="705" y="973.504"/>
      <point x="635" y="817.157"/>
    </contour>
  </outline>
</glyph>
<glyph name="chilluL.mlm" format="2">
  <advance width="2168"/>
  <unicode hex="0D7D"/>
  <outline>
    <contour>
      <point x="1975" y="563" type="curve" smooth="yes"/>
      <point x="1975" y="339" type="line" smooth="yes"/>
      <point x="1975" y="124.392"/>
      <point x="1898" y="13"/>
      <point x="1727" y="13" type="curve" smooth="yes"/>
      <point x="1569" y="13"/>
      <point x="1484" y="115.397"/>
      <point x="1484" y="312" type="curve" smooth="yes"/>
      <point x="1484" y="560" type="line" smooth="yes"/>
      <point x="1484" y="785.239"/>
      <point x="1554" y="925.917"/>
      <point x="1674" y="1089" type="curve"/>
      <point x="1676" y="1092"/>
      <point x="1681" y="1098"/>
      <point x="1683" y="1101" type="curve"/>
      <point x="1734" y="1170.64"/>
      <point x="1759" y="1240.29"/>
      <point x="1759" y="1313" type="curve" smooth="yes"/>
      <point x="1759" y="1398.02"/>
      <point x="1737" y="1469.57"/>
      <point x="1692" y="1538" type="curve"/>
      <point x="1653" y="1538" type="line"/>
      <point x="1703" y="1462.31"/>
      <point x="1722" y="1395.95"/>
      <point x="1722" y="1313" type="curve" smooth="yes"/>
      <point x="1722" y="1242.28"/>
      <point x="1696" y="1175.65"/>
      <point x="1647" y="1108" type="curve"/>
      <point x="1645" y="1105"/>
      <point x="1641" y="1100"/>
      <point x="1638" y="1097" type="curve"/>
      <point x="1518" y="937.01"/>
      <point x="1447" y="797.381"/>
      <point x="1447" y="562" type="curve" smooth="yes"/>
      <point x="1447" y="312" type="line" smooth="yes"/>
      <point x="1447" y="92.3834"/>
      <point x="1545" y="-21"/>
      <point x="1727" y="-21" type="curve" smooth="yes"/>
      <point x="1922" y="-21"/>
      <point x="2012" y="102.399"/>
      <point x="2012" y="339" type="curve" smooth="yes"/>
      <point x="2012" y="563" type="line" smooth="yes"/>
      <point x="2012" y="861.446"/>
      <point x="1877.65" y="1031.14"/>
      <point x="1678" y="1111" type="curve" smooth="yes"/>
      <point x="1663" y="1117" type="line"/>
      <point x="1559.39" y="1155"/>
      <point x="1443.71" y="1173"/>
      <point x="1323" y="1173" type="curve" smooth="yes"/>
      <point x="1172.83" y="1173"/>
      <point x="1041.09" y="1151.58"/>
      <point x="937" y="1103" type="curve" smooth="yes"/>
      <point x="922" y="1096" type="line" smooth="yes"/>
      <point x="728.626" y="1005.76"/>
      <point x="632" y="818.593"/>
      <point x="632" y="558" type="curve" smooth="yes"/>
      <point x="632" y="343" type="line" smooth="yes"/>
      <point x="632" y="102.39"/>
      <point x="730.664" y="-21"/>
      <point x="926" y="-21" type="curve" smooth="yes"/>
      <point x="1120.34" y="-21"/>
      <point x="1219" y="104.398"/>
      <point x="1219" y="348" type="curve" smooth="yes"/>
      <point x="1219" y="585" type="line" smooth="yes"/>
      <point x="1219" y="819.08"/>
      <point x="1136.34" y="1000.29"/>
      <point x="973" y="1095" type="curve"/>
      <point x="956" y="1106" type="line"/>
      <point x="876" y="1150"/>
      <point x="779" y="1173"/>
      <point x="666" y="1173" type="curve" smooth="yes"/>
      <point x="325.667" y="1173"/>
      <point x="156" y="989.617"/>
      <point x="156" y="631" type="curve" smooth="yes"/>
      <point x="156" y="445" type="line" smooth="yes"/>
      <point x="156" y="245.747"/>
      <point x="205" y="106.391"/>
      <point x="290" y="0" type="curve"/>
      <point x="336" y="0" type="line"/>
      <point x="246" y="106.385"/>
      <point x="193" y="245.734"/>
      <point x="193" y="446" type="curve" smooth="yes"/>
      <point x="193" y="631" type="line" smooth="yes"/>
      <point x="193" y="968.647"/>
      <point x="347.673" y="1139"/>
      <point x="666" y="1139" type="curve" smooth="yes"/>
      <point x="763" y="1139"/>
      <point x="852" y="1120"/>
      <point x="922" y="1087" type="curve"/>
      <point x="938" y="1078" type="line" smooth="yes"/>
      <point x="1099.34" y="987.321"/>
      <point x="1182" y="810.025"/>
      <point x="1182" y="585" type="curve" smooth="yes"/>
      <point x="1182" y="348" type="line" smooth="yes"/>
      <point x="1182" y="125.354"/>
      <point x="1096.33" y="13"/>
      <point x="926" y="13" type="curve" smooth="yes"/>
      <point x="755.663" y="13"/>
      <point x="669" y="124.375"/>
      <point x="669" y="343" type="curve" smooth="yes"/>
      <point x="669" y="558" type="line" smooth="yes"/>
      <point x="669" y="812.737"/>
      <point x="763.672" y="984.466"/>
      <point x="958" y="1076" type="curve"/>
      <point x="974" y="1081" type="line"/>
      <point x="1069.82" y="1117"/>
      <point x="1187.84" y="1139"/>
      <point x="1323" y="1139" type="curve" smooth="yes"/>
      <point x="1437.71" y="1139"/>
      <point x="1548.4" y="1122"/>
      <point x="1646" y="1087" type="curve"/>
      <point x="1656" y="1083" type="line"/>
      <point x="1846" y="1015.71"/>
      <point x="1975" y="840.333"/>
    </contour>
  </outline>
</glyph>
<glyph name="chilluLl.mlm" format="2">
  <advance width="1862"/>
  <unicode hex="0D7E"/>
  <outline>
    <contour>
      <point x="1320" y="1166" type="line" smooth="yes"/>
      <point x="1290" y="1172"/>
      <point x="1255" y="1175"/>
      <point x="1218" y="1175" type="curve" smooth="yes"/>
      <point x="902" y="1175"/>
      <point x="749" y="1007.63"/>
      <point x="749" y="679" type="curve" smooth="yes"/>
      <point x="749" y="574.93"/>
      <point x="764" y="432.07"/>
      <point x="764" y="328" type="curve" smooth="yes"/>
      <point x="764" y="117.355"/>
      <point x="672" y="11"/>
      <point x="491" y="11" type="curve" smooth="yes"/>
      <point x="293" y="11"/>
      <point x="195" y="132.296"/>
      <point x="195" y="379" type="curve" smooth="yes"/>
      <point x="195" y="652" type="line" smooth="yes"/>
      <point x="195" y="880.421"/>
      <point x="262" y="1031.69"/>
      <point x="379" y="1146" type="curve"/>
      <point x="332" y="1146" type="line"/>
      <point x="220" y="1032.7"/>
      <point x="158" y="880.41"/>
      <point x="158" y="653" type="curve" smooth="yes"/>
      <point x="158" y="379" type="line" smooth="yes"/>
      <point x="158" y="113.393"/>
      <point x="268" y="-23"/>
      <point x="491" y="-23" type="curve" smooth="yes"/>
      <point x="696" y="-23"/>
      <point x="801" y="97.4513"/>
      <point x="801" y="326" type="curve" smooth="yes"/>
      <point x="801" y="430.054"/>
      <point x="786" y="571.946"/>
      <point x="786" y="676" type="curve" smooth="yes"/>
      <point x="786" y="985.659"/>
      <point x="927" y="1141"/>
      <point x="1218" y="1141" type="curve" smooth="yes"/>
      <point x="1249" y="1141"/>
      <point x="1278" y="1139"/>
      <point x="1304" y="1135" type="curve"/>
      <point x="1320" y="1131" type="line"/>
      <point x="1554" y="1086.16"/>
      <point x="1669" y="898.632"/>
      <point x="1669" y="599" type="curve" smooth="yes"/>
      <point x="1669" y="339" type="line" smooth="yes"/>
      <point x="1669" y="124.392"/>
      <point x="1592" y="13"/>
      <point x="1421" y="13" type="curve" smooth="yes"/>
      <point x="1263" y="13"/>
      <point x="1178" y="115.397"/>
      <point x="1178" y="312" type="curve" smooth="yes"/>
      <point x="1178" y="565" type="line" smooth="yes"/>
      <point x="1178" y="804.083"/>
      <point x="1247" y="962.462"/>
      <point x="1337" y="1139" type="curve"/>
      <point x="1339" y="1142"/>
      <point x="1341" y="1150"/>
      <point x="1343" y="1153" type="curve"/>
      <point x="1370" y="1208.64"/>
      <point x="1384" y="1264.27"/>
      <point x="1384" y="1323" type="curve" smooth="yes"/>
      <point x="1384" y="1404.01"/>
      <point x="1362" y="1472.57"/>
      <point x="1317" y="1538" type="curve"/>
      <point x="1278" y="1538" type="line"/>
      <point x="1328" y="1465.29"/>
      <point x="1347" y="1401.94"/>
      <point x="1347" y="1323" type="curve" smooth="yes"/>
      <point x="1347" y="1266.26"/>
      <point x="1333" y="1213.65"/>
      <point x="1307" y="1160" type="curve"/>
      <point x="1305" y="1157"/>
      <point x="1304" y="1150"/>
      <point x="1301" y="1147" type="curve"/>
      <point x="1211" y="973.504"/>
      <point x="1141" y="817.157"/>
      <point x="1141" y="567" type="curve" smooth="yes"/>
      <point x="1141" y="312" type="line" smooth="yes"/>
      <point x="1141" y="92.3834"/>
      <point x="1239" y="-21"/>
      <point x="1421" y="-21" type="curve" smooth="yes"/>
      <point x="1616" y="-21"/>
      <point x="1706" y="102.399"/>
      <point x="1706" y="339" type="curve" smooth="yes"/>
      <point x="1706" y="599" type="line" smooth="yes"/>
      <point x="1706" y="914.596"/>
      <point x="1583" y="1111.08"/>
      <point x="1336" y="1163" type="curve"/>
    </contour>
  </outline>
</glyph>
